<?xml version="1.0" encoding="utf-8"?>
<!--
 Licensed to the Apache Software Foundation (ASF) under one or more
 contributor license agreements.  See the NOTICE file distributed with
 this work for additional information regarding copyright ownership.
 The ASF licenses this file to you under the Apache License, Version 2.0
 (the "License"); you may not use this file except in compliance with
 the License.  You may obtain a copy of the License at

 https://www.apache.org/licenses/LICENSE-2.0

 Unless required by applicable law or agreed to in writing, software
 distributed under the License is distributed on an "AS IS" BASIS,
 WITHOUT WARRANTIES OR CONDITIONS OF ANY KIND, either express or implied.
 See the License for the specific language governing permissions and
 limitations under the License.
-->
<!-- Generator: Adobe Illustrator 16.0.4, SVG Export Plug-In . SVG Version: 6.00 Build 0)  -->
<!DOCTYPE svg PUBLIC "-//W3C//DTD SVG 1.1//EN" "http://www.w3.org/Graphics/SVG/1.1/DTD/svg11.dtd">
<svg version="1.1" id="Layer_1" xmlns="http://www.w3.org/2000/svg" xmlns:xlink="http://www.w3.org/1999/xlink" x="0px" y="0px"
	 width="55.75px" height="25.25px" viewBox="112.25 37 55.75 25.25" enable-background="new 112.25 37 55.75 25.25"
	 xml:space="preserve">
<g id="Ebene_1" display="none">
	<rect x="90" display="inline" fill="#32A8E0" width="100" height="100"/>
</g>
<g id="Ebene_2" display="none">
	<g display="inline">
		<polygon fill="#3F3F3F" points="126.614,43.774 112.081,31.429 114.55,41.764 		"/>
		<polygon fill="#3F3F3F" points="128.377,42.646 123.228,20.07 112.011,28.677 		"/>
		<polygon fill="#3F3F3F" points="142.698,33.651 147.848,49.771 152.998,20.07 		"/>
		<polygon fill="#3F3F3F" points="125.521,21.058 130.635,43.351 140.088,33.51 		"/>
		<polygon fill="#3F3F3F" points="167.989,41.623 155.186,19.083 149.471,52.099 		"/>
		<polygon fill="#3F3F3F" points="126.402,19.118 141.429,31.993 152.539,17.284 		"/>
		<polygon fill="#3F3F3F" points="149.4,54.462 153.633,65.221 166.402,44.833 		"/>
		<polygon fill="#3F3F3F" points="146.72,52.91 141.534,36.614 135.997,52.17 		"/>
		<polygon fill="#3F3F3F" points="131.34,45.538 134.374,50.688 139.065,37.531 		"/>
	</g>
	<g display="inline">
		<g>
			<path fill="#3F3F3F" d="M112.363,77.812h0.564c0.141,0,0.282,0,0.388-0.035c0.105-0.035,0.211-0.07,0.247-0.141
				c0.071-0.07,0.106-0.105,0.141-0.176c0.035-0.071,0.035-0.142,0.035-0.248c0-0.07,0-0.141-0.035-0.246
				c-0.035-0.07-0.07-0.142-0.141-0.177c-0.07-0.07-0.141-0.106-0.247-0.142c-0.106-0.035-0.247-0.035-0.388-0.035h-0.564V77.812z
				 M112.011,76.297h0.987c0.353,0,0.635,0.07,0.847,0.211c0.212,0.141,0.317,0.389,0.317,0.705c0,0.318-0.105,0.529-0.317,0.706
				c-0.211,0.142-0.494,0.247-0.847,0.247h-0.635v1.587h-0.353V76.297z"/>
			<path fill="#3F3F3F" d="M116.103,77.812h0.635c0.141,0,0.282,0,0.388-0.035c0.106-0.035,0.212-0.07,0.247-0.141
				c0.071-0.07,0.106-0.105,0.141-0.176c0.035-0.071,0.035-0.142,0.035-0.248c0-0.07,0-0.141-0.035-0.246
				c-0.035-0.07-0.07-0.142-0.141-0.177c-0.07-0.07-0.141-0.106-0.247-0.142c-0.105-0.035-0.247-0.035-0.388-0.035h-0.635V77.812z
				 M116.103,79.718h-0.353v-3.456h1.058c0.353,0,0.635,0.07,0.847,0.211c0.212,0.141,0.317,0.389,0.317,0.705
				c0,0.247-0.07,0.459-0.211,0.6c-0.141,0.177-0.353,0.248-0.67,0.283l0.988,1.622h-0.423l-0.952-1.587h-0.6V79.718z"/>
			<path fill="#3F3F3F" d="M120.088,78.483h1.481l-0.741-1.8L120.088,78.483z M119.559,79.718h-0.423l1.481-3.456h0.353l1.481,3.456
				h-0.423l-0.388-0.917h-1.764L119.559,79.718z"/>
			<path fill="#3F3F3F" d="M126.473,76.896c-0.106-0.142-0.247-0.213-0.423-0.283s-0.353-0.105-0.564-0.105
				c-0.211,0-0.423,0.035-0.6,0.105s-0.317,0.177-0.458,0.318c-0.106,0.141-0.211,0.281-0.282,0.458
				c-0.07,0.177-0.106,0.353-0.106,0.564s0.036,0.388,0.106,0.564c0.071,0.177,0.141,0.353,0.282,0.458
				c0.106,0.142,0.282,0.248,0.458,0.318s0.388,0.105,0.6,0.105c0.176,0,0.353-0.035,0.529-0.07s0.317-0.105,0.423-0.177v-1.164
				h-0.812v-0.317h1.164v1.693c-0.211,0.105-0.423,0.211-0.635,0.246c-0.247,0.071-0.458,0.106-0.67,0.106
				c-0.247,0-0.494-0.035-0.706-0.142c-0.211-0.105-0.423-0.211-0.564-0.388c-0.177-0.177-0.282-0.353-0.388-0.563
				c-0.106-0.213-0.141-0.459-0.141-0.741c0-0.247,0.035-0.494,0.141-0.741c0.106-0.211,0.211-0.423,0.388-0.564
				c0.176-0.176,0.353-0.281,0.564-0.388c0.212-0.106,0.459-0.142,0.706-0.142c0.282,0,0.529,0.035,0.706,0.106
				c0.212,0.07,0.388,0.177,0.529,0.353L126.473,76.896z"/>
			<polygon fill="#3F3F3F" points="130.388,79.083 131.552,76.262 132.081,76.262 132.081,79.718 131.729,79.718 131.729,76.755 
				131.729,76.755 130.458,79.718 130.282,79.718 129.048,76.755 129.048,76.755 129.048,79.718 128.695,79.718 128.695,76.297 
				129.224,76.297 			"/>
			<path fill="#3F3F3F" d="M134.444,78.483h1.481l-0.741-1.8L134.444,78.483z M133.916,79.718h-0.423l1.481-3.456h0.353l1.481,3.456
				h-0.423l-0.388-0.917h-1.764L133.916,79.718z"/>
			<polygon fill="#3F3F3F" points="139.065,79.718 138.712,79.718 138.712,76.613 137.548,76.613 137.548,76.297 140.229,76.297 
				140.229,76.613 139.065,76.613 			"/>
			<rect x="141.711" y="76.262" fill="#3F3F3F" width="0.353" height="3.456"/>
			<path fill="#3F3F3F" d="M146.825,79.188c-0.07,0.106-0.142,0.177-0.212,0.247s-0.176,0.141-0.281,0.212
				c-0.106,0.07-0.248,0.105-0.354,0.142c-0.141,0.035-0.246,0.035-0.423,0.035c-0.247,0-0.494-0.035-0.706-0.142
				c-0.211-0.106-0.423-0.212-0.564-0.388c-0.176-0.177-0.281-0.354-0.388-0.564c-0.105-0.212-0.141-0.459-0.141-0.741
				c0-0.247,0.035-0.493,0.141-0.741c0.106-0.211,0.212-0.423,0.388-0.564c0.177-0.176,0.354-0.281,0.564-0.387
				c0.212-0.106,0.459-0.142,0.706-0.142c0.212,0,0.423,0.035,0.635,0.142c0.212,0.07,0.388,0.211,0.564,0.423l-0.317,0.212
				c-0.035-0.07-0.07-0.106-0.141-0.177c-0.071-0.071-0.142-0.106-0.213-0.142c-0.07-0.035-0.176-0.07-0.246-0.105
				c-0.105-0.035-0.177-0.035-0.282-0.035c-0.212,0-0.423,0.035-0.6,0.105s-0.317,0.177-0.458,0.318
				c-0.142,0.141-0.213,0.281-0.283,0.458s-0.105,0.353-0.105,0.564s0.035,0.388,0.105,0.564s0.142,0.353,0.283,0.458
				c0.105,0.142,0.281,0.247,0.458,0.318c0.177,0.07,0.388,0.105,0.6,0.105c0.105,0,0.177,0,0.282-0.035
				c0.07,0,0.176-0.035,0.246-0.07c0.071-0.035,0.178-0.106,0.248-0.177c0.07-0.071,0.141-0.142,0.211-0.247L146.825,79.188z"/>
			<polygon fill="#3F3F3F" points="148.201,76.262 149.33,76.262 150.141,78.519 150.141,78.519 150.952,76.262 152.081,76.262 
				152.081,79.718 151.305,79.718 151.305,77.072 151.305,77.072 150.389,79.718 149.824,79.718 148.941,77.072 148.941,77.072 
				148.941,79.718 148.201,79.718 			"/>
			<rect x="153.738" y="76.262" fill="#3F3F3F" width="0.777" height="3.456"/>
			<polygon fill="#3F3F3F" points="156.173,76.262 157.195,76.262 158.643,78.66 158.678,78.66 158.678,76.262 159.418,76.262 
				159.418,79.718 158.43,79.718 156.949,77.284 156.914,77.284 156.914,79.718 156.173,79.718 			"/>
			<path fill="#3F3F3F" d="M161.852,79.012h0.389c0.176,0,0.353-0.035,0.494-0.07c0.141-0.035,0.281-0.105,0.387-0.176
				c0.106-0.07,0.213-0.177,0.248-0.318c0.07-0.141,0.105-0.316,0.105-0.493s-0.035-0.317-0.105-0.423
				c-0.071-0.142-0.142-0.212-0.248-0.318c-0.105-0.07-0.246-0.141-0.387-0.176c-0.142-0.035-0.283-0.07-0.459-0.07h-0.459v2.045
				H161.852z M161.111,76.262h1.129c0.281,0,0.529,0.035,0.775,0.105c0.247,0.07,0.459,0.176,0.635,0.281
				c0.177,0.142,0.318,0.318,0.459,0.529c0.105,0.212,0.176,0.494,0.176,0.812c0,0.282-0.07,0.529-0.176,0.741
				c-0.105,0.211-0.247,0.388-0.424,0.529c-0.176,0.141-0.388,0.246-0.6,0.316c-0.246,0.071-0.493,0.106-0.74,0.106h-1.234V76.262z"
				/>
			<path fill="#3F3F3F" d="M167.461,77.107c-0.071-0.07-0.142-0.141-0.248-0.176c-0.105-0.035-0.211-0.07-0.281-0.07
				s-0.106,0-0.177,0.035c-0.071,0-0.106,0.035-0.177,0.07c-0.035,0.035-0.105,0.07-0.141,0.105s-0.035,0.105-0.035,0.176
				c0,0.106,0.035,0.177,0.105,0.248c0.07,0.07,0.176,0.105,0.282,0.141s0.247,0.07,0.388,0.105
				c0.142,0.035,0.247,0.105,0.389,0.177c0.105,0.07,0.211,0.177,0.281,0.282c0.071,0.105,0.106,0.282,0.106,0.494
				c0,0.176-0.035,0.353-0.106,0.493c-0.07,0.142-0.176,0.247-0.281,0.353c-0.105,0.106-0.247,0.177-0.424,0.212
				c-0.176,0.036-0.317,0.071-0.494,0.071c-0.211,0-0.423-0.035-0.635-0.106c-0.176-0.07-0.352-0.177-0.529-0.317l0.529-0.6
				c0.07,0.105,0.177,0.176,0.283,0.247c0.105,0.07,0.246,0.07,0.352,0.07c0.071,0,0.106,0,0.177-0.035
				c0.071,0,0.106-0.035,0.177-0.071c0.035-0.035,0.105-0.07,0.105-0.105c0.035-0.035,0.035-0.105,0.035-0.176
				c0-0.105-0.035-0.177-0.105-0.247c-0.07-0.071-0.176-0.106-0.282-0.142s-0.247-0.07-0.388-0.141
				c-0.142-0.035-0.283-0.105-0.389-0.176c-0.105-0.071-0.211-0.178-0.281-0.283c-0.071-0.105-0.106-0.281-0.106-0.458
				s0.035-0.353,0.106-0.494c0.07-0.142,0.176-0.247,0.281-0.353s0.247-0.176,0.424-0.212c0.176-0.035,0.317-0.07,0.494-0.07
				c0.211,0,0.388,0.035,0.564,0.07c0.176,0.071,0.352,0.142,0.493,0.282L167.461,77.107z"/>
		</g>
	</g>
</g>
<g id="Ebene_3" display="none">
	<g display="inline">
		<polygon fill="#3F3F3F" points="163.615,48.924 161.711,47.302 162.028,48.677 		"/>
		<polygon fill="#3F3F3F" points="163.862,48.783 163.156,45.82 161.711,46.949 		"/>
		<polygon fill="#3F3F3F" points="165.732,47.619 166.402,49.7 167.072,45.82 		"/>
		<polygon fill="#3F3F3F" points="163.475,45.961 164.145,48.889 165.379,47.584 		"/>
		<polygon fill="#3F3F3F" points="169.048,48.642 167.354,45.679 166.613,50.018 		"/>
		<polygon fill="#3F3F3F" points="163.58,45.714 165.556,47.372 167.002,45.467 		"/>
		<polygon fill="#3F3F3F" points="166.578,50.335 167.143,51.746 168.836,49.065 		"/>
		<polygon fill="#3F3F3F" points="166.262,50.124 165.556,48.007 164.85,50.018 		"/>
		<polygon fill="#3F3F3F" points="164.215,49.171 164.639,49.841 165.238,48.113 		"/>
	</g>
	<g display="inline">
		<g>
			<path fill="#3F3F3F" d="M111.27,52.698h0.494c0.141,0,0.247,0,0.353-0.035c0.106-0.035,0.177-0.07,0.247-0.106
				c0.071-0.035,0.106-0.105,0.141-0.176s0.035-0.141,0.035-0.211c0-0.071,0-0.142-0.035-0.213c-0.035-0.07-0.07-0.141-0.141-0.176
				c-0.07-0.035-0.141-0.07-0.247-0.105c-0.105-0.035-0.211-0.035-0.353-0.035h-0.494V52.698z M110.952,51.322h0.917
				c0.317,0,0.564,0.071,0.741,0.212c0.176,0.142,0.282,0.353,0.282,0.636c0,0.281-0.106,0.493-0.282,0.635
				c-0.176,0.141-0.423,0.211-0.741,0.211h-0.6v1.446h-0.318V51.322z"/>
			<path fill="#3F3F3F" d="M114.691,52.698h0.564c0.141,0,0.247,0,0.353-0.035s0.176-0.07,0.247-0.106
				c0.07-0.035,0.106-0.105,0.141-0.176s0.035-0.141,0.035-0.211c0-0.071,0-0.142-0.035-0.213c-0.035-0.07-0.071-0.141-0.141-0.176
				c-0.071-0.035-0.141-0.105-0.247-0.105c-0.106-0.035-0.211-0.035-0.353-0.035h-0.564V52.698z M114.691,54.462h-0.317v-3.104
				h0.952c0.317,0,0.564,0.071,0.741,0.213c0.176,0.141,0.282,0.352,0.282,0.635c0,0.211-0.07,0.388-0.211,0.564
				c-0.141,0.141-0.317,0.246-0.6,0.246l0.882,1.482h-0.388l-0.847-1.447h-0.494V54.462z"/>
			<path fill="#3F3F3F" d="M118.289,53.334h1.34l-0.67-1.623L118.289,53.334z M117.795,54.462h-0.388l1.341-3.104h0.317l1.34,3.104
				h-0.388l-0.353-0.812h-1.587L117.795,54.462z"/>
			<path fill="#3F3F3F" d="M124.074,51.887c-0.106-0.105-0.247-0.211-0.388-0.281c-0.141-0.071-0.317-0.106-0.494-0.106
				c-0.212,0-0.388,0.035-0.529,0.106c-0.176,0.07-0.282,0.176-0.388,0.281c-0.105,0.142-0.176,0.283-0.247,0.424
				c-0.071,0.176-0.106,0.317-0.106,0.529c0,0.211,0.035,0.353,0.106,0.529c0.07,0.176,0.141,0.316,0.247,0.423
				c0.106,0.105,0.247,0.212,0.388,0.282s0.353,0.105,0.529,0.105c0.176,0,0.317-0.035,0.458-0.07s0.282-0.105,0.388-0.176v-1.059
				h-0.741v-0.282h1.059v1.517c-0.177,0.105-0.353,0.176-0.564,0.247c-0.212,0.07-0.423,0.07-0.6,0.07
				c-0.247,0-0.458-0.035-0.635-0.142c-0.211-0.07-0.353-0.211-0.529-0.352c-0.141-0.142-0.247-0.318-0.353-0.529
				c-0.07-0.212-0.105-0.424-0.105-0.67c0-0.248,0.035-0.459,0.105-0.671c0.071-0.212,0.212-0.388,0.353-0.529
				c0.141-0.141,0.317-0.247,0.529-0.353c0.212-0.07,0.423-0.141,0.635-0.141c0.247,0,0.458,0.035,0.635,0.105
				s0.353,0.176,0.494,0.317L124.074,51.887z"/>
			<polygon fill="#3F3F3F" points="127.602,53.862 128.66,51.322 129.153,51.322 129.153,54.462 128.836,54.462 128.836,51.746 
				128.836,51.746 127.707,54.462 127.531,54.462 126.402,51.746 126.402,51.746 126.402,54.462 126.084,54.462 126.084,51.322 
				126.543,51.322 			"/>
			<path fill="#3F3F3F" d="M131.27,53.334h1.34l-0.67-1.623L131.27,53.334z M130.812,54.462h-0.353l1.34-3.104h0.317l1.341,3.104
				h-0.388l-0.353-0.812h-1.587L130.812,54.462z"/>
			<polygon fill="#3F3F3F" points="135.467,54.462 135.15,54.462 135.15,51.605 134.127,51.605 134.127,51.322 136.525,51.322 
				136.525,51.605 135.467,51.605 			"/>
			<rect x="137.901" y="51.322" fill="#3F3F3F" width="0.317" height="3.104"/>
			<path fill="#3F3F3F" d="M142.486,53.969c-0.035,0.07-0.105,0.141-0.211,0.211c-0.07,0.07-0.177,0.141-0.282,0.177
				c-0.106,0.035-0.212,0.105-0.317,0.105c-0.105,0.036-0.247,0.036-0.354,0.036c-0.246,0-0.458-0.036-0.635-0.142
				c-0.211-0.071-0.353-0.212-0.529-0.353c-0.141-0.142-0.247-0.318-0.353-0.529c-0.071-0.212-0.141-0.424-0.141-0.67
				c0-0.248,0.035-0.459,0.141-0.671c0.07-0.212,0.211-0.388,0.353-0.528c0.141-0.142,0.317-0.248,0.529-0.354
				c0.212-0.07,0.424-0.141,0.635-0.141c0.212,0,0.389,0.035,0.564,0.105c0.212,0.07,0.354,0.212,0.494,0.389l-0.282,0.211
				c-0.035-0.035-0.07-0.105-0.142-0.141c-0.07-0.035-0.105-0.105-0.176-0.142c-0.07-0.035-0.141-0.07-0.247-0.105
				c-0.07-0.035-0.177-0.035-0.247-0.035c-0.211,0-0.388,0.035-0.529,0.105c-0.141,0.071-0.282,0.177-0.387,0.282
				c-0.106,0.141-0.212,0.282-0.247,0.424c-0.071,0.176-0.106,0.316-0.106,0.529c0,0.176,0.035,0.352,0.106,0.528
				c0.07,0.177,0.141,0.317,0.247,0.423c0.105,0.106,0.247,0.213,0.387,0.283c0.177,0.07,0.354,0.105,0.529,0.105
				c0.07,0,0.177,0,0.247-0.035c0.071,0,0.177-0.035,0.247-0.07s0.141-0.07,0.212-0.142c0.07-0.07,0.141-0.142,0.177-0.212
				L142.486,53.969z"/>
			<polygon fill="#3F3F3F" points="143.757,51.322 144.779,51.322 145.484,53.369 145.521,53.369 146.226,51.322 147.284,51.322 
				147.284,54.462 146.578,54.462 146.578,52.063 146.578,52.063 145.768,54.462 145.238,54.462 144.427,52.063 144.427,52.063 
				144.427,54.462 143.757,54.462 			"/>
			<rect x="148.766" y="51.322" fill="#3F3F3F" width="0.705" height="3.104"/>
			<polygon fill="#3F3F3F" points="150.952,51.322 151.904,51.322 153.245,53.51 153.245,53.51 153.245,51.322 153.916,51.322 
				153.916,54.462 153.033,54.462 151.658,52.24 151.658,52.24 151.658,54.462 150.952,54.462 			"/>
			<path fill="#3F3F3F" d="M156.138,53.827h0.353c0.176,0,0.317,0,0.459-0.035c0.141-0.035,0.246-0.071,0.353-0.177
				c0.105-0.07,0.177-0.176,0.247-0.281c0.07-0.106,0.07-0.283,0.07-0.459c0-0.141-0.035-0.282-0.07-0.389
				c-0.07-0.105-0.142-0.211-0.247-0.281c-0.106-0.071-0.212-0.142-0.353-0.177c-0.142-0.035-0.283-0.071-0.424-0.071h-0.388V53.827
				z M155.432,51.322h1.023c0.247,0,0.494,0.035,0.705,0.071c0.212,0.07,0.424,0.141,0.6,0.282c0.177,0.141,0.318,0.281,0.389,0.494
				c0.105,0.211,0.141,0.458,0.141,0.74c0,0.246-0.035,0.459-0.141,0.67c-0.105,0.177-0.212,0.354-0.389,0.494
				c-0.176,0.141-0.353,0.211-0.564,0.282c-0.211,0.07-0.423,0.105-0.67,0.105h-1.129v-3.14H155.432z"/>
			<path fill="#3F3F3F" d="M161.217,52.099c-0.07-0.07-0.141-0.105-0.211-0.142c-0.106-0.035-0.177-0.035-0.283-0.035
				c-0.035,0-0.105,0-0.141,0.035c-0.07,0-0.105,0.036-0.141,0.071s-0.07,0.07-0.106,0.105c-0.035,0.036-0.035,0.106-0.035,0.142
				c0,0.105,0.035,0.176,0.106,0.211c0.07,0.035,0.141,0.106,0.281,0.142c0.105,0.035,0.212,0.07,0.354,0.106
				c0.141,0.035,0.246,0.07,0.352,0.141c0.106,0.07,0.213,0.141,0.283,0.246c0.07,0.106,0.105,0.248,0.105,0.424
				s-0.035,0.317-0.105,0.459c-0.07,0.141-0.142,0.246-0.247,0.316c-0.106,0.071-0.247,0.142-0.388,0.178
				c-0.142,0.035-0.283,0.07-0.459,0.07c-0.212,0-0.389-0.035-0.564-0.106c-0.176-0.07-0.317-0.177-0.494-0.282l0.494-0.529
				c0.07,0.106,0.176,0.177,0.282,0.212s0.212,0.071,0.317,0.071c0.07,0,0.105,0,0.176-0.036c0.071,0,0.106-0.035,0.142-0.07
				c0.036-0.035,0.071-0.07,0.106-0.106c0.035-0.035,0.035-0.105,0.035-0.141c0-0.105-0.035-0.176-0.105-0.211
				c-0.071-0.071-0.178-0.106-0.283-0.142s-0.211-0.071-0.353-0.106s-0.247-0.105-0.353-0.141c-0.105-0.07-0.212-0.141-0.282-0.246
				c-0.071-0.106-0.106-0.248-0.106-0.424c0-0.177,0.035-0.317,0.106-0.424c0.07-0.141,0.142-0.246,0.247-0.316
				c0.105-0.071,0.246-0.142,0.388-0.177c0.142-0.036,0.282-0.071,0.458-0.071c0.178,0,0.354,0.035,0.494,0.071
				c0.177,0.035,0.318,0.141,0.459,0.247L161.217,52.099z"/>
		</g>
	</g>
</g>
<g id="Ebene_4" display="none">
	<g display="inline">
		<path fill="#3F3F3F" d="M99.982,61.199h0.776v0.67h0.035c0.212-0.246,0.458-0.423,0.741-0.564
			c0.282-0.141,0.564-0.211,0.917-0.211c0.353,0,0.67,0.07,0.987,0.176c0.282,0.105,0.529,0.283,0.741,0.494
			c0.212,0.211,0.353,0.459,0.494,0.775c0.105,0.283,0.176,0.6,0.176,0.953c0,0.353-0.071,0.67-0.176,0.952
			c-0.106,0.282-0.282,0.529-0.494,0.776c-0.211,0.211-0.458,0.388-0.741,0.494c-0.282,0.105-0.564,0.176-0.882,0.176
			c-0.423,0-0.776-0.105-1.058-0.282c-0.317-0.177-0.529-0.388-0.67-0.67h-0.036v3.033h-0.776v-6.772H99.982z M100.758,63.492
			c0,0.246,0.035,0.459,0.106,0.67c0.07,0.212,0.176,0.389,0.317,0.529s0.317,0.282,0.494,0.353c0.212,0.071,0.423,0.142,0.67,0.142
			s0.458-0.035,0.67-0.142c0.212-0.07,0.353-0.212,0.494-0.353s0.247-0.317,0.317-0.529c0.07-0.211,0.106-0.424,0.106-0.67
			c0-0.247-0.036-0.459-0.106-0.67c-0.07-0.212-0.176-0.389-0.317-0.529s-0.317-0.282-0.494-0.354
			c-0.211-0.07-0.423-0.141-0.67-0.141s-0.458,0.035-0.67,0.141c-0.211,0.071-0.353,0.213-0.494,0.354s-0.247,0.317-0.317,0.529
			C100.793,63.033,100.758,63.245,100.758,63.492z"/>
		<path fill="#3F3F3F" d="M106.473,62.293c0-0.212,0-0.389-0.035-0.6c0-0.177-0.035-0.354-0.035-0.494h0.705
			c0,0.105,0,0.247,0,0.354c0,0.105,0,0.246,0,0.387h0.036c0.035-0.105,0.141-0.211,0.211-0.316
			c0.106-0.106,0.211-0.212,0.353-0.283c0.141-0.07,0.282-0.141,0.423-0.211c0.176-0.035,0.353-0.07,0.529-0.07
			c0.035,0,0.106,0,0.141,0s0.106,0.035,0.141,0.035l-0.035,0.775c-0.141-0.035-0.282-0.07-0.423-0.07
			c-0.458,0-0.812,0.141-1.023,0.459c-0.212,0.317-0.317,0.705-0.317,1.234v2.223h-0.776v-3.422H106.473z"/>
		<path fill="#3F3F3F" d="M110.317,61.799c0.247-0.246,0.494-0.424,0.847-0.529c0.317-0.105,0.635-0.176,0.988-0.176
			c0.67,0,1.164,0.176,1.446,0.494c0.282,0.316,0.459,0.811,0.459,1.445v1.94c0,0.142,0,0.247,0.035,0.388
			c0,0.141,0.035,0.282,0.035,0.389h-0.741c-0.035-0.106-0.035-0.212-0.035-0.354c0-0.141,0-0.246,0-0.353h-0.035
			c-0.141,0.247-0.353,0.423-0.6,0.564c-0.247,0.142-0.564,0.212-0.917,0.212c-0.247,0-0.458-0.035-0.67-0.07
			c-0.212-0.07-0.388-0.142-0.529-0.248c-0.141-0.105-0.282-0.246-0.353-0.422c-0.106-0.178-0.141-0.354-0.141-0.601
			c0-0.388,0.105-0.67,0.282-0.882c0.211-0.211,0.423-0.388,0.741-0.494c0.282-0.105,0.6-0.176,0.917-0.211s0.635-0.035,0.917-0.035
			h0.317v-0.07c0-0.318-0.105-0.564-0.282-0.741c-0.211-0.177-0.458-0.247-0.846-0.247c-0.247,0-0.494,0.035-0.741,0.105
			c-0.247,0.07-0.459,0.212-0.635,0.389L110.317,61.799z M112.54,63.562c-0.494,0-0.882,0.07-1.164,0.212s-0.423,0.353-0.423,0.67
			c0,0.282,0.106,0.494,0.282,0.6c0.177,0.106,0.423,0.177,0.706,0.177c0.212,0,0.423-0.035,0.564-0.105
			c0.176-0.071,0.317-0.177,0.423-0.283c0.106-0.105,0.211-0.281,0.247-0.423c0.07-0.177,0.105-0.353,0.105-0.529v-0.282h-0.741
			V63.562z"/>
		<path fill="#3F3F3F" d="M120.476,65.573c0,0.847-0.211,1.446-0.635,1.905c-0.423,0.423-1.023,0.635-1.834,0.635
			c-0.458,0-0.846-0.07-1.199-0.212c-0.353-0.142-0.705-0.353-1.023-0.671l0.529-0.635c0.247,0.247,0.494,0.459,0.776,0.6
			c0.282,0.142,0.564,0.212,0.917,0.212c0.353,0,0.635-0.035,0.847-0.142c0.212-0.105,0.388-0.246,0.529-0.423
			s0.211-0.353,0.282-0.6c0.035-0.212,0.07-0.458,0.07-0.705v-0.6H119.7c-0.176,0.282-0.423,0.493-0.706,0.635
			s-0.6,0.212-0.882,0.212c-0.353,0-0.67-0.07-0.988-0.177c-0.282-0.106-0.564-0.282-0.776-0.493
			c-0.211-0.213-0.388-0.459-0.494-0.741s-0.176-0.6-0.176-0.917c0-0.354,0.07-0.705,0.176-0.988
			c0.106-0.281,0.282-0.564,0.494-0.74c0.212-0.212,0.458-0.354,0.776-0.459c0.282-0.105,0.635-0.176,0.988-0.176
			c0.141,0,0.317,0.035,0.458,0.07s0.317,0.105,0.458,0.176c0.141,0.071,0.282,0.177,0.388,0.283
			c0.106,0.105,0.211,0.246,0.282,0.388h0.035v-0.776h0.776v4.339H120.476z M116.49,63.492c0,0.246,0.035,0.459,0.141,0.635
			c0.071,0.212,0.212,0.353,0.353,0.529c0.141,0.141,0.317,0.246,0.494,0.353c0.211,0.07,0.388,0.142,0.635,0.142
			c0.247,0,0.494-0.035,0.706-0.142s0.388-0.212,0.494-0.353c0.141-0.141,0.247-0.317,0.318-0.529
			c0.07-0.211,0.105-0.424,0.105-0.635c0-0.247-0.035-0.459-0.105-0.67c-0.071-0.212-0.177-0.389-0.318-0.529
			s-0.317-0.247-0.529-0.354c-0.212-0.07-0.423-0.105-0.67-0.105c-0.247,0-0.458,0.035-0.67,0.141
			c-0.212,0.071-0.353,0.213-0.494,0.354s-0.247,0.317-0.317,0.529C116.525,63.033,116.49,63.245,116.49,63.492z"/>
		<path fill="#3F3F3F" d="M122.346,62.293c0-0.212,0-0.389-0.035-0.6c0-0.177-0.036-0.354-0.036-0.494h0.706
			c0,0.105,0,0.247,0,0.354c0,0.105,0,0.246,0,0.387h0.035c0.036-0.105,0.141-0.211,0.212-0.316
			c0.106-0.106,0.211-0.212,0.353-0.283c0.141-0.07,0.282-0.141,0.423-0.211c0.176-0.035,0.353-0.07,0.529-0.07
			c0.247,0,0.458,0.035,0.635,0.105s0.317,0.141,0.423,0.211c0.106,0.071,0.211,0.178,0.247,0.283
			c0.07,0.105,0.105,0.176,0.141,0.281c0.176-0.281,0.353-0.493,0.6-0.635c0.211-0.141,0.494-0.211,0.846-0.211
			c0.318,0,0.6,0.035,0.812,0.141c0.211,0.07,0.388,0.212,0.529,0.389c0.141,0.176,0.247,0.352,0.282,0.6
			c0.07,0.246,0.07,0.493,0.07,0.775v2.752h-0.67v-2.717c0-0.141,0-0.317-0.035-0.458c-0.035-0.142-0.106-0.282-0.176-0.388
			c-0.07-0.106-0.211-0.213-0.353-0.283s-0.318-0.105-0.529-0.105c-0.176,0-0.317,0.035-0.458,0.105s-0.282,0.142-0.388,0.283
			c-0.105,0.105-0.176,0.246-0.247,0.423c-0.071,0.177-0.106,0.353-0.106,0.564v2.61h-0.776V63.21c0-0.494-0.071-0.882-0.212-1.058
			c-0.141-0.213-0.353-0.318-0.67-0.318c-0.247,0-0.459,0.035-0.635,0.141c-0.176,0.071-0.317,0.213-0.423,0.354
			c-0.105,0.141-0.211,0.353-0.247,0.564c-0.071,0.211-0.071,0.459-0.071,0.705v2.223h-0.776V62.293z"/>
		<path fill="#3F3F3F" d="M131.058,61.799c0.247-0.246,0.494-0.424,0.847-0.529c0.317-0.105,0.635-0.176,0.988-0.176
			c0.67,0,1.164,0.176,1.446,0.494c0.282,0.316,0.458,0.811,0.458,1.445v1.94c0,0.142,0,0.247,0.035,0.388
			c0,0.141,0.035,0.282,0.035,0.389h-0.741c-0.035-0.106-0.035-0.212-0.035-0.354c0-0.141,0-0.246,0-0.353h-0.035
			c-0.141,0.247-0.353,0.423-0.6,0.564c-0.247,0.142-0.564,0.212-0.917,0.212c-0.247,0-0.458-0.035-0.67-0.07
			c-0.212-0.07-0.388-0.142-0.529-0.248c-0.141-0.105-0.282-0.246-0.353-0.422c-0.106-0.178-0.141-0.354-0.141-0.601
			c0-0.388,0.105-0.67,0.282-0.882c0.211-0.211,0.423-0.388,0.741-0.494c0.282-0.105,0.6-0.176,0.917-0.211s0.635-0.035,0.917-0.035
			h0.282v-0.07c0-0.318-0.106-0.564-0.282-0.741c-0.211-0.177-0.458-0.247-0.847-0.247c-0.247,0-0.494,0.035-0.741,0.105
			c-0.247,0.07-0.458,0.212-0.635,0.389L131.058,61.799z M133.28,63.562c-0.494,0-0.882,0.07-1.164,0.212s-0.423,0.353-0.423,0.67
			c0,0.282,0.105,0.494,0.282,0.6c0.177,0.106,0.423,0.177,0.706,0.177c0.212,0,0.423-0.035,0.564-0.105
			c0.176-0.071,0.317-0.177,0.423-0.283c0.106-0.105,0.211-0.281,0.247-0.423c0.07-0.177,0.105-0.353,0.105-0.529v-0.282h-0.741
			V63.562z"/>
		<path fill="#3F3F3F" d="M139.171,61.869h-1.34v2.293c0,0.141,0,0.282,0,0.424c0,0.141,0.035,0.246,0.071,0.316
			c0.035,0.106,0.105,0.177,0.211,0.213c0.106,0.07,0.212,0.07,0.388,0.07c0.106,0,0.211,0,0.353-0.035
			c0.106-0.035,0.212-0.071,0.317-0.106l0.036,0.706c-0.141,0.07-0.282,0.105-0.423,0.141c-0.176,0.035-0.317,0.035-0.458,0.035
			c-0.282,0-0.494-0.035-0.635-0.105c-0.176-0.07-0.282-0.177-0.388-0.318c-0.106-0.141-0.141-0.281-0.177-0.493
			c-0.035-0.177-0.035-0.388-0.035-0.635v-2.505h-0.988v-0.635h0.988V59.93h0.776v1.305h1.341v0.635H139.171z"/>
		<path fill="#3F3F3F" d="M140.476,59.436c0-0.141,0.071-0.282,0.176-0.388c0.105-0.106,0.247-0.177,0.389-0.177
			c0.141,0,0.281,0.07,0.388,0.177c0.105,0.105,0.177,0.247,0.177,0.388c0,0.176-0.035,0.282-0.142,0.389
			c-0.106,0.105-0.247,0.141-0.388,0.141c-0.177,0-0.283-0.035-0.389-0.141C140.547,59.718,140.476,59.576,140.476,59.436z
			 M140.652,61.199h0.776v4.551h-0.776V61.199z"/>
		<path fill="#3F3F3F" d="M146.648,62.363c-0.176-0.211-0.352-0.353-0.528-0.424c-0.177-0.07-0.388-0.141-0.636-0.141
			c-0.246,0-0.493,0.035-0.67,0.141c-0.211,0.071-0.353,0.213-0.494,0.354c-0.141,0.141-0.211,0.353-0.281,0.529
			c-0.07,0.211-0.105,0.423-0.105,0.67c0,0.246,0.035,0.459,0.105,0.67c0.07,0.212,0.176,0.389,0.317,0.529s0.282,0.282,0.493,0.353
			c0.177,0.071,0.389,0.142,0.635,0.142c0.494,0,0.883-0.177,1.164-0.564l0.564,0.529c-0.211,0.246-0.493,0.423-0.775,0.564
			c-0.282,0.105-0.6,0.176-0.953,0.176c-0.352,0-0.67-0.07-0.951-0.176c-0.283-0.106-0.529-0.283-0.741-0.494
			c-0.212-0.212-0.353-0.459-0.494-0.776c-0.105-0.282-0.177-0.6-0.177-0.952c0-0.354,0.071-0.67,0.177-0.953
			c0.106-0.281,0.282-0.528,0.494-0.775c0.212-0.211,0.458-0.389,0.741-0.494c0.281-0.105,0.6-0.176,0.951-0.176
			c0.354,0,0.671,0.07,0.953,0.176c0.317,0.105,0.564,0.283,0.775,0.529L146.648,62.363z"/>
		<path fill="#3F3F3F" d="M151.588,61.023h1.41v0.635h0.035c0.035-0.105,0.105-0.177,0.212-0.283
			c0.071-0.105,0.177-0.176,0.317-0.246c0.105-0.07,0.247-0.141,0.389-0.177c0.141-0.035,0.316-0.07,0.493-0.07
			c0.317,0,0.636,0.07,0.882,0.212c0.247,0.141,0.459,0.353,0.564,0.635c0.176-0.317,0.389-0.529,0.6-0.635
			c0.247-0.142,0.529-0.212,0.882-0.212c0.317,0,0.6,0.07,0.812,0.177c0.211,0.105,0.388,0.246,0.529,0.423
			c0.141,0.177,0.211,0.388,0.281,0.635c0.071,0.247,0.071,0.529,0.071,0.812v2.787h-1.446v-2.752c0-0.211-0.035-0.424-0.141-0.564
			c-0.106-0.176-0.248-0.246-0.494-0.246c-0.177,0-0.318,0.035-0.424,0.07c-0.105,0.07-0.211,0.141-0.281,0.211
			c-0.071,0.105-0.106,0.212-0.142,0.354c-0.035,0.141-0.035,0.281-0.035,0.423v2.505h-1.552V63.21c0-0.071,0-0.177,0-0.317
			c0-0.105-0.035-0.247-0.071-0.354c-0.035-0.105-0.105-0.211-0.177-0.281c-0.07-0.07-0.211-0.105-0.387-0.105
			c-0.178,0-0.354,0.035-0.459,0.105s-0.212,0.176-0.282,0.281c-0.071,0.106-0.106,0.248-0.106,0.389
			c-0.035,0.141-0.035,0.282-0.035,0.459v2.363h-1.445V61.023z"/>
		<path fill="#3F3F3F" d="M160.441,59.541c0-0.246,0.07-0.423,0.246-0.6c0.177-0.176,0.354-0.246,0.6-0.246
			c0.247,0,0.424,0.07,0.6,0.246c0.177,0.177,0.247,0.354,0.247,0.6c0,0.248-0.07,0.424-0.247,0.6
			c-0.176,0.177-0.353,0.248-0.6,0.248c-0.246,0-0.423-0.071-0.6-0.248C160.512,59.965,160.441,59.789,160.441,59.541z
			 M160.547,61.023h1.446v4.727h-1.446V61.023z"/>
		<path fill="#3F3F3F" d="M163.545,61.023h1.411v0.635h0.035c0.035-0.105,0.106-0.177,0.212-0.283
			c0.07-0.105,0.176-0.176,0.317-0.246c0.105-0.07,0.247-0.141,0.388-0.177c0.141-0.035,0.317-0.07,0.494-0.07
			c0.353,0,0.67,0.07,0.882,0.177c0.212,0.105,0.388,0.281,0.528,0.458c0.142,0.212,0.213,0.423,0.248,0.706
			c0.035,0.281,0.07,0.564,0.07,0.881v2.611h-1.447v-2.328c0-0.142,0-0.283,0-0.424s-0.035-0.282-0.07-0.388
			c-0.035-0.106-0.105-0.212-0.211-0.317c-0.105-0.07-0.247-0.105-0.424-0.105c-0.176,0-0.353,0.035-0.458,0.105
			c-0.106,0.07-0.212,0.176-0.282,0.281c-0.07,0.106-0.105,0.248-0.105,0.389c-0.035,0.141-0.035,0.282-0.035,0.459v2.363h-1.447
			v-4.727H163.545z"/>
		<path fill="#3F3F3F" d="M174.586,65.75h-1.341v-0.635h-0.035c-0.071,0.07-0.142,0.176-0.212,0.246
			c-0.105,0.07-0.211,0.177-0.317,0.247c-0.142,0.071-0.282,0.142-0.423,0.177c-0.142,0.035-0.318,0.07-0.459,0.07
			c-0.353,0-0.67-0.07-0.952-0.176c-0.282-0.106-0.529-0.283-0.741-0.494c-0.211-0.212-0.353-0.459-0.458-0.776
			c-0.106-0.282-0.177-0.635-0.177-0.987c0-0.318,0.035-0.635,0.141-0.953c0.106-0.316,0.248-0.564,0.424-0.811
			c0.176-0.247,0.424-0.424,0.67-0.564c0.283-0.142,0.564-0.212,0.918-0.212c0.316,0,0.6,0.035,0.846,0.142
			c0.247,0.105,0.494,0.246,0.635,0.493h0.035v-3.14h1.447V65.75z M173.245,63.387c0-0.354-0.106-0.635-0.317-0.883
			c-0.212-0.211-0.494-0.316-0.847-0.316s-0.67,0.105-0.847,0.316c-0.211,0.212-0.317,0.494-0.317,0.883
			c0,0.352,0.106,0.635,0.317,0.881c0.212,0.212,0.494,0.318,0.847,0.318s0.671-0.106,0.847-0.318
			C173.139,64.057,173.245,63.738,173.245,63.387z"/>
		<path fill="#3F3F3F" d="M178.924,62.434c-0.211-0.281-0.494-0.388-0.846-0.388c-0.106,0-0.248,0.035-0.354,0.07
			c-0.105,0.071-0.176,0.177-0.176,0.317c0,0.105,0.07,0.212,0.176,0.247c0.105,0.071,0.282,0.106,0.459,0.142
			c0.176,0.035,0.388,0.07,0.6,0.141c0.211,0.035,0.424,0.141,0.6,0.212c0.176,0.105,0.353,0.247,0.459,0.423
			c0.105,0.177,0.176,0.424,0.176,0.705c0,0.318-0.07,0.564-0.211,0.741c-0.142,0.212-0.318,0.353-0.494,0.494
			c-0.212,0.105-0.459,0.212-0.705,0.247c-0.248,0.035-0.529,0.07-0.777,0.07c-0.316,0-0.67-0.035-0.986-0.141
			c-0.354-0.106-0.636-0.248-0.848-0.494l0.883-0.988c0.141,0.177,0.281,0.283,0.458,0.389c0.177,0.07,0.353,0.141,0.564,0.141
			c0.177,0,0.317-0.035,0.458-0.07c0.142-0.035,0.212-0.141,0.212-0.282c0-0.106-0.07-0.212-0.177-0.282
			c-0.105-0.07-0.281-0.105-0.458-0.141s-0.388-0.07-0.6-0.142c-0.212-0.035-0.423-0.106-0.6-0.212s-0.353-0.246-0.458-0.423
			c-0.106-0.177-0.177-0.423-0.177-0.706c0-0.281,0.07-0.529,0.177-0.705c0.105-0.211,0.246-0.353,0.458-0.494
			c0.177-0.141,0.388-0.211,0.635-0.281c0.247-0.071,0.494-0.106,0.741-0.106c0.316,0,0.635,0.035,0.952,0.142
			c0.317,0.105,0.6,0.246,0.812,0.493L178.924,62.434z"/>
	</g>
	<g display="inline">
		<polygon fill="#3F3F3F" points="134.55,42.646 128.66,37.637 129.647,41.834 		"/>
		<polygon fill="#3F3F3F" points="135.291,42.187 133.175,33.016 128.625,36.508 		"/>
		<polygon fill="#3F3F3F" points="141.111,38.519 143.192,45.08 145.273,33.016 		"/>
		<polygon fill="#3F3F3F" points="134.127,33.404 136.173,42.469 140.053,38.483 		"/>
		<polygon fill="#3F3F3F" points="151.375,41.764 146.155,32.628 143.862,46.032 		"/>
		<polygon fill="#3F3F3F" points="134.479,32.628 140.582,37.848 145.098,31.887 		"/>
		<polygon fill="#3F3F3F" points="143.827,46.984 145.521,51.357 150.705,43.069 		"/>
		<polygon fill="#3F3F3F" points="142.734,46.349 140.617,39.753 138.36,46.067 		"/>
		<polygon fill="#3F3F3F" points="136.455,43.351 137.725,45.467 139.629,40.106 		"/>
	</g>
</g>
<g id="Ebene_6" display="none">
	<rect x="90" display="inline" fill="#040506" width="100" height="100"/>
</g>
<g id="Ebene_5">
	<g>
		<g>
			<g>
				<g>
					<g>
						<g>
							<g>
								<g>
									<path fill="#3F3F3F" d="M118.325,54.215c0-0.6-0.353-1.129-0.882-1.375v-2.399h4.55c3.245,0,5.361-1.87,5.361-4.762
										c0-2.963-2.116-4.868-5.361-4.868h-3.88c-0.247-0.529-0.776-0.882-1.375-0.882c-0.847,0-1.552,0.705-1.552,1.552
										c0,0.882,0.706,1.552,1.552,1.552c0.6,0,1.129-0.353,1.375-0.882h3.88c2.469,0,3.95,1.305,3.95,3.492
										c0,2.117-1.481,3.386-3.95,3.386h-5.926v3.81c-0.494,0.246-0.882,0.775-0.882,1.375c0,0.847,0.706,1.553,1.552,1.553
										C117.619,55.768,118.325,55.062,118.325,54.215z"/>
									<g>
										<g>
											<path fill="#7BBA49" d="M121.958,57.143V47.055c0.494-0.247,0.882-0.776,0.882-1.375c0-0.882-0.706-1.552-1.552-1.552
												c-0.847,0-1.552,0.706-1.552,1.552c0,0.6,0.353,1.128,0.882,1.375v10.088c-0.529,0.247-0.882,0.776-0.882,1.376
												c0,0.847,0.706,1.552,1.552,1.552c0.846,0,1.552-0.705,1.552-1.552C122.839,57.919,122.487,57.39,121.958,57.143z
												 M121.252,46.314c-0.388,0-0.705-0.317-0.705-0.706c0-0.388,0.317-0.67,0.705-0.67c0.388,0,0.706,0.317,0.67,0.67
												C121.958,45.997,121.64,46.314,121.252,46.314z"/>
										</g>
									</g>
								</g>
							</g>
						</g>
					</g>
				</g>
			</g>
		</g>
		<g>
			<path fill="#3F3F3F" d="M134.515,43.069h1.058c0.176,0,0.353,0.035,0.458,0.07c0.141,0.036,0.211,0.106,0.282,0.212
				c0.07,0.106,0.106,0.176,0.141,0.282c0.035,0.105,0.035,0.211,0.035,0.282c0,0.105,0,0.176-0.035,0.282
				c-0.035,0.105-0.071,0.176-0.141,0.282c-0.071,0.071-0.176,0.141-0.282,0.212c-0.106,0.07-0.282,0.07-0.458,0.07h-0.635v1.305
				h-0.423V43.069z M134.903,44.374h0.529c0.07,0,0.141,0,0.247-0.035c0.07,0,0.141-0.036,0.211-0.071
				c0.071-0.035,0.106-0.07,0.141-0.141c0.035-0.07,0.071-0.141,0.071-0.247c0-0.105-0.036-0.176-0.071-0.247
				c-0.035-0.071-0.07-0.106-0.141-0.141c-0.07-0.035-0.141-0.071-0.211-0.071c-0.071,0-0.141-0.035-0.247-0.035h-0.529V44.374z"/>
			<path fill="#3F3F3F" d="M137.831,43.069h1.058c0.177,0,0.353,0.035,0.459,0.07c0.141,0.036,0.211,0.106,0.282,0.212
				c0.071,0.07,0.106,0.176,0.141,0.282c0.036,0.105,0.036,0.211,0.036,0.282c0,0.105,0,0.176-0.036,0.282
				c-0.035,0.07-0.07,0.176-0.141,0.247c-0.07,0.071-0.141,0.141-0.247,0.176c-0.106,0.036-0.212,0.071-0.317,0.106l0.846,1.34
				h-0.494l-0.776-1.305h-0.458v1.305h-0.423v-2.998H137.831z M138.219,44.374h0.529c0.071,0,0.141,0,0.247-0.035
				c0.106-0.036,0.141-0.036,0.212-0.071c0.07-0.035,0.105-0.07,0.141-0.141c0.035-0.07,0.07-0.141,0.07-0.247
				c0-0.105-0.035-0.176-0.07-0.247c-0.036-0.071-0.071-0.106-0.141-0.141c-0.071-0.035-0.141-0.071-0.212-0.071
				c-0.07,0-0.141-0.035-0.247-0.035h-0.529V44.374z"/>
			<path fill="#3F3F3F" d="M142.134,43.069h0.353l1.271,2.963h-0.459l-0.317-0.741h-1.446l-0.282,0.741h-0.459L142.134,43.069z
				 M142.875,44.938l-0.564-1.376l0,0l-0.564,1.376H142.875z"/>
			<path fill="#3F3F3F" d="M147.531,44.374v1.446c-0.07,0.035-0.142,0.07-0.247,0.105c-0.106,0.036-0.177,0.071-0.282,0.071
				c-0.105,0.035-0.212,0.035-0.318,0.035c-0.105,0-0.211,0-0.281,0c-0.247,0-0.494-0.035-0.67-0.141
				c-0.212-0.07-0.354-0.211-0.494-0.353s-0.247-0.317-0.318-0.494c-0.07-0.176-0.105-0.388-0.105-0.6
				c0-0.211,0.035-0.423,0.105-0.6c0.071-0.176,0.178-0.353,0.318-0.494s0.317-0.247,0.494-0.317
				c0.176-0.071,0.388-0.106,0.635-0.106c0.281,0,0.494,0.035,0.67,0.106c0.176,0.07,0.317,0.176,0.459,0.282l-0.283,0.317
				c-0.141-0.106-0.246-0.212-0.388-0.247s-0.282-0.07-0.423-0.07c-0.177,0-0.318,0.035-0.459,0.105
				c-0.141,0.071-0.246,0.141-0.353,0.247s-0.177,0.247-0.247,0.388s-0.07,0.282-0.07,0.458s0.035,0.317,0.105,0.458
				s0.142,0.282,0.247,0.388c0.106,0.106,0.212,0.177,0.353,0.247c0.142,0.071,0.283,0.106,0.459,0.106c0.141,0,0.282,0,0.424-0.035
				c0.141-0.036,0.246-0.071,0.316-0.106v-0.812h-0.67v-0.388H147.531z"/>
			<path fill="#3F3F3F" d="M149.048,43.069h0.6l0.952,2.257l0,0l0.953-2.257h0.6v2.963h-0.424v-2.434l0,0l-1.023,2.434h-0.281
				l-1.023-2.434l0,0v2.434h-0.424v-2.963H149.048z"/>
			<path fill="#3F3F3F" d="M154.656,43.069h0.353l1.271,2.963h-0.459l-0.318-0.741h-1.445l-0.282,0.741h-0.458L154.656,43.069z
				 M155.396,44.938l-0.564-1.376l0,0l-0.564,1.376H155.396z"/>
			<path fill="#3F3F3F" d="M157.725,43.421h-0.952v-0.388h2.328v0.388h-0.952v2.575h-0.424V43.421z"/>
			<path fill="#3F3F3F" d="M160.335,43.069h0.423v2.963h-0.423V43.069z"/>
			<path fill="#3F3F3F" d="M164.392,43.704c-0.071-0.106-0.177-0.176-0.317-0.247c-0.141-0.071-0.282-0.071-0.389-0.071
				c-0.176,0-0.316,0.035-0.458,0.106c-0.142,0.07-0.247,0.141-0.353,0.247c-0.105,0.106-0.177,0.247-0.212,0.388
				s-0.07,0.317-0.07,0.458s0.035,0.317,0.07,0.458s0.142,0.247,0.212,0.353c0.07,0.105,0.211,0.176,0.353,0.247
				c0.142,0.071,0.282,0.106,0.458,0.106c0.177,0,0.318-0.035,0.459-0.106c0.141-0.07,0.247-0.176,0.317-0.282l0.353,0.247
				c-0.035,0.035-0.07,0.071-0.105,0.141c-0.07,0.071-0.141,0.106-0.211,0.176c-0.106,0.071-0.213,0.106-0.354,0.141
				c-0.141,0.036-0.282,0.071-0.459,0.071c-0.246,0-0.458-0.035-0.635-0.141c-0.176-0.106-0.353-0.212-0.494-0.353
				c-0.141-0.141-0.246-0.317-0.316-0.494s-0.106-0.353-0.106-0.564c0-0.211,0.036-0.458,0.106-0.635
				c0.07-0.212,0.176-0.353,0.316-0.494c0.142-0.142,0.318-0.247,0.494-0.318c0.177-0.07,0.389-0.105,0.635-0.105
				c0.212,0,0.389,0.035,0.6,0.105c0.177,0.071,0.354,0.176,0.459,0.353L164.392,43.704z"/>
			<path fill="#7BBA49" d="M134.55,48.078h0.67v2.963h-0.67V48.078z"/>
			<path fill="#7BBA49" d="M136.42,48.078h0.917l1.27,2.046l0,0v-2.046h0.67v2.963h-0.882l-1.305-2.117l0,0v2.117h-0.67V48.078z"/>
			<path fill="#7BBA49" d="M140.512,48.078h0.987c0.247,0,0.458,0.035,0.671,0.07c0.211,0.036,0.423,0.141,0.564,0.247
				c0.176,0.106,0.281,0.282,0.387,0.458c0.106,0.176,0.142,0.423,0.142,0.706c0,0.247-0.035,0.458-0.142,0.635
				c-0.105,0.176-0.211,0.353-0.387,0.458c-0.178,0.105-0.354,0.212-0.529,0.282c-0.212,0.071-0.424,0.106-0.635,0.106h-1.094
				v-2.963H140.512z M141.182,50.441h0.353c0.142,0,0.282,0,0.423-0.035c0.142-0.036,0.248-0.071,0.354-0.141
				c0.105-0.071,0.176-0.176,0.211-0.282c0.071-0.106,0.071-0.247,0.071-0.423c0-0.141-0.036-0.282-0.071-0.388
				c-0.07-0.105-0.141-0.211-0.211-0.282c-0.07-0.07-0.212-0.105-0.317-0.141c-0.142-0.036-0.247-0.036-0.388-0.036h-0.389v1.729
				H141.182z"/>
			<path fill="#7BBA49" d="M146.896,49.912c0,0.177-0.035,0.353-0.071,0.494c-0.07,0.141-0.142,0.282-0.247,0.387
				c-0.105,0.106-0.246,0.213-0.388,0.248c-0.177,0.07-0.353,0.105-0.564,0.105s-0.388-0.035-0.564-0.105s-0.282-0.142-0.388-0.248
				c-0.105-0.105-0.176-0.246-0.247-0.387c-0.07-0.141-0.07-0.317-0.07-0.494v-1.834h0.67v1.799c0,0.106,0,0.176,0.035,0.247
				c0.036,0.07,0.071,0.141,0.142,0.211c0.07,0.071,0.105,0.106,0.176,0.141c0.07,0.036,0.142,0.036,0.247,0.036
				c0.071,0,0.177,0,0.247-0.036c0.07-0.035,0.141-0.07,0.176-0.141c0.071-0.07,0.106-0.141,0.142-0.211
				c0.035-0.071,0.035-0.176,0.035-0.247v-1.799h0.671V49.912z"/>
			<path fill="#7BBA49" d="M149.611,48.818c-0.07-0.07-0.141-0.106-0.211-0.141c-0.105-0.035-0.176-0.035-0.247-0.035
				c-0.035,0-0.105,0-0.142,0c-0.035,0-0.105,0.035-0.141,0.035c-0.035,0.035-0.07,0.071-0.105,0.106s-0.035,0.07-0.035,0.141
				c0,0.105,0.035,0.141,0.105,0.211c0.07,0.035,0.141,0.071,0.247,0.106c0.105,0.035,0.212,0.07,0.317,0.106
				c0.105,0.035,0.247,0.07,0.317,0.141c0.106,0.071,0.177,0.142,0.247,0.247c0.07,0.106,0.105,0.247,0.105,0.423
				s-0.035,0.317-0.105,0.423c-0.07,0.105-0.141,0.211-0.247,0.317c-0.106,0.071-0.247,0.142-0.353,0.177
				c-0.141,0.035-0.282,0.07-0.459,0.07c-0.211,0-0.388-0.035-0.529-0.07c-0.176-0.07-0.316-0.142-0.458-0.283l0.458-0.528
				c0.07,0.105,0.142,0.176,0.248,0.211c0.105,0.036,0.211,0.071,0.316,0.071c0.07,0,0.106,0,0.177-0.035
				c0.07,0,0.106-0.036,0.142-0.071s0.07-0.071,0.105-0.106s0.035-0.07,0.035-0.141c0-0.105-0.035-0.176-0.105-0.211
				s-0.142-0.106-0.247-0.141c-0.106-0.035-0.212-0.071-0.353-0.106c-0.106-0.035-0.248-0.07-0.354-0.141
				c-0.105-0.07-0.176-0.141-0.246-0.247c-0.07-0.106-0.106-0.247-0.106-0.388c0-0.176,0.036-0.282,0.106-0.423
				c0.07-0.106,0.141-0.211,0.246-0.317c0.105-0.071,0.212-0.141,0.354-0.176c0.141-0.036,0.281-0.071,0.423-0.071
				c0.177,0,0.317,0.035,0.493,0.071c0.178,0.035,0.318,0.141,0.424,0.247L149.611,48.818z"/>
			<path fill="#7BBA49" d="M151.764,48.677h-0.847v-0.564h2.363v0.564h-0.847v2.399h-0.67V48.677z"/>
			<path fill="#7BBA49" d="M154.232,48.078h1.164c0.142,0,0.283,0,0.424,0.035s0.246,0.071,0.353,0.141
				c0.106,0.071,0.177,0.176,0.247,0.282s0.105,0.247,0.105,0.423c0,0.211-0.07,0.388-0.176,0.529
				c-0.106,0.142-0.283,0.247-0.494,0.282l0.775,1.271h-0.811l-0.635-1.2h-0.283v1.2h-0.67V48.078z M154.902,49.312h0.389
				c0.07,0,0.105,0,0.176,0c0.071,0,0.142,0,0.177-0.035c0.071-0.035,0.106-0.07,0.142-0.106c0.035-0.035,0.07-0.105,0.07-0.176
				c0-0.07,0-0.141-0.035-0.176s-0.07-0.07-0.105-0.106c-0.035-0.035-0.106-0.035-0.177-0.035c-0.071,0-0.106,0-0.177,0h-0.459
				V49.312z"/>
			<path fill="#7BBA49" d="M157.584,48.078h0.67v2.963h-0.67V48.078z"/>
			<path fill="#7BBA49" d="M159.488,48.078h2.046v0.6h-1.376v0.564h1.306v0.6h-1.306v0.6h1.447v0.6h-2.117V48.078z"/>
			<path fill="#7BBA49" d="M164.25,48.818c-0.07-0.07-0.141-0.106-0.211-0.141c-0.105-0.035-0.177-0.035-0.247-0.035
				c-0.035,0-0.106,0-0.142,0s-0.105,0.035-0.141,0.035c-0.035,0.035-0.07,0.071-0.105,0.106s-0.035,0.07-0.035,0.141
				c0,0.105,0.035,0.141,0.105,0.211c0.07,0.071,0.141,0.071,0.246,0.106c0.106,0.035,0.213,0.07,0.318,0.106
				c0.105,0.035,0.246,0.07,0.317,0.141c0.105,0.071,0.177,0.142,0.247,0.247c0.07,0.106,0.105,0.247,0.105,0.423
				s-0.035,0.317-0.105,0.423c-0.07,0.105-0.142,0.211-0.247,0.317c-0.106,0.071-0.247,0.142-0.353,0.177
				c-0.142,0.035-0.283,0.07-0.459,0.07c-0.211,0-0.389-0.035-0.529-0.07c-0.176-0.07-0.317-0.142-0.459-0.283l0.459-0.528
				c0.07,0.105,0.141,0.176,0.247,0.211c0.106,0.036,0.212,0.071,0.317,0.071c0.07,0,0.105,0,0.177-0.035
				c0.07,0,0.105-0.036,0.141-0.071c0.036-0.035,0.071-0.071,0.106-0.106s0.035-0.07,0.035-0.141c0-0.105-0.035-0.176-0.105-0.211
				c-0.071-0.035-0.142-0.106-0.248-0.141c-0.105-0.035-0.211-0.071-0.352-0.106c-0.106-0.035-0.248-0.07-0.354-0.141
				c-0.105-0.07-0.176-0.141-0.246-0.247c-0.071-0.106-0.106-0.247-0.106-0.388c0-0.176,0.035-0.282,0.106-0.423
				c0.07-0.141,0.141-0.211,0.246-0.317c0.105-0.071,0.212-0.141,0.354-0.176c0.141-0.036,0.281-0.071,0.423-0.071
				c0.177,0,0.317,0.035,0.493,0.071c0.142,0.035,0.318,0.141,0.424,0.247L164.25,48.818z"/>
			<path fill="#3F3F3F" d="M152.963,54.427v1.481c-0.07,0.035-0.141,0.07-0.247,0.105c-0.105,0.035-0.177,0.07-0.282,0.07
				c-0.105,0.036-0.211,0.036-0.317,0.036c-0.105,0-0.212,0-0.282,0c-0.246,0-0.494-0.036-0.67-0.142
				c-0.212-0.07-0.353-0.211-0.494-0.353c-0.141-0.142-0.246-0.317-0.317-0.493c-0.07-0.177-0.105-0.389-0.105-0.6
				c0-0.213,0.035-0.424,0.105-0.6c0.071-0.177,0.177-0.354,0.317-0.494c0.142-0.142,0.318-0.247,0.494-0.318
				c0.176-0.07,0.389-0.105,0.635-0.105c0.282,0,0.494,0.035,0.67,0.105c0.177,0.071,0.318,0.177,0.459,0.283l-0.282,0.316
				c-0.142-0.105-0.247-0.211-0.388-0.246c-0.142-0.035-0.283-0.07-0.424-0.07c-0.176,0-0.317,0.035-0.459,0.105
				c-0.141,0.07-0.246,0.141-0.352,0.247c-0.106,0.105-0.177,0.247-0.212,0.388c-0.071,0.141-0.071,0.282-0.071,0.459
				c0,0.176,0.035,0.317,0.106,0.458c0.07,0.142,0.142,0.282,0.247,0.388c0.105,0.106,0.211,0.177,0.353,0.248
				c0.142,0.07,0.282,0.105,0.458,0.105c0.142,0,0.283,0,0.424-0.035s0.247-0.07,0.317-0.106V54.85h-0.671v-0.388h0.988V54.427z"/>
			<path fill="#3F3F3F" d="M154.303,53.121h0.6l0.953,2.258l0,0l0.952-2.258h0.6v2.963h-0.423V53.65l0,0l-1.023,2.434h-0.281
				l-1.023-2.434l0,0v2.434h-0.424v-2.963H154.303z"/>
			<path fill="#3F3F3F" d="M158.818,53.121h1.059c0.141,0,0.246,0,0.353,0.036c0.105,0.035,0.212,0.07,0.282,0.141
				c0.07,0.071,0.141,0.142,0.176,0.247s0.07,0.212,0.07,0.317c0,0.177-0.035,0.317-0.141,0.423
				c-0.105,0.106-0.211,0.177-0.388,0.248l0,0c0.105,0,0.177,0.035,0.247,0.07s0.141,0.105,0.211,0.176s0.105,0.141,0.142,0.212
				c0.035,0.07,0.035,0.177,0.035,0.282c0,0.141-0.035,0.247-0.071,0.353c-0.07,0.106-0.141,0.177-0.211,0.247
				s-0.211,0.105-0.353,0.176c-0.142,0.035-0.282,0.071-0.423,0.071h-1.023v-2.999H158.818z M159.242,54.356h0.564
				c0.07,0,0.141,0,0.211-0.036c0.07,0,0.141-0.035,0.176-0.07c0.036-0.035,0.106-0.07,0.106-0.141
				c0.035-0.07,0.035-0.141,0.035-0.212c0-0.105-0.035-0.212-0.105-0.317c-0.071-0.07-0.212-0.141-0.353-0.141h-0.635V54.356z
				 M159.242,55.732h0.6c0.07,0,0.141,0,0.211-0.035c0.07,0,0.141-0.036,0.212-0.071c0.07-0.035,0.106-0.105,0.177-0.142
				c0.035-0.07,0.07-0.141,0.07-0.246c0-0.177-0.07-0.318-0.177-0.389c-0.105-0.07-0.282-0.141-0.458-0.141h-0.6v1.023H159.242z"/>
			<path fill="#3F3F3F" d="M162.134,53.121h0.423v1.235h1.553v-1.235h0.424v2.963h-0.424v-1.375h-1.553v1.375h-0.423V53.121z"/>
		</g>
	</g>
</g>
<g id="Ebene_7" display="none">
	<g display="inline">
		<g>
			<g>
				<g>
					<g>
						<g>
							<g>
								<path fill="#3F3F3F" d="M137.055,54.215c0-0.6-0.353-1.129-0.882-1.375v-2.399h4.55c3.246,0,5.361-1.87,5.361-4.762
									c0-2.963-2.115-4.868-5.361-4.868h-3.879c-0.247-0.529-0.776-0.882-1.376-0.882c-0.847,0-1.552,0.705-1.552,1.552
									c0,0.882,0.705,1.552,1.552,1.552c0.6,0,1.129-0.353,1.376-0.882h3.879c2.47,0,3.951,1.305,3.951,3.492
									c0,2.117-1.481,3.386-3.951,3.386h-5.925v3.81c-0.494,0.246-0.882,0.775-0.882,1.375c0,0.847,0.705,1.553,1.552,1.553
									C136.349,55.768,137.055,55.062,137.055,54.215z"/>
								<g>
									<g>
										<path fill="#7BBA49" d="M140.688,57.143V47.055c0.494-0.247,0.883-0.776,0.883-1.375c0-0.882-0.706-1.552-1.553-1.552
											s-1.552,0.706-1.552,1.552c0,0.6,0.353,1.128,0.882,1.375v10.088c-0.529,0.247-0.882,0.776-0.882,1.376
											c0,0.847,0.705,1.552,1.552,1.552s1.553-0.705,1.553-1.552C141.57,57.919,141.182,57.39,140.688,57.143z M139.982,46.314
											c-0.388,0-0.706-0.317-0.706-0.706c0-0.388,0.317-0.67,0.706-0.67s0.705,0.317,0.67,0.67
											C140.688,45.997,140.371,46.314,139.982,46.314z"/>
									</g>
								</g>
							</g>
						</g>
					</g>
				</g>
			</g>
		</g>
	</g>
</g>
</svg>
