<?xml version="1.0" encoding="UTF-8" standalone="no"?>
<!-- Created with Inkscape (http://www.inkscape.org/) -->

<svg
   width="16"
   height="16"
   viewBox="0 0 16 16"
   version="1.1"
   id="svg5"
   inkscape:version="1.1.1 (3bf5ae0d25, 2021-09-20)"
   sodipodi:docname="grafana2.svg"
   xmlns:inkscape="http://www.inkscape.org/namespaces/inkscape"
   xmlns:sodipodi="http://sodipodi.sourceforge.net/DTD/sodipodi-0.dtd"
   xmlns:xlink="http://www.w3.org/1999/xlink"
   xmlns="http://www.w3.org/2000/svg"
   xmlns:svg="http://www.w3.org/2000/svg">
  <sodipodi:namedview
     id="namedview7"
     pagecolor="#ffffff"
     bordercolor="#666666"
     borderopacity="1.0"
     inkscape:pageshadow="2"
     inkscape:pageopacity="0.0"
     inkscape:pagecheckerboard="0"
     inkscape:document-units="px"
     showgrid="false"
     inkscape:zoom="32"
     inkscape:cx="3.109375"
     inkscape:cy="7.703125"
     inkscape:window-width="1920"
     inkscape:window-height="1001"
     inkscape:window-x="-9"
     inkscape:window-y="-9"
     inkscape:window-maximized="1"
     inkscape:current-layer="layer2" />
  <defs
     id="defs2">
    <linearGradient
       inkscape:collect="always"
       id="linearGradient9988">
      <stop
         style="stop-color:#f05a28;stop-opacity:1;"
         offset="0"
         id="stop9984" />
      <stop
         style="stop-color:#f05a28;stop-opacity:0"
         offset="1"
         id="stop9986" />
    </linearGradient>
    <linearGradient
       id="paint0_linear"
       x1="42.0691"
       y1="110.29"
       x2="42.0691"
       y2="27.956"
       gradientUnits="userSpaceOnUse">
      <stop
	 offset="0"
         stop-color="#FFF100"
         id="stop839" />
      <stop
         offset="1"
         stop-color="#F05A28"
         id="stop841" />
    </linearGradient>
    <linearGradient
       inkscape:collect="always"
       xlink:href="#linearGradient9988"
       id="linearGradient9990"
       x1="8.40625"
       y1="2.40625"
       x2="8.28125"
       y2="5.09375"
       gradientUnits="userSpaceOnUse" />
  </defs>
  <g
     inkscape:label="Capa 1"
     inkscape:groupmode="layer"
     id="layer1"
     style="display:inline">
    <g
       style="fill:none"
       id="g854"
       transform="matrix(0.1780436,0,0,0.17328955,0.24630723,0.16256114)">
      <path
         d="M 83.9198,39.6659 C 83.8215,38.1142 83.5267,36.3685 83.0354,34.5259 82.544,32.5862 81.7579,30.5496 80.677,28.319 79.596,26.1853 78.122,23.8578 76.255,21.7241 75.5671,20.8513 74.781,19.9784 73.8966,19.2026 75.174,14.1595 72.3243,9.79526 72.3243,9.79526 67.411,9.50431 64.2664,11.25 63.0872,12.1228 62.8907,12.0259 62.6942,11.9289 62.4976,11.9289 61.7115,11.6379 60.8271,11.25 59.9427,11.056 59.0583,10.8621 58.1739,10.5711 57.1912,10.2802 56.3068,10.0862 55.3242,9.89224 54.3415,9.69828 54.145,9.69828 54.0467,9.60129 53.8502,9.60129 51.6883,2.8125 45.5958,0 45.5958,0 c -6.8787,4.26724 -8.1562,10.2802 -8.1562,10.2802 0,0 0,0.097 -0.0983,0.3879 -0.393,0.097 -0.7861,0.194 -1.1792,0.291 -0.4913,0.1939 -1.0809,0.3879 -1.5722,0.4849 -0.4914,0.1939 -1.081,0.3879 -1.5723,0.5819 -0.9827,0.3879 -2.0636,0.9698 -3.0463,1.4547 -0.9826,0.5819 -1.9653,1.1638 -2.8497,1.7457 -0.0983,-0.097 -0.1965,-0.097 -0.1965,-0.097 -9.5319,-3.5884 -17.98283,0.6789 -17.98283,0.6789 -0.68787,10.0862 3.83243,16.3901 4.71683,17.5539 -0.1966,0.5819 -0.3931,1.2607 -0.5896,1.8426 -0.6879,2.2306 -1.1792,4.5582 -1.5723,6.9828 0,0.2909 -0.0983,0.6789 -0.0983,1.0668 C 2.6532,47.5216 0,56.25 0,56.25 c 7.37,8.3405 15.8209,8.8254 15.8209,8.8254 1.081,1.9397 2.3584,3.6854 3.7342,5.4311 0.5896,0.6788 1.1792,1.3577 1.867,2.0366 -2.6532,7.5647 0.3931,13.7716 0.3931,13.7716 8.1561,0.2909 13.5608,-3.4914 14.6417,-4.3643 0.7862,0.291 1.6706,0.4849 2.4567,0.6789 2.4567,0.6789 5.1099,0.9698 7.6648,1.1638 0.5896,0 1.2775,0 1.9654,0 h 0.2948 0.1965 0.3931 0.393 C 53.6536,89.2241 60.434,90 60.434,90 c 4.8151,-5.0431 5.1099,-9.9892 5.1099,-11.056 0,0 0,0 0,-0.097 0,-0.097 0,-0.194 0,-0.194 0,-0.097 0,-0.194 0,-0.194 0.9827,-0.6788 1.9653,-1.4547 2.8497,-2.2306 1.9654,-1.7457 3.6359,-3.6853 5.0116,-5.8189 0.0983,-0.194 0.2948,-0.388 0.3931,-0.5819 5.4047,0.2909 9.2371,-3.2974 9.2371,-3.2974 -0.8844,-5.625 -4.1272,-8.3405 -4.8151,-8.8255 0,0 0,0 -0.0983,0 -0.0982,0 -0.0982,0 -0.0982,0 0,0 -0.0983,0 -0.0983,-0.0969 0,-0.291 0.0983,-0.6789 0.0983,-0.9699 0,-0.5819 0.0982,-1.1638 0.0982,-1.8426 v -0.485 -0.1939 -0.097 c 0,-0.194 0,-0.097 0,-0.194 v -0.3879 -0.4849 c 0,-0.194 0,-0.291 0,-0.4849 0,-0.194 0,-0.291 -0.0982,-0.4849 l -0.0983,-0.485 -0.0983,-0.4849 C 77.729,50.431 77.6307,49.7522 77.4342,49.1703 76.8446,46.7457 75.9602,44.5151 74.6827,42.3815 73.4052,40.3448 71.833,38.5022 70.0642,36.9504 68.2954,35.3987 66.33,34.1379 64.2664,33.2651 62.2028,32.3922 60.041,31.7134 57.8791,31.5194 c -1.0809,-0.097 -2.1619,-0.194 -3.2428,-0.194 H 54.2432 54.145 c 0,0 -0.1966,0 -0.0983,0 h -0.1965 -0.3931 c -0.0983,0 -0.2948,0 -0.3931,0 -0.5896,0 -1.0809,0.097 -1.6705,0.194 -2.1619,0.3879 -4.2255,1.1638 -5.9943,2.2306 -1.7688,1.0668 -3.3411,2.4246 -4.6185,3.8793 -1.2775,1.4548 -2.2602,3.2004 -2.948,4.8492 -0.6879,1.7456 -1.081,3.4913 -1.1792,5.237 0,0.3879 0,0.8729 0,1.2608 0,0.097 0,0.194 0,0.2909 v 0.388 c 0,0.1939 0,0.3879 0,0.5819 0.0982,0.8728 0.1965,1.7457 0.4913,2.5215 0.4913,1.6487 1.1792,3.1035 2.1619,4.2673 0.8844,1.2607 2.0636,2.2306 3.2428,3.1034 1.1792,0.7759 2.4566,1.3578 3.7341,1.7457 1.2775,0.3879 2.4567,0.4849 3.6359,0.4849 0.1965,0 0.2948,0 0.3931,0 0.0982,0 0.1965,0 0.1965,0 h 0.1965 c 0.0983,0 0.1966,0 0.3931,0 h 0.0982 0.0983 c 0.0983,0 0.1966,0 0.1966,0 0.1965,0 0.2948,-0.097 0.393,-0.097 0.0983,0 0.2948,-0.097 0.3931,-0.097 0.2948,-0.0969 0.4913,-0.0969 0.7861,-0.1939 0.4914,-0.194 0.9827,-0.3879 1.474,-0.5819 0.4914,-0.194 0.8844,-0.4849 1.2775,-0.7759 0.0983,-0.097 0.1965,-0.1939 0.2948,-0.1939 0.3931,-0.291 0.4913,-0.8729 0.1965,-1.2608 -0.2948,-0.388 -0.7861,-0.3879 -1.1792,-0.194 -0.0982,0 -0.1965,0.097 -0.2948,0.194 -0.2948,0.1939 -0.6878,0.2909 -1.0809,0.3879 -0.3931,0.097 -0.7861,0.194 -1.1792,0.291 -0.1965,0 -0.3931,0.0969 -0.5896,0.0969 -0.0983,0 -0.1965,0 -0.2948,0 -0.0983,0 -0.1965,0 -0.2948,0 -0.0983,0 -0.1965,0 -0.2948,0 -0.0983,0 -0.2948,0 -0.3931,0 0,0 -0.0983,0 0,0 h -0.0982 c -0.0983,0 -0.0983,0 -0.1966,0 -0.0983,0 -0.1965,0 -0.2948,0 -0.8844,-0.0969 -1.867,-0.3879 -2.7514,-0.7758 -0.8844,-0.388 -1.7689,-0.9698 -2.555,-1.6487 -0.7861,-0.6789 -1.474,-1.5517 -1.9653,-2.4246 -0.4914,-0.9698 -0.8844,-1.9397 -1.081,-3.1034 -0.0982,-0.5819 -0.0982,-1.0669 -0.0982,-1.6488 0,-0.1939 0,-0.2909 0,-0.4849 v -0.0969 -0.097 c 0,-0.097 0,-0.194 0,-0.194 0,-0.2909 0.0982,-0.5819 0.0982,-0.8728 0.3931,-2.4246 1.6706,-4.7522 3.5376,-6.4979 0.4914,-0.3879 0.9827,-0.8728 1.474,-1.1638 0.4914,-0.3879 1.081,-0.6789 1.6706,-0.9698 0.5896,-0.291 1.1792,-0.4849 1.8671,-0.6789 0.5896,-0.194 1.2774,-0.2909 1.9653,-0.2909 0.2948,0 0.6879,0 0.9827,0 0.0982,0 0.1965,0 0.1965,0 h 0.2948 0.1965 c 0.0983,0 0,0 0,0 h 0.0983 0.2948 c 0.6879,0.0969 1.474,0.1939 2.1619,0.2909 1.3757,0.291 2.7514,0.7759 4.0289,1.5517 2.5549,1.3578 4.7168,3.5884 6.0925,6.2069 0.6879,1.3578 1.1792,2.7156 1.3758,4.1703 0.0982,0.3879 0.0982,0.7759 0.0982,1.0668 v 0.291 0.2909 c 0,0.097 0,0.194 0,0.291 0,0.0969 0,0.1939 0,0.2909 v 0.194 0.2909 c 0,0.194 0,0.4849 0,0.6789 0,0.3879 -0.0982,0.7759 -0.0982,1.1638 -0.0983,0.3879 -0.0983,0.7758 -0.1966,1.1638 -0.0982,0.3879 -0.1965,0.7758 -0.2948,1.1638 -0.1965,0.7758 -0.4913,1.5517 -0.7861,2.3276 -0.5896,1.4547 -1.3757,2.9094 -2.3584,4.2672 -1.9653,2.6185 -4.6185,4.7522 -7.5665,6.1099 -1.474,0.6789 -3.0463,1.1638 -4.7168,1.4548 -0.7862,0.0969 -1.6706,0.1939 -2.4567,0.1939 H 49.4282 49.3299 49.0351 48.642 48.4455 c 0.0983,0 0,0 0,0 h -0.0983 c -0.393,0 -0.8844,0 -1.2774,-0.097 -1.7688,-0.0969 -3.5377,-0.3879 -5.2082,-0.8728 -1.6705,-0.4849 -3.3411,-1.1638 -4.9133,-1.9397 -3.1446,-1.6487 -5.896,-3.8793 -8.0579,-6.5948 -1.0809,-1.3578 -2.0636,-2.8125 -2.8497,-4.2672 -0.7862,-1.5518 -1.3758,-3.1035 -1.8671,-4.7522 -0.4913,-1.6487 -0.6879,-3.2974 -0.8844,-4.9461 v -0.291 -0.0969 -0.194 -0.097 -0.2909 -0.097 -0.097 -0.194 -0.3879 -0.097 -0.1939 c 0,-0.194 0,-0.388 0,-0.5819 0,-0.8729 0.0983,-1.6488 0.1965,-2.5216 0.0983,-0.8728 0.2948,-1.7457 0.3931,-2.5215 0.1965,-0.8729 0.3931,-1.6488 0.5896,-2.5216 0.4913,-1.6487 1.0809,-3.2974 1.7688,-4.7522 1.3757,-3.0064 3.2428,-5.7219 5.5029,-7.8556 0.5896,-0.5819 1.1792,-1.0668 1.7688,-1.5517 0.5896,-0.4849 1.1792,-0.8728 1.8671,-1.3577 0.5896,-0.388 1.2775,-0.7759 1.9653,-1.1638 0.2948,-0.194 0.6879,-0.291 0.9827,-0.4849 0.1965,-0.097 0.3931,-0.194 0.4913,-0.194 0.1966,-0.097 0.3931,-0.194 0.4914,-0.194 0.6878,-0.2909 1.474,-0.5819 2.1618,-0.7758 0.1966,-0.097 0.3931,-0.097 0.5896,-0.194 0.1966,-0.097 0.3931,-0.097 0.5897,-0.194 0.393,-0.097 0.7861,-0.1939 1.0809,-0.2909 0.1965,0 0.393,-0.097 0.5896,-0.097 0.1965,0 0.393,-0.097 0.5896,-0.097 0.1965,0 0.393,-0.097 0.5896,-0.097 h 0.2948 0.2948 c 0.1965,0 0.3931,-0.0969 0.5896,-0.0969 0.1965,0 0.3931,0 0.6879,-0.097 0.1965,0 0.4913,-0.097 0.6878,-0.097 0.0983,0 0.2948,0 0.3931,0 h 0.2948 0.0983 0.1965 c 0.1965,0 0.3931,0 0.6878,0 h 0.2949 c 0,0 0.0982,0 0,0 h 0.0982 0.0983 c 0.1965,0 0.3931,0 0.5896,0 0.6879,0 1.474,0 2.1619,0 1.474,0.097 2.8497,0.1939 4.3237,0.4849 2.7515,0.4849 5.4047,1.3578 7.7631,2.5215 2.3584,1.1638 4.5202,2.5216 6.3873,4.0733 0.0983,0.097 0.1965,0.194 0.2948,0.291 0.0983,0.097 0.1965,0.1939 0.2948,0.2909 0.1965,0.194 0.3931,0.388 0.6879,0.5819 0.1965,0.194 0.393,0.3879 0.5896,0.5819 0.1965,0.194 0.393,0.3879 0.5896,0.5819 0.7861,0.7759 1.474,1.6487 2.1618,2.5216 1.2775,1.6487 2.3584,3.3944 3.2428,4.9461 0.0983,0.097 0.0983,0.1939 0.1966,0.2909 0.0982,0.097 0.0982,0.194 0.1965,0.291 0.0983,0.194 0.1965,0.3879 0.2948,0.5819 0.0983,0.1939 0.1965,0.3879 0.2948,0.5819 0.0983,0.1939 0.1965,0.3879 0.1965,0.5819 0.2948,0.7758 0.5896,1.4547 0.7862,2.1336 0.393,1.0668 0.6878,2.0366 0.8844,2.9095 0.0982,0.2909 0.393,0.5819 0.7861,0.4849 0.3931,0 0.6879,-0.291 0.6879,-0.6789 0.4913,-1.2608 0.393,-2.3276 0.2948,-3.5884 z"
         fill="url(#paint0_linear)"
         id="path837"
         style="fill:url(#paint0_linear)" />
    </g>
  </g>
  <g
     inkscape:groupmode="layer"
     id="layer2"
     inkscape:label="Capa 2"
     style="display:inline">
    <path
       style="fill:url(#linearGradient9990);fill-opacity:1;stroke:none;stroke-width:0.05;stroke-linecap:butt;stroke-linejoin:miter;stroke-miterlimit:4;stroke-dasharray:none;stroke-opacity:1"
       d="M 15.012727,7.7757256 C 14.932066,7.8271266 14.840714,7.7353473 14.715305,7.1875115 14.635542,6.9144439 14.505962,6.6621446 14.365378,6.4144322 14.037218,5.931493 13.747086,5.4580606 13.193175,4.9186835 12.169018,4.0964243 10.993014,3.4368584 9.1516564,3.4901711 9.0229737,3.4741898 8.8478958,3.4930049 8.6792711,3.5069801 8.4223671,3.541718 8.2477999,3.5404337 7.8394751,3.6414182 7.5871599,3.7224689 7.3414612,3.7902865 7.0696502,3.9103289 L 6.8946867,3.994357 C 5.8685789,4.4739748 5.0873043,5.4055925 4.6027493,6.885 L 4.4977747,7.3219669 C 4.4205404,7.7645253 4.4062357,8.3398962 4.4123314,8.7824546 4.6947985,10.789858 5.8764982,12.45668 8.6267839,12.699904 l 0.2449346,0.01681 v 0 0 c 1.7404015,-0.08472 3.0700295,-0.79201 3.4816605,-2.8906438 0.01535,-0.2325898 0.07078,-0.3850268 0,-0.7898884 C 12.08827,8.0044094 11.446103,7.2823643 10.306376,6.9690281 10.186382,6.9466848 10.071393,6.9210046 9.9214635,6.9186182 H 9.8514746 C 9.4257427,6.894063 9.0000107,6.9878569 8.5742788,7.2547306 v 0 C 8.4934004,7.315355 8.4029477,7.3855537 8.3118425,7.4564049 8.0271609,7.6901456 7.7711235,7.9781597 7.6819955,8.5824231 v 0 C 7.6229853,9.658682 8.0214574,10.387885 9.1691403,10.548722 L 9.60654,10.531931 v 0 l 0.402396,-0.117647 0.142334,-0.05706 c 0.09446,-0.01411 0.212274,0.160549 0.08512,0.27554 -0.21343,0.133532 -0.4377211,0.241722 -0.6823343,0.302494 C 8.0952349,11.169404 7.2539718,10.049932 7.2446156,10.044552 7.0714033,9.8115315 6.9291473,9.5692241 6.8597031,9.3050732 6.8232323,9.1667365 6.7882334,9.0269278 6.7722301,8.8681236 c 0.062617,-2.3924048 1.4862904,-3.0871553 3.096748,-3.2772 2.2362289,-0.043647 3.4877619,1.1599866 4.1639949,3.0923347 0.04928,0.169603 0.07572,0.3277849 0.104974,0.4873769 0.02981,0.3633371 0.0463,0.7166768 -0.04705,0.9876408 0.428718,0.241521 0.801957,0.774045 0.939335,1.533272 -0.39799,0.245091 -0.698534,0.525617 -1.644607,0.571405 l -0.06999,0.100837 c -0.435116,0.674531 -0.922674,0.999452 -1.399654,1.394894 0.02745,0.874523 -0.432324,1.442787 -0.909785,1.999935 -0.690077,-0.157768 -1.3727066,-0.340362 -1.889546,-1.075589 -0.2002731,0.01564 -0.3918061,0.0138 -0.5773598,0 C 7.9386038,14.623445 7.3379144,14.511614 6.737225,14.363709 6.085533,14.819488 5.2528755,15.105611 4.130364,15.119997 3.9420838,14.46644 3.6430548,13.908178 4.060375,12.733522 3.6628583,12.318438 3.343069,11.883923 3.0631172,11.439448 2.1366967,11.311408 1.2020563,10.932661 0.24630723,9.9100983 0.66664412,9.0153333 1.1590114,8.1610855 2.2758084,7.6580793 L 2.2933101,7.473214 C 2.4555621,6.4768446 2.5561854,6.3638206 2.6782226,5.9438644 2.1453213,5.0590702 1.6889174,4.1352134 1.8384212,2.901957 2.9331728,2.4246247 4.0098092,2.4545176 5.0751345,2.8011198 L 5.5825054,2.4986082 C 5.9534576,2.2990193 6.161825,2.2370021 6.4048175,2.1456868 l 0.2799202,-0.084028 0.209949,-0.050427 C 7.1449681,1.3225691 7.4880994,0.66197769 8.3643476,0.16256114 9.2642591,0.70879426 9.6528812,1.2654619 9.8339907,1.8263644 l 0.087473,0.016807 c 0.2195123,0.023536 0.3587093,0.063135 0.5073703,0.100841 0.498546,0.1258378 0.700172,0.2021888 0.944771,0.2857022 l 0.104974,0.033601 c 0.528392,-0.29293 1.072117,-0.4631959 1.644607,-0.4033384 0.311529,0.5353158 0.365328,1.0801772 0.279938,1.6301938 0.771275,0.7636587 1.518753,1.5837525 1.784567,3.546076 0.0188,0.2345012 0.04317,0.4731758 -0.05249,0.6218322 z"
       id="path984"
       sodipodi:nodetypes="cccccccccccccccccccccccccccccccccccccccccccccccccccccccccccccccccccccccc" />
  </g>
</svg>
