<!--
    Licensed to the Apache Software Foundation (ASF) under one or more
    contributor license agreements.  See the NOTICE file distributed with
    this work for additional information regarding copyright ownership.
    The ASF licenses this file to You under the Apache License, Version 2.0
    (the "License"); you may not use this file except in compliance with
    the License.  You may obtain a copy of the License at

         https://www.apache.org/licenses/LICENSE-2.0

    Unless required by applicable law or agreed to in writing, software
    distributed under the License is distributed on an "AS IS" BASIS,
    WITHOUT WARRANTIES OR CONDITIONS OF ANY KIND, either express or implied.
    See the License for the specific language governing permissions and
    limitations under the License.
-->
<svg xmlns="http://www.w3.org/2000/svg" viewBox="20 0 80 105.33">
    <defs>
        <style>
            .cls-1{fill:#231f20;}.cls-2{isolation:isolate;}.cls-3{clip-path:url(#clip-path);}.cls-4{clip-path:url(#clip-path-2);}.cls-5{clip-path:url(#clip-path-3);}.cls-6{clip-path:url(#clip-path-4);}.cls-7{opacity:0.35;mix-blend-mode:screen;}.cls-8{clip-path:url(#clip-path-5);}.cls-9{clip-path:url(#clip-path-6);}.cls-10{clip-path:url(#clip-path-7);}.cls-11{clip-path:url(#clip-path-8);}.cls-12{clip-path:url(#clip-path-9);}.cls-13{clip-path:url(#clip-path-10);}.cls-14{clip-path:url(#clip-path-11);}.cls-15{clip-path:url(#clip-path-12);}.cls-16{clip-path:url(#clip-path-13);}.cls-17{clip-path:url(#clip-path-14);}
        </style>
        <clipPath id="clip-path">
            <path class="cls-1"
                  d="M275.72,63.08v5.4c0,2.39-.83,3.23-3.19,3.23h-3.88v7.64c0,2.39-.84,3.24-3.2,3.24h-7.83c-2.44,0-3.2-.85-3.2-3.24V71.71H231.36c-2.35,0-3.19-.84-3.19-3.23v-5.1c0-2.54.15-3.47,1.67-5.24l23.13-28c1.53-1.77,2.44-2.31,5-2.31h7.53c2.36,0,3.2.85,3.2,3.24V59.84h3.88C274.89,59.84,275.72,60.69,275.72,63.08ZM254.42,46.8l-10.65,13h10.65Z"/>
        </clipPath>
        <clipPath id="clip-path-2">
            <path class="cls-1"
                  d="M323.36,82.59h-9.74c-4,0-4.87-.23-6.32-2.85l-7.23-12.65-7,12.65c-1.44,2.39-2.2,2.85-6.31,2.85H277.4c-2.28,0-2.82-1.39-1.6-3.24l15.68-24.68L276.56,30.92c-1.14-1.7-.61-3.09,1.52-3.09h9.13c3.88,0,4.8.31,6.24,2.7l6.85,11.88,6.77-11.88c1.45-2.55,2.44-2.7,5.86-2.7h9.74c2.21,0,2.59,1.39,1.52,3.09L309.13,54.67,325,79.35C326.17,81.05,325.72,82.59,323.36,82.59Z"/>
        </clipPath>
        <clipPath id="clip-path-3">
            <path class="cls-1"
                  d="M47.8,58a1.32,1.32,0,0,1,.83-.09h0s0,0,0-.08c-.81-.5-1.62-1-2.54-1.59a1.65,1.65,0,0,1-.28.6l2,1.21S47.78,58,47.8,58Z"/>
        </clipPath>
        <clipPath id="clip-path-4">
            <path class="cls-1"
                  d="M.71,22.52A23.24,23.24,0,0,0,4.2,28l3.72-1a44.55,44.55,0,0,1-3.84-4.84A2.07,2.07,0,0,1,4,22a2.14,2.14,0,0,1,.13.19,40.79,40.79,0,0,0,4,4.62,65.5,65.5,0,0,0,.73-7c-3.61-1.54-5.64-.6-5.64-.6S0,20.26.71,22.52Z"/>
        </clipPath>
        <clipPath id="clip-path-5">
            <path class="cls-1"
                  d="M15.3,34.21c-.88-.77-1.73-1.53-2.55-2.3s-1.68-1.59-2.47-2.38l-.14-.14Q9,28.21,7.92,27.05L4.2,28l.4.51c.51.65,1.07,1.34,1.67,2s1.39,1.63,2.15,2.47,1.45,1.58,2.23,2.38,1.34,1.38,2,2.08l.08.07,5-1.24C17,35.64,16.12,34.92,15.3,34.21Z"/>
        </clipPath>
        <clipPath id="clip-path-6">
            <path class="cls-1"
                  d="M38.35,50.5,40.68,52l0,0,.34.22,2.12,1.32A4.78,4.78,0,0,1,45.6,52.3a3.85,3.85,0,0,0-2.81.61c.92-3.28.74-6.34-1.35-8.38a5.09,5.09,0,0,0-.6-.52,3.27,3.27,0,0,1,.42,3.34h0A9.18,9.18,0,0,0,38.62,42c-.33-.33-.7-.66-1.12-1a7.42,7.42,0,0,1,.64,7.34l-.22,1.9Z"/>
        </clipPath>
        <clipPath id="clip-path-7">
            <path class="cls-1"
                  d="M34.4,48.68c-.94-.64-1.89-1.29-2.84-2L28.8,44.77c-.93-.66-1.85-1.33-2.77-2s-1.87-1.39-2.8-2.1l-2.72-2.12-1-.77L17.9,36.42l-.09-.07-5,1.24a1.21,1.21,0,0,0,.16.16c.74.73,1.51,1.47,2.3,2.2s1.61,1.47,2.44,2.19,1.42,1.22,2.14,1.81l.44.35c.91.74,1.79,1.42,2.65,2s1.91,1.36,2.81,1.94c.59.38,1.16.74,1.71,1.07l1.42.81c1.12.62,2.25,1.19,3.38,1.7l5.07-1.24L35,49.11Z"/>
        </clipPath>
        <clipPath id="clip-path-8">
            <path class="cls-1"
                  d="M32.38,51.94a35.59,35.59,0,0,0,4.19,1.59l.15,0a9.39,9.39,0,0,0-2.87,2.11,13.22,13.22,0,0,1,6.51-1.21,6,6,0,0,1-1.17,2.8,6.07,6.07,0,0,0,2.09-2.14A7.3,7.3,0,0,0,42.2,59a7.63,7.63,0,0,1,.19-4.26C46,57,45,56.36,48.1,58.16c.1.05.29,0,.4,0,.34.19,1,.77,1.4,1a1.14,1.14,0,0,0-.58-1c-.88-.5-.78-.29-8.25-5.09l-.64-.41-.18-.12c-.78-.5-1.58-1-2.39-1.56l-.56-.37h0l-5.07,1.24Z"/>
        </clipPath>
        <clipPath id="clip-path-9">
            <path class="cls-1"
                  d="M18.28,36.08a3.51,3.51,0,0,0,.36.29l1.11.9,1.26,1,.66.51,2.06,1.57c.88.66,1.79,1.33,2.74,2s1.84,1.33,2.81,2l2.86,2,2.72,1.83.13.09,2.86,1.89.07,0,.22-1.9s0,.07,0,.11a13.6,13.6,0,0,0-2.34-8A18,18,0,0,0,33,37.29,28.37,28.37,0,0,0,30.1,35c-.94-.66-2-1.33-3.09-2a7,7,0,0,1,.2,1.87c0,.12,0,.24,0,.36l0,.37h0A8.26,8.26,0,0,0,24,30.29,7.68,7.68,0,0,1,24.48,33c0,.15,0,.3,0,.45a.49.49,0,0,0,0,.12h0a8.75,8.75,0,0,0-.61-2.08c-.06-.13-.12-.26-.19-.39s-.21-.37-.33-.56-.15-.22-.24-.34a7.63,7.63,0,0,0-.66-.76l-.23-.22L21.85,29c-.52-.42-1-.77-1.39-1.06l-.58-.38-.2-.13c-.2-.13-.38-.23-.54-.32a3.88,3.88,0,0,0-.58-.27h0a1.49,1.49,0,0,1,.11.28A8.89,8.89,0,0,1,19,29.82l.21-1.74L19,29.82v0a2.45,2.45,0,0,1,0,.27v-.05l-.7,6Z"/>
        </clipPath>
        <clipPath id="clip-path-10">
            <path class="cls-1"
                  d="M8,26.83c.67.7,1.45,1.47,2.32,2.32l.14.13c.77.73,1.61,1.51,2.53,2.34s1.66,1.47,2.6,2.26S17.3,35.29,18.22,36l.7-6a7.26,7.26,0,0,0-1.76-3.76c-.24-.26-.49-.53-.75-.79-.79-.81-1.68-1.63-2.58-2.39a31.59,31.59,0,0,0-2.54-1.95c-.51-.35-1-.64-1.42-.87s-.75-.37-1.1-.52A65.5,65.5,0,0,1,8,26.83Z"/>
        </clipPath>
        <clipPath id="clip-path-11">
            <path class="cls-1" d="M27.2,35.21l0,.37h0Z"/>
        </clipPath>
        <clipPath id="clip-path-12">
            <path class="cls-1" d="M24.45,33.6a.49.49,0,0,1,0-.12.49.49,0,0,0,0,.12Z"/>
        </clipPath>
        <clipPath id="clip-path-13">
            <polygon class="cls-1" points="24.45 33.59 24.45 33.59 24.45 33.59 24.45 33.59 24.45 33.59 24.45 33.59"/>
        </clipPath>
        <clipPath id="clip-path-14">
            <path class="cls-1" d="M27.25,35.08c0,.12,0,.24,0,.36h0C27.24,35.32,27.24,35.2,27.25,35.08Z"/>
        </clipPath>
    </defs>
    <title>logo PLC4X black line</title>
    <g class="cls-2">
        <g id="Layer_2" data-name="Layer 2">
            <g id="Layer_1-2" data-name="Layer 1">
                <path class="cls-1" d="M85.72,6.06a0,0,0,0,1,0,0l-.06,0h0v0Z"/>
                <path class="cls-1" d="M85.25,18.53l-.06,0c0-.09,0-.14,0-.14S85.23,18.47,85.25,18.53Z"/>
                <path class="cls-1" d="M74.35,22.72l.09,0-.1.1A.13.13,0,0,1,74.35,22.72Z"/>
                <path class="cls-1" d="M70.18,47.29h0v0Z"/>
                <path class="cls-1" d="M85.72,6.06a0,0,0,0,1,0,0l-.06,0h0v0Z"/>
                <path class="cls-1" d="M85.25,18.53l-.06,0c0-.09,0-.14,0-.14S85.23,18.47,85.25,18.53Z"/>
                <path class="cls-1" d="M74.35,22.72l.09,0-.1.1A.13.13,0,0,1,74.35,22.72Z"/>
                <path class="cls-1" d="M70.18,47.29h0v0Z"/>
                <path class="cls-1" d="M85.72,6.06a0,0,0,0,1,0,0l-.06,0h0v0Z"/>
                <path class="cls-1" d="M85.25,18.53l-.06,0c0-.09,0-.14,0-.14S85.23,18.47,85.25,18.53Z"/>
                <path class="cls-1" d="M74.35,22.72l.09,0-.1.1A.13.13,0,0,1,74.35,22.72Z"/>
                <path class="cls-1" d="M70.18,47.29h0v0Z"/>
                <path class="cls-1"
                      d="M66.07,26.73a1.09,1.09,0,0,1-.08-.15l-.25-.45a.58.58,0,0,0-.11-.15,4.4,4.4,0,0,0-.86-1,5.4,5.4,0,0,0-.77-.47c-1.8.11-3.27,2.14-3.41,4.74a5.66,5.66,0,0,0,1.91,4.87h.86a9.55,9.55,0,0,0,2.5-.35s-.1-.08-.14,0a6.09,6.09,0,0,0,.76-.27,5.68,5.68,0,0,0,1-3.4A21.07,21.07,0,0,0,66.07,26.73Zm-2.73,2.08a.18.18,0,1,1,0-.26A.17.17,0,0,1,63.34,28.81Zm0-.91a.92.92,0,0,1-1.29,0,.91.91,0,0,1,1.29-1.29A.92.92,0,0,1,63.31,27.9Z"/>
                <path class="cls-1"
                      d="M74,24.53c-.27,1.61-.34,2.7-.35,2.77s-.17,1.29-.27,3.11h0a2.34,2.34,0,0,0,1,1.46h0a.33.33,0,0,0,.1,0l.29,0A15.3,15.3,0,0,1,74,24.53Z"/>
                <path class="cls-1"
                      d="M76.68,22.06h0a5.8,5.8,0,0,0-2.18.61h0l-.1.1h0c-.1.37-.18.74-.24,1.1s-.08.43-.11.64a15.3,15.3,0,0,0,.83,7.33A14.87,14.87,0,0,0,77,31.51c.31-.08.62-.16,1-.27a5.92,5.92,0,0,0,1.7-4.14C79.7,24.93,78.27,22.56,76.68,22.06Zm-2.37,5.65a.2.2,0,0,1-.19-.2.2.2,0,0,1,.19-.19.2.2,0,1,1,0,.39Zm1.17-.86a.8.8,0,0,1-1.09-.35.81.81,0,0,1,.36-1.09.8.8,0,0,1,1.09.35A.81.81,0,0,1,75.48,26.85Z"/>
                <path class="cls-1"
                      d="M86.48,6.12a3.52,3.52,0,0,0-.09-.85c0-.06-.25,0-.5.07l-.27.12h0a5.52,5.52,0,0,0-1.28.38A10.49,10.49,0,0,1,83,6.33a2.49,2.49,0,0,1-.44.09l.5.72a1.39,1.39,0,0,1,.24-.35,2.85,2.85,0,0,1,1.1-.74,1.71,1.71,0,0,1,1.14-.11l0,.22a4.81,4.81,0,0,1-.09,1.42c-.17.71-.35,1.44-.41,1.87-.32-.59-.63-1-.7-1a11.42,11.42,0,0,0,.56,1.74c.15.43.27.86.35,1.19s.1.55.11.57.06.24.1.54a9,9,0,0,1,0,1.22,9.48,9.48,0,0,0-.1,1.82,5.29,5.29,0,0,0,.56-1.76,6.33,6.33,0,0,0,.18-1.31,6.26,6.26,0,0,0,0-.64s-.06-.27-.18-.6A9.92,9.92,0,0,0,85.38,10c-.06-.1-.11-.21-.16-.31a13.38,13.38,0,0,0,.94-1.93A4.77,4.77,0,0,0,86.48,6.12Zm-.81,0h0v0l.07,0v0Z"/>
                <path class="cls-1"
                      d="M78.1,42.37a5.52,5.52,0,0,1,1.61,0l.79.1.8.06c.46,0,1.07.11,1.67.19a15.35,15.35,0,0,1,1.64.3,3.54,3.54,0,0,0,.75.15s-.23-.22-.67-.4a11,11,0,0,0-1.63-.5c-.61-.15-1.22-.27-1.68-.34s-.79-.11-.81-.12l-.82,0a5.87,5.87,0,0,0-.83,0,5.75,5.75,0,0,0-.92.18,8.88,8.88,0,0,0-1.33.48,2.91,2.91,0,0,0,0-.31c0-.15-.06-.29-.1-.43l.6-.13c.54-.13,1.09-.22,1.51-.28l.72-.09s.29-.06.7-.1A10.13,10.13,0,0,1,81.58,41a16.53,16.53,0,0,0,2.22.11,7.06,7.06,0,0,0-2.19-.57A10.16,10.16,0,0,0,80,40.45c-.44,0-.74,0-.76,0l-.73.15a14,14,0,0,0-1.52.43l-.59.2a6.93,6.93,0,0,0-.26-.7h0a1.1,1.1,0,0,0-.33-.45c-.14-.07-.22,0-.22,0s.07,0,.14.13a1.23,1.23,0,0,1,.17.42c0,.22.11.48.16.77A3.61,3.61,0,0,0,75,42a4,4,0,0,0,1.17-.24c0,.12,0,.25,0,.37a2.18,2.18,0,0,1,0,.51c-.27.14-.43.26-.41.28s.14,0,.37-.06a3.1,3.1,0,0,1-.15.46h0c-.64.18-1.22.49-1.18.58s.45,0,1-.09c-.11.17-.19.26-.19.27a5.31,5.31,0,0,1-.42.55,6.92,6.92,0,0,1-1.1,1,2.7,2.7,0,0,1-1.35.44c-.4,0-.69,0-.7,0s.27.15.7.2a2.83,2.83,0,0,0,1-.07h0a2.41,2.41,0,0,0,.56-.22,7,7,0,0,0,1.28-1,6.18,6.18,0,0,0,.52-.59,4.13,4.13,0,0,0,.38-.71h.44l.38,0,.38,0,.84.17a5.18,5.18,0,0,0,1.26.27c0-.08-.5-.45-1.11-.7a8.07,8.07,0,0,0-.85-.33l-.33-.07-.13,0a4.09,4.09,0,0,0-.7,0,3.7,3.7,0,0,0,.06-.48A13.16,13.16,0,0,1,78.1,42.37Z"/>
                <path class="cls-1"
                      d="M75.11,43.39c.12,0,.21-.06.27-.2a.77.77,0,0,0,.05-.38.17.17,0,0,0-.05-.12s-.08,0-.12,0-.22.12-.21.14-.12-.11-.14-.08a.37.37,0,0,0,0,.38A.33.33,0,0,0,75.11,43.39Z"/>
                <path class="cls-1"
                      d="M74.62,41.76a.53.53,0,0,0,.21-.35.17.17,0,0,0,0-.12.13.13,0,0,0-.13,0c-.17,0-.25.09-.25.12s-.13-.11-.14-.1l-.06.08a.56.56,0,0,0-.13.24.19.19,0,0,0,.13.24A.48.48,0,0,0,74.62,41.76Z"/>
                <path class="cls-1"
                      d="M70.36,60c-.17,0-.32,0-.31.05s.12,0,.27.11l.24.1c.06,0,0,0,0,0s0,0-.06,0l-.11.12a.56.56,0,0,1-.24.17c-.09,0-.15,0-.16-.1s0-.16,0-.17-.07,0-.1.16a.27.27,0,0,0,0,.23.39.39,0,0,0,.26.11,1,1,0,0,0,.57-.29,3.52,3.52,0,0,0,.29-.4,3.56,3.56,0,0,0-.45-.13Z"/>
                <path class="cls-1"
                      d="M69.44,45.81a1.8,1.8,0,0,0,.81-.09.68.68,0,0,0,.31.18,1.77,1.77,0,0,0,.91,0,3.42,3.42,0,0,0,.69-.28h0a.47.47,0,0,0,.24.08.76.76,0,0,0,.55-.18c.2-.21.36-.4.42-.45s0,0,0,0h0a0,0,0,0,0,0-.05h-.06s-.09,0-.14,0-.27.2-.39.27a.58.58,0,0,1-.44.13.16.16,0,0,0,0-.14c0-.09-.09-.09-.09-.08a.3.3,0,0,1,0,.09s-.08.09-.18.13a3.33,3.33,0,0,1-.78.22,1.59,1.59,0,0,1-.76,0l-.07,0,.33-.2a1.49,1.49,0,0,0,.27-.23l.13-.12a2,2,0,0,0,.13-.18.45.45,0,0,0,.08-.38.4.4,0,0,0-.29-.21,1.32,1.32,0,0,0-.57,0,.56.56,0,0,0-.38.21.54.54,0,0,0-.08.25s0,.07,0,.08,0,0,.08-.06a.84.84,0,0,1,.12-.19.4.4,0,0,1,.29-.1,1.29,1.29,0,0,1,.41,0s.1,0,.11.1a.2.2,0,0,1-.06.15l-.07.06-.11.1a2.2,2.2,0,0,1-.25.17,1.69,1.69,0,0,1-1.19.29.46.46,0,0,1-.35-.31,1.46,1.46,0,0,1-.1-.57,1.5,1.5,0,0,1,.4-.95,2.5,2.5,0,0,1,.94-.59,3.41,3.41,0,0,1,.58-.19,1.19,1.19,0,0,1,.26-.05h.07l.25.05a1.53,1.53,0,0,0,.29,0l.23-.08.21-.07.11,0h0a3.26,3.26,0,0,1,.88,0,1.13,1.13,0,0,1,.38.12,1.4,1.4,0,0,1,.32.28c.18.22.25.47.11.6l-.18.15a1.07,1.07,0,0,0-.18.19.34.34,0,0,0-.07.11.42.42,0,0,0,0,.1.19.19,0,0,0,0,.08v0a.38.38,0,0,1-.07.21l-.08.08s-.09.06-.09,0,.11-.22,0-.31a.55.55,0,0,0-.38.14c-.07.06-.1.09-.09.1s0,0,.13,0l.14,0,.08,0h0s0,0,0,0c0,.2,0,.17,0,.22a.36.36,0,0,1,0,.11.83.83,0,0,0-.06.21s0,0,0,0h.12a.65.65,0,0,0,.16-.09.57.57,0,0,0,.23-.3c.1-.48.22-.52.54-.74a.69.69,0,0,0,.22-.62,1.19,1.19,0,0,0-.24-.55,1.73,1.73,0,0,0-.41-.4,1.4,1.4,0,0,0-.56-.22,3.59,3.59,0,0,0-1,0,.47.47,0,0,0-.16,0l-.11,0-.2.07-.17,0h-.12l-.12,0a.83.83,0,0,0-.29,0,3,3,0,0,0-.37,0,4.1,4.1,0,0,0-.69.2l-.36.18a2.37,2.37,0,0,0-.79.63,2,2,0,0,0-.49,1.33,1.84,1.84,0,0,0,.19.79A1,1,0,0,0,69.44,45.81Z"/>
                <path class="cls-1"
                      d="M69.25,67.14a1,1,0,0,0-.2,0,3.56,3.56,0,0,0-.62.34c-.28.19-.53.42-.5.45s.31-.12.62-.25a3.27,3.27,0,0,1,.41-.17l.19-.06s.07,0,.07,0,0,0,0,0,0,.14,0,.22,0,.18-.07.25-.16.14-.18.17,0,0,.09,0,.16-.05.22-.12a1.74,1.74,0,0,0,.14-.27,2.09,2.09,0,0,0,.13-.37C69.6,67.18,69.39,67.1,69.25,67.14Z"/>
                <path class="cls-1"
                      d="M69.93,63.14l-.33,0a1.15,1.15,0,0,0-.31,0,3.87,3.87,0,0,0-1,.41,1.55,1.55,0,0,1-.32.14c-.07,0-.12,0-.12,0s0,0,.13,0a1.25,1.25,0,0,0,.36-.09,5.22,5.22,0,0,1,1-.31h.57l0,0h0l-.09,0a4.78,4.78,0,0,0-.92.64c-.16.12-.31.24-.45.23a.8.8,0,0,1-.38-.23.78.78,0,0,1-.2-.26.12.12,0,0,1,0-.11s-.09,0-.1.12a.63.63,0,0,0,.18.34.9.9,0,0,0,.45.32.84.84,0,0,0,.6-.22,4.68,4.68,0,0,1,.91-.55l.11,0,.18-.06.3-.09a.88.88,0,0,0,.2-.1s.18-.11,0-.29A1.78,1.78,0,0,0,69.93,63.14Z"/>
                <path class="cls-1"
                      d="M67.31,42.55a.85.85,0,0,0-.25-.37.41.41,0,0,0-.24-.1h0a.3.3,0,0,0-.22.11.9.9,0,0,0-.18.34s.07,0,.15.07l-.16.15s0,0,0,0l0,0,.29,0,.32,0a.37.37,0,0,0,.23-.05A.2.2,0,0,0,67.31,42.55Z"/>
                <path class="cls-1"
                      d="M66.41,45c-.06-.06-.14-.09-.16-.06a2.06,2.06,0,0,0-.29.45A.58.58,0,0,0,66,46a.73.73,0,0,0,1.11-.38.58.58,0,0,0-.25-.49C66.63,45,66.41,45,66.41,45Z"/>
                <path class="cls-1"
                      d="M64.58,43.12h0l.06,0a.19.19,0,0,0,.09-.05.08.08,0,0,0,0,0,.29.29,0,0,0-.28-.48h0a.25.25,0,0,0-.18.14.33.33,0,0,0,0,.06v0s0,0,0,0C64.22,43,64.35,43.21,64.58,43.12Z"/>
                <path class="cls-1"
                      d="M64.8,63.18h-.32a3.24,3.24,0,0,0-.67,0,.81.81,0,0,0-.52.46c-.07.17-.08.29-.06.3a2.44,2.44,0,0,0,.94-.07,1.7,1.7,0,0,0,.62-.28l.07,0a.11.11,0,0,0,.06,0s0,0,.09-.08a.18.18,0,0,0-.06-.23C64.81,63.17,64.82,63.2,64.8,63.18Zm-.7.49c-.35.12-.73.21-.84.26.07-.09.25-.46.6-.5a3.94,3.94,0,0,1,.6,0A1.13,1.13,0,0,1,64.1,63.67Z"/>
                <path class="cls-1"
                      d="M63.86,66.3a2.15,2.15,0,0,0-.52-.13l-.36,0a1,1,0,0,0-.78.31,1.22,1.22,0,0,0-.36,1,2.13,2.13,0,0,1,.52-.88.73.73,0,0,1,.59-.17l.35,0a2.92,2.92,0,0,1,.45.08l0,0v0a.5.5,0,0,1-.07.08c-.1.11-.24.24-.33.32-.34.14-.68.19-.68.22a1.18,1.18,0,0,0,.77,0,3.25,3.25,0,0,0,.42-.31l.09-.1a.5.5,0,0,0,.1-.19C64.1,66.45,64,66.34,63.86,66.3Z"/>
                <path class="cls-1"
                      d="M60.42,68.86c-.32-.14-.6,0-.57,0s.07,0,.16,0a.86.86,0,0,1,.28.11s0,.06,0,.06-.05,0-.05,0a1.49,1.49,0,0,1-.46.07.49.49,0,0,1-.19,0c-.06,0,.05,0,.05.07l0,.07s0,0,0,0,0,0,0,0,0,0,0,0l.09,0a1.23,1.23,0,0,0,.41,0l.19,0a.58.58,0,0,0,.25-.12.26.26,0,0,0,.07-.24A.4.4,0,0,0,60.42,68.86Zm-.71.46s0,0,0,0S59.77,69.41,59.71,69.32Z"/>
                <path class="cls-1"
                      d="M58,62.47a.81.81,0,0,0-.31-.06,2.63,2.63,0,0,0-.77.06c-.26,0-.52.06-.73.08l-.15,0-.06,0s-.05.07,0,.08.09.06.09.06,0,0,0-.07h.18a3.58,3.58,0,0,0,.74,0,3.3,3.3,0,0,1,.72,0l.18,0h0s0,0,0,0-.35.38-.54.42a.72.72,0,0,1-.34-.05l-.33-.1a1.21,1.21,0,0,0-.33-.06s.1.09.28.18l.32.15a.91.91,0,0,0,.43.11.83.83,0,0,0,.42-.2L58,63a.59.59,0,0,0,.18-.14.24.24,0,0,0,.05-.17.2.2,0,0,0-.07-.15A.37.37,0,0,0,58,62.47Z"/>
                <path class="cls-1"
                      d="M68,32.6a9.45,9.45,0,0,1-.92.58c-.18.1-.39.2-.62.3s-.48.18-.76.26l-.06,0-.28.05h0a6.6,6.6,0,0,1-.84.16l-.14,0h-.21l-.5,0-.55,0a3.85,3.85,0,0,1-.48,0A15.57,15.57,0,0,1,60,33.73a25,25,0,0,1-2.47-.64A9.23,9.23,0,0,1,55.11,32l0,0-.84-.59-.41-.32-.28-.22v-.09l0-.24c0-.16.08-.32.13-.48a6.91,6.91,0,0,1,.37-.95,10.46,10.46,0,0,1,2.48-3.28,8.38,8.38,0,0,1,3.31-2.09,4.94,4.94,0,0,1,3.44.5l.66.32a6.68,6.68,0,0,1,.78.47,4.36,4.36,0,0,1,.85,1,1,1,0,0,1,.12.15l.24.45.08.15a21.9,21.9,0,0,1,1.45,3.34A13.61,13.61,0,0,1,68,31.84s0,.75,0,.76a3.9,3.9,0,0,0,.18-2,16.49,16.49,0,0,0-.59-2.52,10.8,10.8,0,0,0-1.14-2.52,5.56,5.56,0,0,0-1.16-1.29,11.65,11.65,0,0,0-1.62-.88,7.72,7.72,0,0,0-1.87-.59,4.76,4.76,0,0,0-2.12.1,6.69,6.69,0,0,0-2,1,12.1,12.1,0,0,0-1.67,1.36,11.5,11.5,0,0,0-2.57,3.55,10,10,0,0,0-.38,1c-.05.18-.09.36-.13.54s0,.18,0,.29,0,.29,0,.43l.33.27.21.16c.14.1.28.22.43.32l.86.58h0a9.39,9.39,0,0,0,2.61,1.13,23,23,0,0,0,2.54.58,12.77,12.77,0,0,0,4.43.18,7.53,7.53,0,0,0,2.83-1A2.43,2.43,0,0,0,68,32.6Z"/>
                <path class="cls-1"
                      d="M70,34.8a14.28,14.28,0,0,0,.16-3.36,31.65,31.65,0,0,0-.28-3.67A11.8,11.8,0,0,0,68.67,24a8.88,8.88,0,0,0-2.61-3h0l0,0a9.26,9.26,0,0,0-5.51-2,27.83,27.83,0,0,0-4.85.52,17.35,17.35,0,0,0-3.33,1c-.8.34-1.23.63-1.3.65a16.69,16.69,0,0,0-1.49,1.06,25.2,25.2,0,0,0-3.12,3,24.7,24.7,0,0,0-1.78,2.24l-.42.61-.32.47-.2.29-.1.15c0,.05.06.09.08.14l.47.54.28.33.55.6a47.56,47.56,0,0,0,4.91,4.66,25,25,0,0,0,2.8,2l.74.43.76.38c.51.24,1,.45,1.49.67,2,.84,3.79,1.61,5.42,2.14.36.11.69.21,1,.29a9.31,9.31,0,0,0,1.26.28,7.51,7.51,0,0,0,1.82,0c1-.08,1.55-.41,1.49-.47s-.13.05-.38.1a5.26,5.26,0,0,1-1.13.1A6.89,6.89,0,0,1,63.45,41a15.08,15.08,0,0,1-2.18-.67C59.7,39.76,57.9,38.94,56,38c-.48-.22-1-.45-1.45-.7l-.7-.38c-.23-.14-.47-.28-.69-.43a24.1,24.1,0,0,1-2.66-2,48.11,48.11,0,0,1-4.69-4.67l-.52-.6L45,29l0,0s0,0,0-.05v0l.11-.14c.14-.21.29-.41.43-.61A25.21,25.21,0,0,1,47.32,26a24.3,24.3,0,0,1,3-2.81c.79-.61,1.31-.89,1.36-.94s.44-.27,1.14-.58a16.12,16.12,0,0,1,3.07-1,29,29,0,0,1,4.62-.59A8.32,8.32,0,0,1,65.4,21.8l0,0a7.92,7.92,0,0,1,2.42,2.63A11,11,0,0,1,69,27.9a34.74,34.74,0,0,1,.39,3.57,13.85,13.85,0,0,1,0,3.23,13.51,13.51,0,0,1-1.65,4.65c-.3.52-.57.92-.76,1.2a3,3,0,0,0-.29.42c0,.05.6-.44,1.3-1.47A12.55,12.55,0,0,0,70,34.8Z"/>
                <path class="cls-1"
                      d="M90.87,87.6c-.14-.21-.33-.38-.48-.58a5.28,5.28,0,0,0-1.18-.92,4.88,4.88,0,0,0-2.86-.55,9.6,9.6,0,0,0-2.69.7c-.85.33-1.63.75-2.4,1.13s-1.55.77-2.3,1.15c-3,1.57-5.75,3.1-8.4,4.3a32.68,32.68,0,0,1-7.44,2.52,18.8,18.8,0,0,1-6,.23L56,95.41l-1-.25-1.6-.4c-.43-.11-.76-.18-1-.23L52,94.46a1.07,1.07,0,0,0,.32.12l.48.16s0-.06,0-.06,0,0,0,.07l.43.13,1.59.46.9.26a1.69,1.69,0,0,1,.6.93,5.24,5.24,0,0,1-.28,2.94,8.63,8.63,0,0,1-1.71,2.47,12,12,0,0,0-.9,1.1c-.53-.11-1.06-.23-1.57-.37a13.43,13.43,0,0,1-3.16-1.31c-.18-.09-.35-.19-.52-.29l.67-.25a10,10,0,0,0,2.89-1.66,3.85,3.85,0,0,0,1-1.49,4.4,4.4,0,0,0,.25-1.53,3.81,3.81,0,0,0-.22-1.39h-.06a9.38,9.38,0,0,1,0,1.39,3.69,3.69,0,0,1-1.34,2.67,9.58,9.58,0,0,1-2.79,1.45c-.41.15-.76.26-1,.33l-.16,0h0l-.22-.15-.35-.24c-.18-.13-.42-.3-.62-.47-.43-.33-.9-.78-1.34-1.17,0,.53,0,1,0,1.56l-.81-1.7-.39-.84-.56.74-.6.77-.08.1s0,.06,0,0v-.06l-.06-.3L42.08,97c-.06-.31-.13-.61-.2-.92l-.1-.47a3,3,0,0,0-.16-.56c-.08-.17-.27-.8-.48-1.5.22,0,.49.08.78.11a6.32,6.32,0,0,0,1.56,0,5.66,5.66,0,0,0,1.69-.54,3,3,0,0,0,1.24-.86,3.87,3.87,0,0,0,.58-.93c.08-.24.16-.46.23-.66.13-.39.25-.72.32-1,.17.33.29.52.29.54s.21.33.53.77a18.44,18.44,0,0,0,1.22,1.54A7.72,7.72,0,0,0,51,93.86a2.27,2.27,0,0,0,.79.37s0,0,0,0-.28-.23-.66-.57a8.81,8.81,0,0,1-1.26-1.39c-.42-.55-.8-1.14-1.08-1.59l-.46-.78a7.06,7.06,0,0,1-.47-.75,6.25,6.25,0,0,1-.6-1.76,14.28,14.28,0,0,1-.1-2.73h0a5.07,5.07,0,0,0-.37,2.64,1.56,1.56,0,0,0-.15.06c-.21.07-.51.15-.88.24a20.91,20.91,0,0,1-2.75.35,3.89,3.89,0,0,1-2.53-.76,3.19,3.19,0,0,1-.64-.65,6,6,0,0,1,.15-1,29.43,29.43,0,0,1,.88-3c.18-.43.37-.84.57-1.24-.09-.16-.14-.31-.2-.41h0c0,.11.11.25.2.41a3,3,0,0,0,.29.44,3.72,3.72,0,0,0,2.33,1.41,6.18,6.18,0,0,0,2.67-.18,6.1,6.1,0,0,0,.81-.28,3.61,3.61,0,0,0-.38,1.69c.11,0,.35-1,1.22-2.28a29.25,29.25,0,0,1,3.88-4.15c.76-.73,1.48-1.54,2.12-2.29a26.07,26.07,0,0,0,1.67-2.17,13,13,0,0,0,1-1.73,1,1,0,0,1,.07-.15c.15.56.42,1.41.67,2.29.21.72.42,1.45.54,2s.19.91.2.92,0,.11,0,.27.06.4.1.68c.08.56.17,1.32.26,2.07.12,1.12.24,2.22.33,2.71h0l-.28.11s-.55.27-.56.29c-.83.53-1.27.84-2,1.3a2.9,2.9,0,0,0-.78.34,1.43,1.43,0,0,0-.81,0,1.34,1.34,0,0,0-.68.72,2.37,2.37,0,0,0-.18.55,2.14,2.14,0,0,0-.06.31.86.86,0,0,0,0,.16v.23c.18.27.36.56.55.86,0,.06.09.06.14.08l.17,0,.23.06.45.1.93.18c.09,0,.14,0,.3,0h.2l.08,0h0a.14.14,0,0,0,.08,0l.44-.34,2.82-2.14c.19-.56.37-1,.49-1.36l.18-.52a1.47,1.47,0,0,1,0-.17v-.13h0v0h0v0h0a.28.28,0,0,0,0-.11l0,0c.1-.32.25-.76.43-1.28s.38-1.14.59-1.79c.11-.32.23-.66.34-1l.18-.51h0l0,0h0a1.06,1.06,0,0,0,.07-.22V78l0-.28a52.52,52.52,0,0,0,.29-5.39h.06c0,.15,0,.34.06.57,0,.61.14,1.49.24,2.56.05.54.11,1.12.17,1.74l.06.48,0,.24,0,.13c0,.06,0,.17.05.21.08.3.15.6.23.92.31,1.39.66,2.89,1,4.43l2,1,2.58,0a3,3,0,0,0,1.34-.21,1.61,1.61,0,0,0,.55-.48c.13-.18.23-.35.34-.53s.2-.34.29-.52a2.73,2.73,0,0,0,.13-.29.69.69,0,0,0,0-.39A1.79,1.79,0,0,0,71.73,81a1.56,1.56,0,0,0-.52-.34,1.08,1.08,0,0,0-.64,0,6.59,6.59,0,0,0-.92.45,9.28,9.28,0,0,1-1.53.68,6.81,6.81,0,0,1-1.29.11,3.92,3.92,0,0,0-.51.07,3.63,3.63,0,0,1-.2-.57,9.13,9.13,0,0,1-.25-2.8,7,7,0,0,1,.65-2.7,3.7,3.7,0,0,0,.16-.4.8.8,0,0,0,0-.44l0-.12c.25-.25.52-.54.79-.86a11.06,11.06,0,0,0,1-1.36c.25-.38.39-.65.4-.66s.14-.3.32-.72.39-1,.59-1.52a14.79,14.79,0,0,0,.53-1.69c.39-.57.75-1.13,1.07-1.68a15.68,15.68,0,0,0,2-5.15,1,1,0,0,0,.4,0,2.14,2.14,0,0,0,.48-.27,1.17,1.17,0,0,0,.24-.21.55.55,0,0,0,.14-.35,1.59,1.59,0,0,0-.18-.64,2.35,2.35,0,0,0-.29-.49,1.17,1.17,0,0,0-.34-.28c-.11-.06-.18-.07-.18-.08s-.09.07-.1.16v0a.21.21,0,0,0,0,.13.61.61,0,0,1,.36.23,2,2,0,0,1,.47.93c0,.16-.12.29-.27.41a1.92,1.92,0,0,1-.41.3.86.86,0,0,1-.34.09,4.88,4.88,0,0,0,.08-.61,6.06,6.06,0,0,0,.06-1c0-.18,0-.34,0-.48s0-.18,0-.26a2.49,2.49,0,0,0-.09-.6c-.07,0,0,.85-.2,2.3a15.37,15.37,0,0,1-2.22,5.6,28.34,28.34,0,0,1-2.4,3.28,5.89,5.89,0,0,1-3.79,1.9,16.42,16.42,0,0,1-2.35.22,15.88,15.88,0,0,1-2.4-.12,10.2,10.2,0,0,1-4.36-2L54.93,69h0a1.6,1.6,0,0,0,.26-1.3.18.18,0,0,0-.19-.11h-.83l-.21,0,.06.2s0,.12-.22.24l-.13-.13a6.9,6.9,0,0,1-1.1-1.62l-.18-.35q-.15-.32-.27-.63h0s0,0,0,0a6.44,6.44,0,0,1-.24-.61,1,1,0,0,0,.21.11.26.26,0,0,1,.1,0,.23.23,0,0,1,.13.16c0,.13-.14.23-.2.29a0,0,0,0,0,0,0,.24.24,0,0,0,.14,0,.37.37,0,0,0,.27-.31.48.48,0,0,0-.17-.41.36.36,0,0,0-.18-.11,1.48,1.48,0,0,1-.42-.19s0,0-.05,0A21.33,21.33,0,0,1,51,61.33c-.16-.74-.28-1.48-.38-2.2l.12,0c.26-.08.66-.2,1.21-.39a10.51,10.51,0,0,0,2.11-1c.41-.26.83-.56,1.28-.91l.74-.6c.31-.25.48-.46.79-.72a6.55,6.55,0,0,1,.56-.6l0,0a7.67,7.67,0,0,1-1,.07c-.4,0-.82.08-1.16.09l-.82,0A9.68,9.68,0,0,1,53,55a5.38,5.38,0,0,1-1.85-.65,3.29,3.29,0,0,1-.67-.53c0-.29.08-.58.13-.86a15.28,15.28,0,0,1,.42-1.65,4.78,4.78,0,0,0,.81.2,6.94,6.94,0,0,0,2-.08l.62-.09.81-.14.89-.16.48-.09c.12,0,0,0,0-.06s-.14,0-.15,0-.17-.1-.17-.11l-.17-.07a3.84,3.84,0,0,1-.8-.43,2.34,2.34,0,0,1-.38-.28c-.09-.07-.16-.16-.24-.23a4.26,4.26,0,0,1-.43-.57c-.08-.16-.16-.3-.22-.45a10.08,10.08,0,0,1-.55-1.74l-.18-.75c.18-.35.3-.6.37-.74h0c.27.09.49.14.74.2,1.07.27,2.13.53,3.16.82l-.57.44a17.91,17.91,0,0,0-2.42,2,20.84,20.84,0,0,0,2.69-1.65l1-.64c.58.17,1.14.34,1.69.52l.67.22-.09.07a13.14,13.14,0,0,0-1.21,1.12,8.94,8.94,0,0,0-1.49,1.81h0a15.19,15.19,0,0,0,1.8-1.48c.45-.37.91-.73,1.27-1l.45-.3a16.2,16.2,0,0,0,3.42,1,9.28,9.28,0,0,0,2,0v0a1,1,0,0,0,.19.14,3.7,3.7,0,0,0,.44.28,1.73,1.73,0,0,0,.47.15,2.79,2.79,0,0,0,1.18,0,6.28,6.28,0,0,0,.66-.23s.07.17.12.33a.27.27,0,0,1,.08.19h0v0a1.16,1.16,0,0,1-.18.51,1.92,1.92,0,0,1-.18.29A2.32,2.32,0,0,1,68.3,51l-.51.09-.61.1a4.7,4.7,0,0,0-.71.14l-.16,0-.09,0s0,.06,0,.08a1.84,1.84,0,0,0,.15.35,2.13,2.13,0,0,0,.52.6,3.18,3.18,0,0,0,.58.35,3.49,3.49,0,0,0,1.12.31A6.5,6.5,0,0,0,70.32,53c.37-.07.64-.13.85-.19h0l.31.84c.07.18.13.35.19.52l-.08.1a2.71,2.71,0,0,1-1,.68,3.82,3.82,0,0,1-1.73.24l-1.06-.09c-.25,0-.58-.08-.94-.17s-.83-.23-1.29-.36l.11.14,0,0v0l0,0,.35.32a9.75,9.75,0,0,0,.74.64l.43.32.29.18a5.33,5.33,0,0,0,.56.32,5.15,5.15,0,0,0,2.26.61,5.47,5.47,0,0,0,2.27-.2c.29.78.45,1.29.55,1.28s.09-.4,0-1c.08-.35.21-.93.38-1.5s.28-.88.38-1.27a3,3,0,0,0,.08-.71s0-.08,0-.22a1.42,1.42,0,0,0-.24-.51,2.22,2.22,0,0,0-1.29-.7l-.4-.13c-.21-.81-.44-1.57-.62-2.2s-.46-1.5-.56-1.87a1.08,1.08,0,0,1-.06-.18H71a4.87,4.87,0,0,0,1-.18,2.84,2.84,0,0,0,1.33-.85c.29-.32.39-.57.36-.6h0c-.07,0-.24.22-.49.41a3.22,3.22,0,0,1-1.28.58,4.44,4.44,0,0,1-1.4,0l-.2,0a2.7,2.7,0,0,0,.53-.46,2.11,2.11,0,0,0,.41-.59,1.07,1.07,0,0,0,.1-.24c-.06-.06-.26.3-.68.65a3.92,3.92,0,0,1-1.83.81,7.36,7.36,0,0,1-2,.12,4.51,4.51,0,0,1-.92-.2l-.26-.08a2.87,2.87,0,0,1-.58-.27l-.29-.22,0,0s0,0,0,0a.29.29,0,0,0-.41-.42s0,0,0,0l0,.07-.48-.41a12,12,0,0,1,1.08-.68c.37-.18.66-.24.66-.29s-.31-.07-.75,0a9.59,9.59,0,0,0-1.34.61l0,0-1.07-.94.69-.23c1.49-.49,3-.87,3-1s0,0-.11,0a15.13,15.13,0,0,0-2.27.37c-.25,0-.49.1-.74.16l-1,.27c-.47-.39-.81-.64-.86-.58a5.35,5.35,0,0,0,.58.66l-.8.25c-.58.19-1,.36-1,.37a8.64,8.64,0,0,0-1,.5l-.41.28c-1.2-.39-2.46-.76-3.71-1.11-.23-.07-.49-.13-.67-.2s-.43-.18-.65-.28l-1.32-.59L52,43.61c.7-.19,1.36-.35,1.9-.47.78-.17,1.32-.22,1.35-.23s.56-.1,1.36-.19a20.23,20.23,0,0,1,2.88-.07A23,23,0,0,1,62.3,43c.68.12,1.15.24,1.27.24s0,0,0,0a4.16,4.16,0,0,0-1.24-.48l-.62-.16a19.94,19.94,0,0,0-2.27-.37,18.9,18.9,0,0,0-3-.06,12.09,12.09,0,0,0-1.41.14s-.59.08-1.38.29-1.56.44-2.44.75h0l-1.73-.82c-1.65-.8-3.19-1.57-4.49-2.27-.65-.35-1.24-.68-1.75-1s-.9-.59-1.29-.87c-.75-.51-1.19-.82-1.24-.86s-1-.64-2.44-1.54L35.8,34.37l-.12-.07s0,0,0-.07h0l.09,0,.28-.17.76-.44,1.6-.89-3.6-1-1-.27-.32-.07.2-.15.14-.1.42-.28,2-1.39L37,29l0,0L37,29l-.1,0-.18-.07-.38-.15-1.38-.52L34.49,28l-.12,0a.15.15,0,0,1-.09-.06.24.24,0,0,1,0-.36l.15-.16.16-.2c.11-.13.21-.27.3-.4a5.62,5.62,0,0,0,.51-.83,10.1,10.1,0,0,0,.7-1.67,14.9,14.9,0,0,0,.64-2.93,10,10,0,0,0,0-2.16c.91.8,1.49,1.23,1.56,1.16s-1.09-1.61-2.85-3.75a30.91,30.91,0,0,1-2.47-4l-.15-.29,0-.07v0L32.79,12c-.07-.19-.13-.39-.2-.6a12.83,12.83,0,0,1-.29-1.26,11.6,11.6,0,0,1-.18-1.3c0-.22,0-.44,0-.64s0-.21,0-.31a.66.66,0,0,1,0-.14V7.72a.49.49,0,0,1,.08-.18c.05,0,.11,0,.19-.07l.54-.13.66-.13c.89-.16,1.78-.3,2.64-.4s1.71-.18,2.45-.2a13.41,13.41,0,0,1,2.07.24c1.36.24,2.51.52,3.32.72l1,.26.22-.23c.1-.09.18-.19.28-.29s.12-.12.17-.19a7.14,7.14,0,0,1,.56-.54,3.63,3.63,0,0,1,.46-.34A.9.9,0,0,1,47,6.16L47.19,6a20.75,20.75,0,0,1,2.49-1.59c.48-.26,1-.51,1.49-.74l.5-.22.55.1a11.74,11.74,0,0,1,2.58.83,10.61,10.61,0,0,1,1.59.91c.27.19.56.38.86.6l.45.34c.19.14.38.29.58.46l.25.23a2.52,2.52,0,0,1,.74.52c.1.16,0,0,0-.11a2.6,2.6,0,0,1,0-.26,1,1,0,0,1,0-.3c-.37-1.25-.69-2.31-.95-3.18-.14-.42-.25-.8-.37-1.13l1,0c.88,0,1.62.08,2.15.13l.9.08.57,0,.17.15A8.16,8.16,0,0,1,65,7a4.46,4.46,0,0,0,.17.54,39.58,39.58,0,0,1,.28-4.77l.58,0h.76l.45,0a2.92,2.92,0,0,0,.44-.06c.45-.07.88-.17,1.32-.25l.28.29a6.8,6.8,0,0,1,1,1.53c.08.17.17.36.24.55a5.8,5.8,0,0,1,.21.89c0,.3.08.62.12.94,0,.16.05.33.07.49l0,.25,0,.13s0,0,0,0l.15-.49a15.41,15.41,0,0,1,.75-2,8.45,8.45,0,0,1,.67-1.2,3.69,3.69,0,0,1,.72-.78,6.43,6.43,0,0,1,.73-.48,3.27,3.27,0,0,1,.42-.21,16.23,16.23,0,0,1,2.16.54c.85.29,1.61.62,2.26.86s.93.34,1.23.42c.36.4.64.68.84.87s.34.29.38.27,0-.18-.19-.43l-.36-.61s0,0,0,0l.4,0h.49c.5,0,1-.09,1.58-.16a15.37,15.37,0,0,1,1.63-.14,2.89,2.89,0,0,1,1.36.23c.66.32.78,1.28.84,1.91a11.5,11.5,0,0,1,0,1.16s.06.78,0,1.87A25.11,25.11,0,0,1,86.7,13a29.25,29.25,0,0,1-1,3.84,7.62,7.62,0,0,0-.54,1.75s0,0,.09,0c0,.31,0,1.08,0,1.84,0,.5-.06,1-.1,1.38s-.07.63-.07.65,0,.27-.08.64a11.17,11.17,0,0,1-.21,1.19V24c0-.29,0-.63,0-1a7.16,7.16,0,0,0-.42-1.35,4.79,4.79,0,0,0-1-1.34A6.94,6.94,0,0,0,81.87,19,6.82,6.82,0,0,0,78,18.11a4.21,4.21,0,0,0-2,.82,6.4,6.4,0,0,0-1.47,1.42,5.3,5.3,0,0,0-.85,1.74c-.18.57-.31,1.11-.42,1.62a32.86,32.86,0,0,0-.55,3.49c0,.08-.16,1.47-.21,3.51a15.86,15.86,0,0,0,1.33,7.34l.12.23.15.28a.6.6,0,0,0,.68.32,1.42,1.42,0,0,0,.32-.07,2.76,2.76,0,0,0,.3-.15l.42-.29c.54-.39,1-.78,1.53-1.17,1-.77,1.87-1.51,2.62-2.17a15.16,15.16,0,0,0,2.53-2.64,1.54,1.54,0,0,0,.09-.24l.38.46c0,.07.1.12.08.11h0c-.07.06-.19.15-.31.27a5.54,5.54,0,0,0-.83,1.07c-.52.93-1.07,2.09-1.78,3.18a8.35,8.35,0,0,1-1.16,1.48,7.12,7.12,0,0,1-1.32,1,12.63,12.63,0,0,0-1.39.88A4,4,0,0,0,77.78,40l.72-.37a4.41,4.41,0,0,0,.78-.52,9.16,9.16,0,0,0,1.36-1.48c.81-1.09,1.47-2.3,2-3.11a4.89,4.89,0,0,1,.72-.85l.24-.19c.14-.1.25-.15.26-.16l.09-.06s0-.07.1-.39v0c0-.09,0-.2.08-.35h0l2.52-.84-1.65-1-.47-.27-.15-.08a1.94,1.94,0,0,1,.13-.2c.12-.16.25-.32.36-.48l.69-.91c.43-.58.8-1.09,1-1.46l.23-.33-.35.13c-.31.11-1.54.25-2.19.34a2.62,2.62,0,0,0-.4.06c.1,0,1.52,0,2.28-.11-.28.29-.62.65-1,1.06s-.49.56-.76.85l-.41.46-.65.76,1.2.78.15.13-.15,0h0l-.28.08-1.11.31-.51.14c.12-.37.29-.94.47-1.56.29-1,.59-2.12.81-2.93h0c-.16.57-.37,1.26-.6,1.85-.06.17-.13.34-.19.49-.53,1.21-.65,2.28-1,2.71s-.56.71-.56.71c-.44.36-1.09.88-1.86,1.48S78,36,77,36.76c-.5.36-1,.74-1.55,1.09l-.41.26-.14.07-.15,0s-.11,0-.12-.07L74.52,38l-.1-.22a13.5,13.5,0,0,1-1-3.66,14.36,14.36,0,0,1-.13-1.69.54.54,0,0,0,.17.07,3.86,3.86,0,0,0,1.09,0,15.52,15.52,0,0,0,2.54-.42,14,14,0,0,0,3.33-1.35,6,6,0,0,0,.83-.59,2.73,2.73,0,0,0,.38-.38.58.58,0,0,0,.1-.12l.09-.16c0-.09.06-.19.08-.27a7.18,7.18,0,0,0,.15-2.11,4.53,4.53,0,0,0-.64-2,11.8,11.8,0,0,0-1.13-1.66,4.19,4.19,0,0,0-1.46-1.21,4.57,4.57,0,0,0-1.65-.42,4.48,4.48,0,0,0-2.45.42l-.32.2,0-.09a4.39,4.39,0,0,1,.69-1.51,5.45,5.45,0,0,1,1.25-1.29A3.61,3.61,0,0,1,78,18.81a6.21,6.21,0,0,1,3.58.71,6.62,6.62,0,0,1,1.33,1.08,4.69,4.69,0,0,1,1,1.17A10.2,10.2,0,0,1,84.37,23c0,.4.09.74.13,1s.08.54.11.7v0a14.12,14.12,0,0,0-.43,1.68,3.35,3.35,0,0,0,.26-.57c.14-.35.31-.82.46-1.31s.25-1,.31-1.36.1-.64.1-.65,0-.28.06-.67,0-.89,0-1.39a12.72,12.72,0,0,0-.14-1.91l0,0a.79.79,0,0,1,0-.14s0,0,0,.09a8.88,8.88,0,0,0,.88-1.45,21.5,21.5,0,0,0,1.48-3.82,22.89,22.89,0,0,0,.78-4.09,18.2,18.2,0,0,0,.09-2s0-.5-.12-1.26A5.66,5.66,0,0,0,88,4.57a2.48,2.48,0,0,0-1.28-1.4A3.79,3.79,0,0,0,84.85,3a17.19,17.19,0,0,0-1.7.29l-1.54.32-1.29.24c-.26-.2-.61-.45-1.06-.74A23.2,23.2,0,0,0,77.1,1.78,13.9,13.9,0,0,0,75,.91L74.13.66,73.34.45l-.4-.11c-.17,0-.35-.08-.51-.1a10.33,10.33,0,0,0-1.83,0c-.69,0-1.35.11-2,.18-.44,0-.85.1-1.23.13a1.72,1.72,0,0,1-.31,0,2.61,2.61,0,0,1-.28,0L66.14.47l-.42,0L64.89.34C63.71.2,62.8.11,62.39.07l-.23,0-.93,0c-.58,0-1.37,0-2.31,0-.71,0-1.49.09-2.33.19l-.88.11a15.68,15.68,0,0,0-3.64,1l-.46.22-.41.21-.81.46a0,0,0,0,1,0,0h0c-.51.31-1,.62-1.46,1a15.45,15.45,0,0,0-2.4,2.07l-.29.31A.27.27,0,0,0,46,5.37l-1.38-.31c-.86-.17-2.06-.42-3.54-.61a14.83,14.83,0,0,0-2.53-.15c-.89.07-1.76.2-2.67.35s-1.82.34-2.75.58l-.71.19-.37.1-.18.05-.27.1a1.78,1.78,0,0,0-1,.62,2.26,2.26,0,0,0-.37,1.11c0,.1,0,.22,0,.3v.21c0,.13,0,.27,0,.4s0,.52.08.77q.12.75.3,1.47c.13.48.27.94.44,1.4.1.23.18.45.29.67l.08.19a.75.75,0,0,0,.07.12l0,.07.18.29a27.93,27.93,0,0,0,3,4c.73.71,1.38,1.31,1.92,1.79h0a16.86,16.86,0,0,1-.25,2.24,16.17,16.17,0,0,1-.79,2.8,8.25,8.25,0,0,1-1.86,3,.92.92,0,0,0-.12,1.26,1,1,0,0,0,.28.23,2.56,2.56,0,0,0,.31.14l.44.18.26.12.17.07c.05,0,.12,0,.13.07l-.16.09-.15.1-.07,0-.21.13-.85.54-2.59,1.66,3.41,1,.59.17.18,0,0,0,.16.06-.15.07a3.36,3.36,0,0,0-.48.28l-.34.24a1.12,1.12,0,0,0-.27.26c-.09.1-.08.18-.13.28s-.09.19,0,.28a2.36,2.36,0,0,0,.15.25l.22.26c.18.16.43.31.6.44L37.65,37,40,38.59l1.24.82c.35.24.85.58,1.38.88s1.16.65,1.82,1c1.34.68,2.92,1.42,4.61,2.18l.79.35a13,13,0,0,0-1.67.83c-.69.41-1.05.84-1,.88a9.81,9.81,0,0,1,1.13-.66,17.15,17.15,0,0,1,2.08-.81l1.27.55.84.35-.9,1.87c-.32.68-.71,1.44-1.16,2.44-.07.16-.13.32-.2.49a14.45,14.45,0,0,0-1.45.77c-.52.33-1.08.69-1.58,1l-.68.52-.29.23a.74.74,0,0,1-.13.12l-.14.13a.83.83,0,0,0-.25.67,1.42,1.42,0,0,0,0,.25,2.53,2.53,0,0,0,.13.35,4.26,4.26,0,0,0,.45.71c.46.53,1.14.89,1.6,1.4a3.2,3.2,0,0,1,.79,1.74c0,.14.06.26.08.37s0,.08,0,.12l0,0,0,0h0s0,0,0,0h0v0s0,0,0,0l0,0v0h0v0h0s-.06,0-.07,0h0a.94.94,0,0,0-.55-.2,1.41,1.41,0,0,0-.41.07.26.26,0,0,0,0-.21c0-.08,0-.15-.05-.25s0-.46-.2-.63-.24,0-.35,0a1.68,1.68,0,0,0-.36.28l-.33.27a1.48,1.48,0,0,0-.29.36,6.14,6.14,0,0,0-.4.86,4.7,4.7,0,0,0-.18.47,1.07,1.07,0,0,0,0,.64,1.51,1.51,0,0,0,.91.83,5,5,0,0,0,1.13.28A9.11,9.11,0,0,0,48.9,61a2.51,2.51,0,0,0,.65-.08l.19-.07c0,.22.09.45.15.68a21.2,21.2,0,0,0,1.6,4.74c.14.29.29.57.46.85A12.34,12.34,0,0,1,50.62,69s-.21.21-.51.49l-.17.19c-.93,1-1.84,2.08-2.76,3.12h0s0,0,0,0h0c-.6.66-1.27,1.33-1.88,2-.46.46-.89.94-1.33,1.42l-.81,1.19c-.33.57-.65,1.13-1,1.67a.83.83,0,0,0-.08.12c-.11.22-.34.76-.52,1.2l-.1.19a2.77,2.77,0,0,1-.1.26h0v0l0,.05h0a24.24,24.24,0,0,0-1.39,4.43c-.07.32-.12.6-.17.89l-.06.36v.06a6.75,6.75,0,0,0,.25,3.24h0v0a4.91,4.91,0,0,0,.39,1,11.84,11.84,0,0,1-.41-2.9c0-.27,0-.55,0-.83a2.08,2.08,0,0,0,.41.35,4.1,4.1,0,0,0,2.8.74,14.86,14.86,0,0,0,2.79-.51,3.91,3.91,0,0,0,1-.4.28.28,0,0,0,0,.09,6.53,6.53,0,0,0,.51,2l.1.19c-.11.24-.25.57-.43,1-.09.2-.17.42-.27.65a2.74,2.74,0,0,1-.39.64,3.62,3.62,0,0,1-1.36.93,5.12,5.12,0,0,1-3.07.42,8.94,8.94,0,0,1-1-.17c-.25-.82-.49-1.62-.57-1.81.12.47.93,3.59,1,4.08A25.2,25.2,0,0,1,42,99.92c.12.34.23.69.33,1l.15.08c.15,0,.36-.23.54-.46l.58-.73,0-.07c.51,1,1,2.12,1.53,3.2l1.12,2.35-.07-2.6c0-.49,0-1,0-1.48v-.16s0-.11,0-.11l.12.09.45.31c.5.33,1,.64,1.55.93a14.77,14.77,0,0,0,3.39,1.37,66.05,66.05,0,0,0,7.18,1.22l.9.13.18,0h.53l.31,0,1.84-.15c1.22-.11,2.45-.26,3.67-.45s2.44-.42,3.65-.71a18.53,18.53,0,0,0,3.56-1.23l3.05-1.22c.91-.18,2-.36,3-.59.49-.14,1-.25,1.48-.43l.74-.25.71-.31a16.1,16.1,0,0,0,5.06-3.38,12.81,12.81,0,0,0,3.22-5,12,12,0,0,0,.4-1.42,6.21,6.21,0,0,0,.13-.73l0-.36a1.76,1.76,0,0,0,0-.48Zm-19.73-4h0Zm-5.06-1.5h0Zm-1.3-10a9.59,9.59,0,0,0,2.31-.74,5.08,5.08,0,0,0,1.66-1.26c-.17.32-.34.62-.48.87s-.36.64-.37.65-.14.29-.32.69-.45.9-.74,1.38a10.11,10.11,0,0,0-1.16,2c0,.07.15,0,.33-.16a1.48,1.48,0,0,1,0,.27,25.11,25.11,0,0,0-.33,2.81c-.06,1.31-.06,2.23-.08,2.83,0,.32,0,.54,0,.69a.13.13,0,0,1,0,.06v0h0l.32-.06H66c.2,0,.48,0,.84,0a5.61,5.61,0,0,0,1.34,0,9.05,9.05,0,0,0,1.64-.62,7.83,7.83,0,0,1,.86-.38.73.73,0,0,1,.73.28,1.2,1.2,0,0,1,.31.65.85.85,0,0,0-.4-.16,1.51,1.51,0,0,0-.56.08.3.3,0,0,0-.17.09s0,0,0,0,0,0,.08,0a.38.38,0,0,1,.16,0,2.13,2.13,0,0,1,.5,0,.69.69,0,0,1,.42.35.46.46,0,0,1,0,.08l.29-.14h0l-.3.13a.28.28,0,0,0,0-.07l-.08.15c-.09.16-.19.32-.3.49l0,.07h0v0a1,1,0,0,0-.3-.23,0,0,0,0,0,0,0h-.06a1,1,0,0,0-.36-.06h-.19a.11.11,0,0,0-.08,0,.37.37,0,0,0-.17,0s0,0,0,0l0,0s0,0,.07,0a.39.39,0,0,1,.15,0h.1a1.64,1.64,0,0,1,.39.14.59.59,0,0,1,.18.17,1,1,0,0,1,.09.18,0,0,0,0,0,0,0,.28.28,0,0,1,0,.11h0l.27.19a.23.23,0,0,0,0-.1.28.28,0,0,1,0,.11l-.27-.19h0a.89.89,0,0,0,0-.11,0,0,0,0,1,0,0l-.09.11a1,1,0,0,1-.36.3,2.26,2.26,0,0,1-1.07.11l-2.42,0-1.5-.82q-.07-.43-.18-.87h0L64.82,79c0-.17-.07-.33-.11-.5l0-.25-.08-.29c0-.29-.06-.57-.08-.84,0-.62-.1-1.2-.15-1.73-.08-1.07-.14-1.95-.19-2.56,0-.25,0-.46,0-.61Zm5.4-24.77ZM69,48.9a1.31,1.31,0,0,1-1-.09.9.9,0,0,1-.27-.2.34.34,0,0,1,0-.15h0c.25-.08.49-.17.69-.25a8.55,8.55,0,0,0,1.35-.5h0c0,.06.07.12.1.13l.06,0,0,0h0a.76.76,0,0,1,.2.16v.08c0,.1-.13.22-.13.22l-.26.18A1.66,1.66,0,0,1,69,48.9Zm1.16,3.38a3.93,3.93,0,0,1-1.47.4,2.64,2.64,0,0,1-1.53-.43,1.27,1.27,0,0,1-.36-.37.57.57,0,0,1-.12-.23s0,0,.07,0l.12,0,.48,0,1.08-.1a2.94,2.94,0,0,0,1.93-.82l.47,1.26A4.92,4.92,0,0,1,70.15,52.28ZM72.08,57a10.19,10.19,0,0,1-1.62-.09,5.15,5.15,0,0,1-2.09-.67l-.53-.33-.23-.17-.08-.07-.14-.12,0-.05.08,0,.16,0,.18,0a10.67,10.67,0,0,0,1.09.12,4.36,4.36,0,0,0,2-.22,3.23,3.23,0,0,0,1.07-.67l.73,2a.66.66,0,0,0,0,.15A4.82,4.82,0,0,0,72.08,57Zm.32-4.22a1.84,1.84,0,0,1,.95.61,1.06,1.06,0,0,1,.11.44.79.79,0,0,1,0,.14,3.19,3.19,0,0,1,0,.4c0,.31-.19.81-.25,1.28,0,.21-.06.42-.08.62-.15-.86-.4-1.9-.66-2.93l-.16-.6Zm-5.09-4.62-.39.06Zm-2.62-.61a3.65,3.65,0,0,0,1,.49,4,4,0,0,0,1.07.17h.08a9.52,9.52,0,0,1-1.93-.13,15.12,15.12,0,0,1-2.81-.9l1.3-.85A14.16,14.16,0,0,0,64.69,47.56Zm-4.61-1.88s.38-.18.93-.4l1-.37c.3.33.66.7,1,1.08l-1.14.62-.53.3-1.12-.44-1.06-.37C59.68,45.84,60.05,45.69,60.08,45.68Zm14.37-23h0a5.88,5.88,0,0,1,2.18-.61h.51a4.3,4.3,0,0,1,1.53.45A3.85,3.85,0,0,1,80,23.66a6.79,6.79,0,0,1,1.6,3.48,7,7,0,0,1-.18,1.95.65.65,0,0,1-.07.21l0,.06-.07.08a2.46,2.46,0,0,1-.33.31,5.84,5.84,0,0,1-.77.53,11.78,11.78,0,0,1-2.26,1,9.85,9.85,0,0,1-1,.27,15.42,15.42,0,0,1-2.43.38h-.11a3.21,3.21,0,0,1-.81-.06.4.4,0,0,0-.29.05c0-.39,0-.77,0-1.13a3.25,3.25,0,0,1,0-.33h0c.09-1.82.25-3,.26-3.11s.1-1.45.46-3.41c.06-.36.15-.73.24-1.11,0,0,0,0,0-.06ZM70.79,2.15A8.43,8.43,0,0,1,72.26,2a1.48,1.48,0,0,1,.31,0l.41.05a3.64,3.64,0,0,0,.44.07l-.42.4a4.62,4.62,0,0,0-.72,1,13.45,13.45,0,0,0-.62,1.26c-.13.34-.28.75-.43,1.18a2.55,2.55,0,0,0-.08.26s0,.07,0,0V6.22l0-.16,0-.32q0-.3-.06-.57a3,3,0,0,0-.1-.5,5.46,5.46,0,0,0-.21-.61,12.39,12.39,0,0,0-.83-1.76C70.17,2.25,70.48,2.19,70.79,2.15Zm-6.13.63c.1.73.2,1.81.27,3.32a13.48,13.48,0,0,0-1.45-3.37ZM56,2.5c.41,0,.81,0,1.2,0,.19.34.39.77.61,1.28.31.7.73,1.82,1,2.46,0,0,.06.15.12.31s0,.17.09.27.11.28,0,.12-.28-.28-.58-.53l-.16-.13L57.85,6l-.45-.34L56.52,5a13.29,13.29,0,0,0-1.62-1A20.13,20.13,0,0,0,52.84,3,14.93,14.93,0,0,1,56,2.5ZM49.21,54.7c-.11-.18-.22-.34-.31-.51L48.81,54l-.05-.12v0h0l.27-.17.28-.18C49.27,53.92,49.23,54.3,49.21,54.7Zm1,5h0Zm.64-4.61A7.34,7.34,0,0,0,53,55.5a11.87,11.87,0,0,0,1.45,0l.82-.06.63-.07.55-.14.34-.08,0,0-.55.45a17.59,17.59,0,0,1-2.47,1.68,7.11,7.11,0,0,1-2.05.64,9.74,9.74,0,0,1-1.23.12h-.11q-.06-.6-.09-1.17a14.88,14.88,0,0,1,0-2Zm.72-5.31c.41-.88.85-1.72,1.17-2.38a1.42,1.42,0,0,1,.08-.18s0,0,0,0c.22.44.46,1,.85,1.69a4.45,4.45,0,0,0,.81,1,3.11,3.11,0,0,0,.28.23l.21.16a3.66,3.66,0,0,0,.52.28l.09,0,.14,0s.15,0,.05,0l-.29,0L55,50.9l-.51,0-.61,0a4.74,4.74,0,0,1-1.79-.19,3,3,0,0,1-.72-.4C51.45,50.17,51.53,50,51.62,49.77Zm-2,10.37c0,.12-.38.24-.71.24a7.76,7.76,0,0,1-1.08,0,4.52,4.52,0,0,1-1-.2,1.07,1.07,0,0,1-.64-.48.59.59,0,0,1,0-.35,4.29,4.29,0,0,1,.13-.44,8.29,8.29,0,0,1,.32-.82,1.08,1.08,0,0,1,.21-.29l.26-.25.18-.19c.06-.05.15-.13.22-.08s.08.27.15.39.11.27.07.34l-.1.11,0,0a1.08,1.08,0,0,0-.54.38.41.41,0,0,0,0,.34.48.48,0,0,0,.12.2,1,1,0,0,0,.13.14s.11,0,.15-.09.08-.15.05-.17l-.09-.08c0-.07-.1-.14-.07-.21s.2-.17.38-.26a1.52,1.52,0,0,1,.57-.18.85.85,0,0,1,.54.19c.16.12.32.23.43.33s.09.47.13.47a.35.35,0,0,0,.07-.14.2.2,0,0,0,0-.11v-.07a.47.47,0,0,0-.12-.23,1.81,1.81,0,0,0-.24-.24h0a.09.09,0,0,0,0-.06.19.19,0,0,0,0-.09,1.13,1.13,0,0,0,0-.18c0-.12,0-.26,0-.41a4.3,4.3,0,0,0-.1-1,3.19,3.19,0,0,0-.53-1.12c-.51-.68-1.18-1.14-1.43-1.53a2.61,2.61,0,0,1-.27-.52,1.23,1.23,0,0,1-.06-.21s0,0,0-.06l.07-.08L46.9,53l.25-.24.6-.56c.45-.39.94-.8,1.42-1.18.32-.27.64-.52.91-.72a15.8,15.8,0,0,0-.54,1.93h0l-1,.65-.26.18c-.19.13-.42.25-.48.45a.91.91,0,0,0,.06.68c.06.14.08.17.12.25l.11.2c.16.26.34.5.53.76l.29.39.16.19.07.08h0c0,.06,0,.1,0,.16.06.58.12,1.2.18,1.84l.09.83,0,.29.07.58s0,0,0,0,0,.1.05.17h0v0h0v0h0v0h0v0a.08.08,0,0,1,0,.07ZM59.77,72.28a14.62,14.62,0,0,0,2.55.07c.19,0,.38,0,.57,0-.06.31-.12.77-.21,1.34-.15,1.07-.37,2.5-.58,3.94l0,.21s0,.07,0,.1v0h0s0,0,0,0l0,.09-.21.5c-.14.34-.26.66-.39,1l-.69,1.76c-.2.52-.37,1-.48,1.27,0,.08-.06.15-.08.22v0l0,.07s0,0,0,0v0c0,.09,0,.13,0,.14s-.21.68-.51,1.63c-.34.27-.72.6-1.12.93L57,86.86l-.18.16-.09.07,0,0h0a1.48,1.48,0,0,1-.14-.25.6.6,0,0,1-.09-.28.36.36,0,0,1,0-.12.63.63,0,0,1,.18-.38c.13-.18.26-.34.29-.37-.09-.21-.89.56-.79.71a.82.82,0,0,0,.21.57l.11.12L55.59,87l-.45-.07-.19,0a.76.76,0,0,1,0-.15.77.77,0,0,1,.08-.29c0-.08.06-.12.06-.13a2,2,0,0,1,.23-.4c.14-.19.35-.32.33-.36s-.28,0-.49.19a1.33,1.33,0,0,0-.26.28.84.84,0,0,0-.1.15,1.12,1.12,0,0,0-.1.5c-.09-.12-.19-.24-.27-.36v-.21a2.45,2.45,0,0,1,0-.27,3.12,3.12,0,0,1,.1-.48,1.14,1.14,0,0,1,.45-.64,1,1,0,0,1,.7-.18c.08.16,2-.6,2-.62a12.54,12.54,0,0,0,1.75-1.15h0a9.25,9.25,0,0,0,.26-3,26.88,26.88,0,0,0-.13-3.16s-.1-.45-.29-1-.47-1.27-.77-2-.65-1.46-.92-2A9.7,9.7,0,0,0,59.77,72.28ZM54.3,67.85c.18,0,.47,0,.64,0a1.35,1.35,0,0,1-.2.91l0,0c-.23-.2-.46-.4-.67-.61A.79.79,0,0,0,54.3,67.85ZM43.9,77.71c.58-.72,1.15-1.38,1.7-2l0,0h0a3.12,3.12,0,0,0,.88.8,2.41,2.41,0,0,0,1.19.34c.35,0,.59-.17.54-.25s-.2-.11-.43-.24a3.82,3.82,0,0,1-.74-.59,2.66,2.66,0,0,1-.44-.74l-.09-.31a.73.73,0,0,0,0-.08,0,0,0,0,0,0,0h0a.73.73,0,0,1,0,.08l.23-.25c.28-.3.55-.57.82-.83,0,0,0,0,0,0a3.3,3.3,0,0,0,.85.86c.89.61,1.9.71,1.94.55s-.79-.61-1.33-1.25a2.72,2.72,0,0,1-.53-.93l0-.1.72-.68.42-.4a1.7,1.7,0,0,0,.62.75,1.87,1.87,0,0,0,.39.23l.38.17a4.64,4.64,0,0,0,.69.23c.42.1.73.06.74,0s-.22-.2-.54-.43c-.16-.11-.34-.25-.52-.4l-.3-.23a3,3,0,0,1-.25-.24.75.75,0,0,1-.13-.82,1.35,1.35,0,0,1,.16-.3l.07-.16.57-.53,0,0v0l.05.12a1.37,1.37,0,0,0,.29.31,4.06,4.06,0,0,0,.57.35c.43.22.95.29,1,.1s-.19-.47-.4-.81l-.28-.46c-.12-.16-.12-.15-.12-.16s-.08-.07-.15-.42c0,0,0-.08,0-.12a2.77,2.77,0,0,0,.31-.53l.19.21a17.72,17.72,0,0,0,2,1.68c.35.25.71.49,1.08.71,0,.08-.08.18-.13.3a13.28,13.28,0,0,1-.83,1.59c-.4.64-.92,1.38-1.51,2.14s-1.24,1.57-1.94,2.33c-.89,1-1.81,2-2.56,2.9a5.43,5.43,0,0,1-.79.09A7.9,7.9,0,0,1,46,80a3.24,3.24,0,0,1-1.08-.5,2.52,2.52,0,0,1-.68-.76,2.58,2.58,0,0,1-.34-1,.08.08,0,0,1,0,0,.16.16,0,0,0,0-.07h0ZM42.23,80c.41-.63.85-1.22,1.28-1.78,0,0,0,0,0,0a3.6,3.6,0,0,0,.33.72,2.93,2.93,0,0,0,.83.86,3.65,3.65,0,0,0,1.24.51,7.09,7.09,0,0,0,2.39.11A5.51,5.51,0,0,0,49,80.3a9.44,9.44,0,0,0-1,1.5,7.28,7.28,0,0,0-.36.76c-.2,0-.52.13-.91.2a6.19,6.19,0,0,1-2.55,0,3.4,3.4,0,0,1-2.05-1.35,3.09,3.09,0,0,1-.37-.72Q42,80.33,42.23,80Zm20.29,23.94c-.6,0-1.21.1-1.81.13l-.32,0h-.3l-.19,0-.9-.14c-1.61-.25-3.22-.45-4.78-.74,0,0,0,0,0,0,.14-.2.37-.47.64-.8a8.93,8.93,0,0,0,1.69-2.72,5.16,5.16,0,0,0,.08-3.17,1.82,1.82,0,0,0-.56-.8l1,.17a18.79,18.79,0,0,0,6.09-.11c.31,0,.63-.11,1-.19a2.52,2.52,0,0,1,.75.57,4.16,4.16,0,0,1,.9,1.32,3.55,3.55,0,0,1,.13,1.79,6,6,0,0,1-.17.92,6.78,6.78,0,0,1-.33.85c-.25.54-.53,1-.77,1.47s-.44.8-.59,1-.1.21-.14.28ZM90.58,88.7l0,.34c0,.23-.06.46-.12.68A10.14,10.14,0,0,1,90,91.05,12,12,0,0,1,87,95.75a15.53,15.53,0,0,1-4.84,3.18l-.68.28-.7.23c-.46.17-1,.28-1.42.41-1,.21-1.92.36-3,.57l-3.17,1.25h0a18.09,18.09,0,0,1-3.4,1.13c-1.17.28-2.36.5-3.56.68l-1.45.19.49-1c.23-.45.5-1,.74-1.55a5.19,5.19,0,0,0,.46-1.93,3.85,3.85,0,0,0-.25-2,4.18,4.18,0,0,0-1.06-1.36,3,3,0,0,0-.66-.44,35.84,35.84,0,0,0,6.35-2.19c2.68-1.18,5.48-2.68,8.47-4.21.76-.37,1.51-.77,2.29-1.13s1.57-.78,2.37-1.09a8.86,8.86,0,0,1,2.52-.62,4.17,4.17,0,0,1,2.46.48,4.33,4.33,0,0,1,1,.81,5.17,5.17,0,0,1,.42.51l.31.47A1,1,0,0,1,90.58,88.7Z"/>
                <path class="cls-1"
                      d="M40.9,11.45c-.23.24-.37.42-.38.43l-.3.48a5.39,5.39,0,0,0-.5,1.1,3.59,3.59,0,0,0-.2,1.17c0,.33,0,.54.09.54s.16-.82.54-1.54a6.13,6.13,0,0,1,.58-.94l.32-.42s.12-.18.31-.42a9.63,9.63,0,0,1,.73-.85c.56-.6,1.21-1.1,1.17-1.18s-.2,0-.45.15h0A2.51,2.51,0,0,0,41.65,9,4.34,4.34,0,0,0,39.05,9c-1.58.35-3.24.51-3.24.73a8.18,8.18,0,0,0,3.37.27,3.38,3.38,0,0,1,1.91.28,1.31,1.31,0,0,1,.4.32c.07.1.09.15.1.16h0v.09A6.38,6.38,0,0,0,40.9,11.45Z"/>
            </g>
        </g>
    </g>
</svg>