<?xml version="1.0" encoding="UTF-8" standalone="no"?>
<!-- Created with Inkscape (http://www.inkscape.org/) -->

<svg
   width="16"
   height="16"
   viewBox="0 0 16 16"
   version="1.1"
   id="svg5"
   inkscape:version="1.1.1 (3bf5ae0d25, 2021-09-20)"
   sodipodi:docname="plc4x_subs.svg"
   xmlns:inkscape="http://www.inkscape.org/namespaces/inkscape"
   xmlns:sodipodi="http://sodipodi.sourceforge.net/DTD/sodipodi-0.dtd"
   xmlns="http://www.w3.org/2000/svg"
   xmlns:svg="http://www.w3.org/2000/svg">
  <sodipodi:namedview
     id="namedview7"
     pagecolor="#ffffff"
     bordercolor="#666666"
     borderopacity="1.0"
     inkscape:pageshadow="2"
     inkscape:pageopacity="0.0"
     inkscape:pagecheckerboard="0"
     inkscape:document-units="px"
     showgrid="false"
     inkscape:zoom="32"
     inkscape:cx="10.734375"
     inkscape:cy="11.484375"
     inkscape:window-width="1920"
     inkscape:window-height="1001"
     inkscape:window-x="-9"
     inkscape:window-y="-9"
     inkscape:window-maximized="1"
     inkscape:current-layer="layer13" />
  <defs
     id="defs2">
    <clipPath
       clipPathUnits="userSpaceOnUse"
       id="clipPath956">
      <path
         id="path958"
         style="fill:#f5f5f5;stroke:#f5f5f5;stroke-width:1.027"
         d="m -128.69141,-529.66992 c -0.33611,0.0706 -0.69386,0.18125 -1.03515,0.25781 0.17426,0.0633 0.37066,-0.004 0.49414,0.36328 0.34363,-0.39071 0.23198,-0.26982 0.54101,-0.62109 z m -1.83984,0.45898 c -0.55314,0.1303 -1.10274,0.27083 -1.66211,0.41602 -0.45884,0.21139 -0.92058,0.42626 -1.38086,0.61133 -0.38007,0.1528 -0.34213,1.05588 0.0293,1.22851 0.92741,0.43104 2.07567,-1.41658 3.01367,-2.25586 z m 199.697266,273.97461 c -0.679298,0.36473 6.490251,8.00291 10.023437,9.20703 1.303655,0.44429 2.452894,0.71069 3.730469,1.1211 -4.186129,-3.52821 -8.352853,-7.09659 -12.947266,-9.99805 -0.450867,-0.28473 -0.709598,-0.38218 -0.80664,-0.33008 z m 17.978515,17.74219 c -1.677801,-0.44006 3.221506,1.37014 4.931641,1.66016 0.386436,0.0655 0.69423,0.0887 1.076172,0.15039 -1.996134,-0.62914 -3.986702,-1.28044 -6.007813,-1.81055 z m -217.003911,1.91602 c -2.02984,0.37453 -4.06202,0.7344 -6.09179,1.10937 3.58503,-0.27693 5.22408,-0.58312 6.09179,-1.10937 z m -20.81835,0.87695 c -1.06943,-0.0971 2.12405,0.33996 3.19531,0.41406 0.43086,0.0298 0.86341,0.0163 1.29492,0.0469 -1.49636,-0.15656 -2.99189,-0.32493 -4.49023,-0.46094 z m 10.23828,1.05078 c -3.29657,0.60357 -6.58895,1.22787 -9.89063,1.80273 -3.62941,0.63192 -8.50785,-0.51448 -12.23828,0 h -8.70508 -3.5039 c 5e-5,7.01499 1.9e-4,14.03006 0,21.04493 0,9.30478 -10e-4,18.60928 0.002,27.91406 0,16.82712 -0.0167,33.65335 -0.004,50.48047 0.007,1.28788 0.0398,12.31356 0.0293,12.31445 -0.22245,0.019 -0.48063,6.8e-4 -0.70508,0.0176 -0.44511,3.12766 -1.34005,5.78873 -2.62695,8.04297 0.97901,-0.0685 2.055,-0.2229 2.99609,-0.25782 0.19845,-0.007 0.22454,-0.18691 0.34375,-0.27343 -0.0516,-1.66281 -0.16582,-3.32839 -0.15429,-4.98828 -0.0564,1.55508 1.08849,4.31026 0.15429,4.98828 0.19887,6.40511 0.6448,12.822855 0.43946,19.207028 -0.1538,4.78163 0.38218,9.748659 -1.05274,14.3125 -0.246,0.782411 -0.62895,1.515032 -0.89258,2.291016 l 0.13282,2.638672 c -0.33451,4.520059 -0.11431,9.116288 -1.00391,13.560546 -0.31223,1.559802 -0.81444,3.073445 -1.22461,4.609376 -2e-5,3.574376 -1.4e-4,7.148278 0,10.722656 2e-5,4.296849 -10e-4,8.593776 -0.002,12.890625 0.001,4.158312 0.0106,8.316303 -0.004,12.474609 -0.0214,5.426573 0.0885,10.8525159 0.0566,16.279297 -0.0566,3.84266823 -0.0933,5.389294 -0.22265,8.9375 0.38187,2.9570387 0.83073,5.908435 0.94921,8.884766 0.81776,20.542002 -3.74019,40.768326 -7.79297,60.792968 0.003,6.506244 -0.35458,12.996492 -1.90234,19.376953 1e-5,0.987847 -6e-5,2.103408 0,3.728516 4e-5,0.933199 -4e-5,1.867582 0,2.800782 4e-5,4.78282 -10e-4,9.56485 0,14.34766 0.001,1.59376 0.004,3.1875 0.004,4.78125 0,0.66906 4e-5,1.33876 -0.002,2.00781 -0.001,0.57702 0.0941,2.29841 -0.008,1.73047 -0.1136,-0.63298 -0.0183,-1.28665 -0.0273,-1.92969 0.0408,2.12963 -0.0145,4.2602 -0.004,6.39062 4.8544,1.9725 15.87215,9.0192 11.5293,7.41211 -4.18042,-1.54698 -7.7152,-4.51003 -11.5293,-6.8457 0.0203,5.15295 0.0496,10.30671 -0.008,15.45703 -0.05,2.8629 -0.0902,5.74015 -0.14063,8.61524 6.87027,1.15526 11.70815,2.85264 14.83008,5.01367 2.47055,0.74078 4.87452,1.60821 7.24414,2.62305 2.53521,-7.7e-4 5.06987,-0.0813 7.60352,-0.0703 1.61808,0.007 3.2554,-0.22601 4.85351,0.0273 6.66225,1.05707 13.27927,2.3787 19.9004,3.67382 4.24736,-0.35372 8.51098,-0.3032 12.76367,-0.0508 0.32435,-0.0193 1.01302,-0.0135 1.51953,-0.0195 3.60935,-0.0709 7.22047,-0.0313 10.83008,-0.0273 4.66909,-0.004 9.336763,-0.005 14.005856,-0.004 9.64532,-0.15231 13.669268,0.29584 18.71875,1.82813 4.978497,-0.0641 9.956223,-0.008 14.9375,-0.0293 2.962218,-0.0259 5.92443,-0.0235 8.886718,-0.0195 0.711637,0.001 1.435097,-0.12644 2.134766,0.004 9.426578,1.75101 18.804829,3.7553 28.207031,5.63281 3.054578,1.23681 6.054953,2.61842 9.164063,3.71093 0.491313,0.17263 1.049787,-0.043 1.560547,0.0586 1.4179304,0.28199 2.7989459,0.72832 4.1992184,1.08789 4.9270822,1.2652 9.8536852,2.53143 14.7832031,3.78711 4.4498265,1.13348 4.8129665,1.32234 6.6191405,1.77539 5.624897,-2e-5 11.249695,-7e-5 16.875,0 10.199456,1.3e-4 20.400157,0 30.599609,0 h 23.734376 c 7.292788,-1e-5 14.586112,0 21.878902,0 2.72308,-0.58356 5.79161,-0.64379 9.30469,-0.0254 0,-6.2016 1e-5,-12.62057 0,-17.63086 v -9.68555 c 0,-5.00515 -4e-5,-10.01048 0,-15.01562 -5e-5,-6.00456 -5.2e-4,-12.00912 0,-18.01367 0,-4.85017 1e-4,-9.70063 -0.002,-14.55079 0.003,-5.09221 0.0193,-10.183197 -0.0117,-15.275386 -0.006,-2.160862 -0.0362,-5.133986 0.008,-7.498047 0.0646,-3.486982 0.0172,-1.076237 0.0801,-2.455078 0.002,-0.04942 0.0128,-0.07998 0.006,-0.148438 -8.5e-4,-0.0084 -9.5e-4,-0.01702 -0.002,-0.02539 -1.04181,-10.145272 -0.56584,-20.721575 1.70507,-30.777344 -7e-5,-0.491978 8e-5,-0.984589 0.002,-1.476563 1.2e-4,-0.04431 0.002,-0.0723 0.002,-0.132812 -2.6e-4,-0.12807 -0.002,-0.153625 -0.002,-0.230469 -0.0494,-12.006542 -0.0148,-24.013163 0.0547,-36.019531 0.003,-0.635976 -0.13616,-2.527277 0.01,-1.908203 0.29221,1.241814 0.48735,5.077415 0.43555,3.802734 -0.0731,-1.800647 -0.38537,-3.584331 -0.5,-5.3828124 -0.45036,-7.0660446 -0.18207,-14.145012 0.60742,-21.1796876 0.06,-0.359273 0.10549,-1.434733 0.17969,-1.078125 0.16599,0.797419 0.0156,3.2511652 0.10351,2.441406 0.59193,-5.456329 0.40032,-11.010022 1.41211,-16.404296 0.72882,-3.885671 1.86674,-7.676764 3.04688,-11.457032 v -15.621094 -39.316406 -12.205076 c 1e-5,-4.19925 4e-5,-8.3984 0,-12.59766 8e-5,-8.33713 5.8e-4,-16.67459 0,-25.01172 0,-8.2795 9e-4,-16.55839 0.002,-24.83789 0.002,-4.46394 -0.0281,-8.92869 0.0117,-13.39258 0.0228,-5.18504 -0.0296,-10.36893 0.0723,-15.54882 -1.7573,-6.19097 -2.02632,-9.84232 -1.86914,-22.63086 v -8.17774 c -7.34629,-0.1247 -14.60947,-1.31903 -23.732418,-5.75781 -0.198553,-0.0966 -0.381368,-0.21884 -0.578125,-0.31836 H 97.177734 87.691406 81.554688 71.570312 54.169922 45.779297 32.210938 19.931641 0.20703125 -57.544922 c -7.22944,0 -14.458061,1e-5 -21.6875,0 -3.90103,-1e-5 -7.802095,0 -11.703125,0 -3.387866,-4e-5 -6.776189,-6.4e-4 -10.164063,0 -4.17933,0.001 -8.35778,-9e-4 -12.53711,-0.002 -4.90808,0.003 -9.81665,0.0289 -14.72461,-0.0137 -3.94392,-0.0414 -7.89038,0.16137 -11.83203,0.0215 -0.082,-0.008 -0.16407,-0.0169 -0.24609,-0.0254 z m -32.17774,391.57422 c -4.61047,-1.38242 -9.52893,-2.31463 -14.86328,-3.04297 -1.8e-4,0.0351 -0.002,0.0703 -0.002,0.10547 0.55598,0.12739 1.09939,0.24759 1.66015,0.375 1.2625,0.15849 2.97507,0.36522 3.82422,0.47851 0.11505,0.15036 0.21187,0.32333 0.32617,0.47461 3.86995,0.99079 7.69654,2.24555 11.34961,3.64063 -0.6302,-0.71329 -1.37697,-1.39585 -2.29492,-2.03125 z m -9.05469,-1.60938 c -1.44449,-0.36982 -2.75277,-0.63558 -4.15039,-0.95312 -0.53914,-0.0677 -1.09588,-0.13833 -1.66211,-0.20899 -0.002,0.82974 -0.0578,1.66304 -0.041,2.49024 0.0172,0.8458 0.13314,1.6884 0.18164,2.5332 0.42932,0.21176 0.84748,0.33194 1.2832,0.57031 3.05884,0.70206 5.38631,1.13264 8.78907,1.96289 -0.42078,-0.64407 -0.86916,-1.25377 -1.29883,-1.88671 -0.57394,-0.0316 -0.15779,-0.10973 -0.0762,-0.11133 -1.00241,-1.47312 -1.96605,-2.99452 -3.0254,-4.39649 z m 4.4004,6.39453 c 0.6755,1.03398 1.35446,2.06371 2.01757,3.11329 0.0454,0.0257 0.12105,0.0485 0.16602,0.0742 0.20055,0.0144 0.39201,0.054 0.5918,0.0703 -0.60275,-1.02682 -1.22326,-2.03285 -1.84766,-3.03516 -0.31668,-0.0773 -0.61152,-0.1455 -0.92773,-0.22266 z m 2.18359,3.1875 c -0.041,-0.003 -0.0821,-0.007 -0.12305,-0.01 0.11293,0.17924 0.23249,0.34995 0.34375,0.53125 0.22613,0.0187 0.45148,0.0365 0.67774,0.0547 -0.018,-0.0315 -0.0386,-0.0604 -0.0566,-0.0918 -0.30125,-0.16118 -0.55947,-0.32264 -0.8418,-0.48438 z m 0.2207,0.52149 c -1.01143,-0.0835 -1.96687,-0.29058 -2.9707,-0.39258 0.3513,0.26393 0.7079,0.533 1.04101,0.78125 0.71722,0.0672 1.54446,0.21092 2.35352,0.32813 -0.14366,-0.23584 -0.27957,-0.48172 -0.42383,-0.7168 z m -1.92969,0.38867 c -1.05179,-0.0985 -2.44294,-0.0992 -3.54101,-0.14258 1.7208,0.4178 3.42829,0.88032 5.13867,1.3418 -0.54482,-0.41178 -1.08636,-0.8182 -1.59766,-1.19922 z m -3.54101,-0.14258 c -1.18053,-0.28663 -2.36501,-0.52475 -3.55273,-0.75976 -0.99241,0.0947 -1.99982,0.21732 -3.01758,0.35937 0.004,0.0456 0.006,0.0912 0.01,0.13672 2.54314,0.0696 4.52613,0.18323 6.56055,0.26367 z m -3.55273,-0.75976 c 1.2971,-0.12384 2.5408,-0.14115 3.79296,-0.17578 -2.36355,-0.28863 -4.66205,-0.70996 -6.93359,-1.1836 0.0278,0.31627 0.0402,0.63295 0.0684,0.94922 1.02204,0.15552 2.0555,0.20897 3.07227,0.41016 z m 313.08984,-388.14453 c -0.0928,-0.37565 -2.61414,9.51325 -3.23828,13.16992 -0.0719,0.42152 -0.0929,0.85162 -0.1543,1.27539 1.13193,-4.52678 2.40451,-9.02378 3.27148,-13.60742 0.0985,-0.52071 0.13436,-0.78423 0.1211,-0.83789 z m -3.625,27.61523 c 0.60204,8.41161 1.95867,11.03402 4.4082,14.68945 -1.93227,-6.39097 -3.42399,-11.44954 -4.4082,-14.68945 z m -302.50586,108.072266 c 0.0473,0.697243 0.12778,1.392619 0.19922,2.08789 0.0243,-0.147425 0.0356,-0.298061 0.0605,-0.445312 0.0926,-0.545951 -0.29726,-2.195054 -0.25976,-1.642578 z m -1.75781,16.050781 c -3.3781,8.515482 -7.23904,16.855576 -10.76172,25.318359 2.87842,-5.211758 6.81371,-9.966932 8.63672,-15.634765 1.01393,-3.152363 1.62036,-6.406022 2.125,-9.683594 z m -3.5625,28.027344 c -0.18216,0.614814 -0.39151,1.222749 -0.56446,1.839843 -0.11932,0.425748 0.38489,-0.806972 0.46289,-1.242187 0.0357,-0.198899 0.0661,-0.398717 0.10157,-0.597656 z m 62.57031,206.636719 c 1.40725,0.0927 2.81909,0.11086 4.2207,0.27148 0.87798,0.10062 -1.75831,-0.17656 -2.64062,-0.22656 -0.5258,-0.0298 -1.05263,-0.0436 -1.58008,-0.0449 z m 38.589843,2.23437 c -2.444278,0.0884 -4.72558,0.24665 -6.310547,0.53711 -4.787728,0.87743 -18.954756,4.30176 -14.123046,3.71289 6.906617,-0.84176 13.640399,-2.72396 20.433593,-4.25 z m 7.867188,0.13282 c 4.279843,1.42843 10.863049,3.83102 20.824218,7.04687 -4.503497,-2.20737 -9.016788,-4.38516 -13.753906,-6.00195 -1.632023,-0.55702 -4.258391,-0.85551 -7.070312,-1.04492 z m -113.636721,0.37109 c 0.26902,3.09425 0.38658,6.19478 0.27149,9.30273 4.99519,-0.48653 9.45345,-1.05418 15.21679,-1.41601 0.21677,-0.35715 0.59596,-0.76037 0.79102,-1.11133 -0.33383,-0.58863 -0.68768,-1.15248 -1.02539,-1.73633 -0.0817,-0.0556 -0.1953,-0.11453 -0.0899,-0.15429 -0.0803,-0.13859 -0.16362,-0.27379 -0.24414,-0.41211 -5.01007,-1.41296 -9.9984,-2.87355 -14.91992,-4.47266 z m 318.9043,16.67969 c -2.01572,-0.0578 -3.89457,0.39705 -5.625,1.4082 1.97049,1.13641 3.67215,2.49851 5.14258,4.05469 2.04365,0.002 4.08712,0.02 6.13086,0.0156 -1.99037,3.29141 1.54306,0.97701 3.71875,0.0391 -3e-4,-0.0156 3e-4,-0.0313 0,-0.0469 -0.003,-0.16732 0.26481,-0.19131 0.49804,-0.14844 0.59338,-0.20653 1.02936,-0.25481 1.03321,0.13672 0.038,3.86105 0.0507,6.56536 0.0723,9.67188 0.58595,0.003 1.17186,0.008 1.75781,0.0117 0.0853,-3.19929 0.14833,-6.23775 0.26368,-9.67578 6.4e-4,-0.0192 0.0233,-0.0155 0.0254,-0.0332 -4.73437,-3.28254 -9.13408,-5.32219 -13.01758,-5.43359 z m 10.97265,15.29297 c 0.002,0.24101 0.002,0.51309 0.004,0.75195 0.57619,-0.0102 1.15232,-0.0234 1.72852,-0.0332 0.006,-0.22908 0.0115,-0.4656 0.0176,-0.69532 -0.58331,-0.008 -1.16667,-0.0154 -1.75,-0.0234 z m 1.72266,1.02343 c -0.57161,0.006 -1.14323,0.009 -1.71484,0.0156 0.0309,4.5913 0.0657,9.38613 0.10742,14.49805 0.0636,-0.0143 0.12778,-0.0228 0.19141,-0.0371 0.35801,-0.1014 0.67302,-0.18813 1.02929,-0.28907 0.12972,-4.75244 0.26458,-9.51844 0.38672,-14.1875 z m 95.11914,61.76368 c -0.11242,0.16393 -0.12983,0.18369 -0.24609,0.35351 0.11928,-0.14203 0.13096,-0.16561 0.24609,-0.30273 z m 0,12.90234 c -0.0604,0.0102 -0.12096,0.0201 -0.18164,0.0293 0.083,2.53156 0.0435,4.69255 0.18164,7.38281 z m 0,84.99023 c -0.10387,0.59563 -0.26651,1.17503 -0.36719,1.77149 0.12015,-0.15472 0.24288,-0.3082 0.36719,-0.46094 z" />
    </clipPath>
  </defs>
  <g
     inkscape:groupmode="layer"
     id="layer13"
     inkscape:label="Capa 13"
     style="display:inline">
    <g
       id="g118657"
       transform="matrix(1.2373443,0,0,1.1736221,-2.6950192,-1.0316102)">
      <path
         style="display:inline;opacity:1;fill:#7e8c84;fill-opacity:1;stroke:#7e8c84;stroke-width:0.1;stroke-linecap:butt;stroke-linejoin:miter;stroke-miterlimit:4;stroke-dasharray:none;stroke-opacity:1"
         d="m 10.8867,1.9605911 0.423645,0.00985 -0.03941,1.8226601 c 0,0 -0.205335,-0.049544 -0.295567,-0.00985 -0.05543,0.024384 -0.115106,0.077456 -0.118226,0.1379311 -0.0027,0.051857 0.04353,0.1024108 0.08867,0.1280788 0.08299,0.04719 0.285714,0.019704 0.285714,0.019704 l 0.0099,1.3990148 -0.443349,0.00985 z"
         id="path1074"
         sodipodi:nodetypes="cccaaacccc" />
      <path
         style="display:inline;fill:#40593d;fill-opacity:1;stroke:#40593d;stroke-width:0.1;stroke-linecap:butt;stroke-linejoin:miter;stroke-miterlimit:4;stroke-dasharray:none;stroke-opacity:1"
         d="m 11.241426,5.4679799 -0.443349,0.00985 -0.04026,4.2917014 c 0,0 0.01323,-0.078302 0.03906,-0.1054688 0.0205,-0.021557 0.05293,-0.028963 0.08203,-0.035156 0.08788,-0.018705 0.269532,-0.00391 0.269532,-0.00391 z"
         id="path6853"
         sodipodi:nodetypes="cccaacc" />
      <rect
         style="display:inline;fill:#5c6762;fill-opacity:1;stroke:#4c5752;stroke-width:0.1;stroke-miterlimit:4;stroke-dasharray:none;stroke-opacity:1"
         id="rect10595"
         width="0.671875"
         height="9.265625"
         x="10.1875"
         y="1.90625" />
      <rect
         style="display:inline;fill:#5c6762;fill-opacity:1;stroke:#4c5752;stroke-width:0.1;stroke-miterlimit:4;stroke-dasharray:none;stroke-opacity:1"
         id="rect10595-9"
         width="0.671875"
         height="9.265625"
         x="9.515625"
         y="1.90625" />
      <rect
         style="display:inline;fill:#5c6762;fill-opacity:1;stroke:#4c5752;stroke-width:0.1;stroke-miterlimit:4;stroke-dasharray:none;stroke-opacity:1"
         id="rect10595-9-5"
         width="0.671875"
         height="9.265625"
         x="8.84375"
         y="1.90625" />
      <rect
         style="display:inline;fill:#5c6762;fill-opacity:1;stroke:#4c5752;stroke-width:0.1;stroke-miterlimit:4;stroke-dasharray:none;stroke-opacity:1"
         id="rect10595-9-5-3"
         width="0.671875"
         height="9.265625"
         x="8.171875"
         y="1.90625" />
      <path
         style="display:inline;fill:#252525;fill-opacity:1;stroke:#d4deda;stroke-width:0.05;stroke-miterlimit:4;stroke-dasharray:none;stroke-opacity:1"
         id="path24417"
         sodipodi:type="arc"
         sodipodi:cx="10.545835"
         sodipodi:cy="2.1848495"
         sodipodi:rx="0.11048543"
         sodipodi:ry="0.11324757"
         sodipodi:start="0"
         sodipodi:end="6.2519963"
         sodipodi:open="true"
         sodipodi:arc-type="arc"
         d="M 10.65632,2.1848495 A 0.11048543,0.11324757 0 0 1 10.546696,2.2980936 0.11048543,0.11324757 0 0 1 10.435363,2.1866155 0.11048543,0.11324757 0 0 1 10.54325,2.0716329 0.11048543,0.11324757 0 0 1 10.656266,2.181318" />
      <path
         style="display:inline;fill:#252525;fill-opacity:1;stroke:#d4deda;stroke-width:0.05;stroke-miterlimit:4;stroke-dasharray:none;stroke-opacity:1"
         id="path24417-3"
         sodipodi:type="arc"
         sodipodi:cx="9.8501692"
         sodipodi:cy="2.2080908"
         sodipodi:rx="0.11048543"
         sodipodi:ry="0.11324757"
         sodipodi:start="0"
         sodipodi:end="6.2519963"
         sodipodi:open="true"
         sodipodi:arc-type="arc"
         d="M 9.9606546,2.2080908 A 0.11048543,0.11324757 0 0 1 9.8510307,2.3213349 0.11048543,0.11324757 0 0 1 9.7396972,2.2098568 0.11048543,0.11324757 0 0 1 9.847585,2.0948742 0.11048543,0.11324757 0 0 1 9.9606009,2.2045593" />
      <path
         style="display:inline;fill:#252525;fill-opacity:1;stroke:#d4deda;stroke-width:0.05;stroke-miterlimit:4;stroke-dasharray:none;stroke-opacity:1"
         id="path24417-3-2"
         sodipodi:type="arc"
         sodipodi:cx="9.1907701"
         sodipodi:cy="2.2058024"
         sodipodi:rx="0.11048543"
         sodipodi:ry="0.11324757"
         sodipodi:start="0"
         sodipodi:end="6.2519963"
         sodipodi:open="true"
         sodipodi:arc-type="arc"
         d="M 9.3012556,2.2058024 A 0.11048543,0.11324757 0 0 1 9.1916316,2.3190466 0.11048543,0.11324757 0 0 1 9.0802982,2.2075684 0.11048543,0.11324757 0 0 1 9.1881859,2.0925858 0.11048543,0.11324757 0 0 1 9.3012018,2.2022709"
         inkscape:transform-center-x="-0.75682527"
         inkscape:transform-center-y="0.038670074" />
      <path
         style="display:inline;fill:#252525;fill-opacity:1;stroke:#d4deda;stroke-width:0.05;stroke-miterlimit:4;stroke-dasharray:none;stroke-opacity:1"
         id="path24417-3-2-3"
         sodipodi:type="arc"
         sodipodi:cx="8.5073795"
         sodipodi:cy="2.2097089"
         sodipodi:rx="0.11048543"
         sodipodi:ry="0.11324757"
         sodipodi:start="0"
         sodipodi:end="6.2519963"
         sodipodi:open="true"
         sodipodi:arc-type="arc"
         inkscape:transform-center-x="-0.75682527"
         inkscape:transform-center-y="0.038670074"
         d="M 8.617865,2.2097089 A 0.11048543,0.11324757 0 0 1 8.508241,2.3229531 0.11048543,0.11324757 0 0 1 8.3969075,2.2114749 0.11048543,0.11324757 0 0 1 8.5047953,2.0964923 0.11048543,0.11324757 0 0 1 8.6178112,2.2061774" />
      <rect
         style="display:inline;fill:#d4deda;fill-opacity:1;stroke:#d4deda;stroke-width:0.01;stroke-miterlimit:4;stroke-dasharray:none;stroke-opacity:1"
         id="rect27922"
         width="0.12890625"
         height="0.13671875"
         x="10.488281"
         y="2.3984375" />
      <rect
         style="display:inline;fill:#d4deda;fill-opacity:1;stroke:#d4deda;stroke-width:0.01;stroke-miterlimit:4;stroke-dasharray:none;stroke-opacity:1"
         id="rect31259"
         width="0.0859375"
         height="0.07421875"
         x="10.320312"
         y="2.4414062" />
      <rect
         style="display:inline;fill:#d4deda;fill-opacity:1;stroke:#d4deda;stroke-width:0.01;stroke-miterlimit:4;stroke-dasharray:none;stroke-opacity:1"
         id="rect31259-1"
         width="0.0859375"
         height="0.07421875"
         x="10.6875"
         y="2.4511719" />
      <rect
         style="display:inline;fill:#d4deda;fill-opacity:1;stroke:#d4deda;stroke-width:0.01;stroke-miterlimit:4;stroke-dasharray:none;stroke-opacity:1"
         id="rect27922-9"
         width="0.12890625"
         height="0.13671875"
         x="9.7929697"
         y="2.3964844" />
      <rect
         style="display:inline;fill:#d4deda;fill-opacity:1;stroke:#d4deda;stroke-width:0.01;stroke-miterlimit:4;stroke-dasharray:none;stroke-opacity:1"
         id="rect31259-0"
         width="0.0859375"
         height="0.07421875"
         x="9.625"
         y="2.4394531" />
      <rect
         style="display:inline;fill:#d4deda;fill-opacity:1;stroke:#d4deda;stroke-width:0.01;stroke-miterlimit:4;stroke-dasharray:none;stroke-opacity:1"
         id="rect31259-1-0"
         width="0.0859375"
         height="0.07421875"
         x="9.9921885"
         y="2.4492188" />
      <rect
         style="display:inline;fill:#d4deda;fill-opacity:1;stroke:#d4deda;stroke-width:0.01;stroke-miterlimit:4;stroke-dasharray:none;stroke-opacity:1"
         id="rect27922-4"
         width="0.12890625"
         height="0.13671875"
         x="9.1171885"
         y="2.4082031" />
      <rect
         style="display:inline;fill:#d4deda;fill-opacity:1;stroke:#d4deda;stroke-width:0.01;stroke-miterlimit:4;stroke-dasharray:none;stroke-opacity:1"
         id="rect31259-4"
         width="0.0859375"
         height="0.07421875"
         x="8.9492188"
         y="2.4511719" />
      <rect
         style="display:inline;fill:#d4deda;fill-opacity:1;stroke:#d4deda;stroke-width:0.01;stroke-miterlimit:4;stroke-dasharray:none;stroke-opacity:1"
         id="rect31259-1-1"
         width="0.0859375"
         height="0.07421875"
         x="9.3164072"
         y="2.4609375" />
      <rect
         style="display:inline;fill:#d4deda;fill-opacity:1;stroke:#d4deda;stroke-width:0.01;stroke-miterlimit:4;stroke-dasharray:none;stroke-opacity:1"
         id="rect27922-6"
         width="0.12890625"
         height="0.13671875"
         x="8.4492188"
         y="2.4121094" />
      <rect
         style="display:inline;fill:#d4deda;fill-opacity:1;stroke:#d4deda;stroke-width:0.01;stroke-miterlimit:4;stroke-dasharray:none;stroke-opacity:1"
         id="rect31259-7"
         width="0.0859375"
         height="0.07421875"
         x="8.281249"
         y="2.4550781" />
      <rect
         style="display:inline;fill:#d4deda;fill-opacity:1;stroke:#d4deda;stroke-width:0.01;stroke-miterlimit:4;stroke-dasharray:none;stroke-opacity:1"
         id="rect31259-1-4"
         width="0.0859375"
         height="0.07421875"
         x="8.6484375"
         y="2.4648438" />
      <path
         style="display:inline;fill:#d4deda;fill-opacity:1;stroke:#d4deda;stroke-width:0.01;stroke-miterlimit:4;stroke-dasharray:none;stroke-opacity:1"
         id="path31702"
         sodipodi:type="arc"
         sodipodi:cx="9.1992188"
         sodipodi:cy="3.8007812"
         sodipodi:rx="0.15625"
         sodipodi:ry="0.16796875"
         sodipodi:start="0"
         sodipodi:end="6.2519963"
         sodipodi:open="true"
         sodipodi:arc-type="arc"
         d="M 9.3554688,3.8007813 A 0.15625,0.16796875 0 0 1 9.2004371,3.9687449 0.15625,0.16796875 0 0 1 9.0429877,3.8034005 0.15625,0.16796875 0 0 1 9.1955641,3.6328585 0.15625,0.16796875 0 0 1 9.3553928,3.7955433" />
      <rect
         style="display:inline;fill:#d4deda;fill-opacity:1;stroke:#d4deda;stroke-width:0.00663415;stroke-miterlimit:4;stroke-dasharray:none;stroke-opacity:1"
         id="rect36730-6"
         width="0.5624758"
         height="0.029156277"
         x="9.570323"
         y="4.618721" />
      <path
         style="display:inline;fill:#2e332d;fill-opacity:1;stroke:#2e332d;stroke-width:0.00663415;stroke-linecap:butt;stroke-linejoin:miter;stroke-miterlimit:4;stroke-dasharray:none;stroke-opacity:1"
         d="m 9.5703227,4.6187211 0.019217,-0.038147 0.5231403,-0.00188 0.02013,0.040022 z"
         id="path39791-0"
         sodipodi:nodetypes="ccccc" />
      <rect
         style="display:inline;fill:#d4deda;fill-opacity:1;stroke:#d4deda;stroke-width:0.00663415;stroke-miterlimit:4;stroke-dasharray:none;stroke-opacity:1"
         id="rect36730-6-4"
         width="0.5624758"
         height="0.029156277"
         x="8.8945398"
         y="4.6148138" />
      <path
         style="display:inline;fill:#2e332d;fill-opacity:1;stroke:#2e332d;stroke-width:0.00663415;stroke-linecap:butt;stroke-linejoin:miter;stroke-miterlimit:4;stroke-dasharray:none;stroke-opacity:1"
         d="m 8.8945395,4.614814 0.019217,-0.038147 0.5231402,-0.00188 0.02013,0.040022 z"
         id="path39791-0-9"
         sodipodi:nodetypes="ccccc" />
      <rect
         style="display:inline;fill:#d4deda;fill-opacity:1;stroke:#d4deda;stroke-width:0.00663415;stroke-miterlimit:4;stroke-dasharray:none;stroke-opacity:1"
         id="rect36730-6-48"
         width="0.5624758"
         height="0.029156277"
         x="8.2226648"
         y="4.6187201" />
      <path
         style="display:inline;fill:#2e332d;fill-opacity:1;stroke:#2e332d;stroke-width:0.00663415;stroke-linecap:butt;stroke-linejoin:miter;stroke-miterlimit:4;stroke-dasharray:none;stroke-opacity:1"
         d="m 8.2226645,4.6187203 0.019217,-0.038147 0.5231403,-0.00188 0.02013,0.040022 z"
         id="path39791-0-1"
         sodipodi:nodetypes="ccccc" />
      <rect
         style="display:inline;fill:#d4deda;fill-opacity:1;stroke:#d4deda;stroke-width:0.00663415;stroke-miterlimit:4;stroke-dasharray:none;stroke-opacity:1"
         id="rect36730-6-9"
         width="0.5624758"
         height="0.029156277"
         x="10.246102"
         y="4.6187201" />
      <path
         style="display:inline;fill:#2e332d;fill-opacity:1;stroke:#2e332d;stroke-width:0.00663415;stroke-linecap:butt;stroke-linejoin:miter;stroke-miterlimit:4;stroke-dasharray:none;stroke-opacity:1"
         d="m 10.246102,4.6187203 0.01922,-0.038147 0.52314,-0.00188 0.02013,0.040022 z"
         id="path39791-0-2"
         sodipodi:nodetypes="ccccc" />
      <path
         style="display:inline;fill:#2e332d;fill-opacity:1;stroke:#2e332d;stroke-width:0.00866283;stroke-linecap:butt;stroke-linejoin:miter;stroke-miterlimit:4;stroke-dasharray:none;stroke-opacity:1"
         d="m 10.311469,7.5831516 c 0,0 0.09224,0.1352116 0.165692,0.1662035 0.04446,0.018759 0.102233,0.023559 0.145952,0.00329 0.06662,-0.03088 0.132424,-0.1694965 0.132424,-0.1694965 z"
         id="path43310-5"
         sodipodi:nodetypes="caacc" />
      <path
         style="display:inline;fill:#d4deda;fill-opacity:1;stroke:#d4deda;stroke-width:0.00981758;stroke-linecap:butt;stroke-linejoin:miter;stroke-miterlimit:4;stroke-dasharray:none;stroke-opacity:1"
         d="m 10.311469,7.5831516 c 0,0 0.08155,0.062914 0.129971,0.076043 0.07145,0.019374 0.152371,0.025067 0.222035,0 0.03742,-0.013464 0.09206,-0.076043 0.09206,-0.076043 z"
         id="path43062-4"
         sodipodi:nodetypes="caacc" />
      <path
         style="display:inline;fill:#2e332d;fill-opacity:1;stroke:#2e332d;stroke-width:0.00866283;stroke-linecap:butt;stroke-linejoin:miter;stroke-miterlimit:4;stroke-dasharray:none;stroke-opacity:1"
         d="m 9.635234,7.5886267 c 0,0 0.09224,0.1352116 0.165692,0.1662035 0.04446,0.018759 0.102233,0.023559 0.145952,0.00329 0.06662,-0.03088 0.132424,-0.1694965 0.132424,-0.1694965 z"
         id="path43310-5-1"
         sodipodi:nodetypes="caacc" />
      <path
         style="display:inline;fill:#d4deda;fill-opacity:1;stroke:#d4deda;stroke-width:0.00981758;stroke-linecap:butt;stroke-linejoin:miter;stroke-miterlimit:4;stroke-dasharray:none;stroke-opacity:1"
         d="m 9.635234,7.5886267 c 0,0 0.08155,0.062914 0.129971,0.076043 0.07145,0.019374 0.152371,0.025067 0.222035,0 0.03742,-0.013464 0.09206,-0.076043 0.09206,-0.076043 z"
         id="path43062-4-5"
         sodipodi:nodetypes="caacc" />
      <path
         style="display:inline;fill:#2e332d;fill-opacity:1;stroke:#2e332d;stroke-width:0.00866283;stroke-linecap:butt;stroke-linejoin:miter;stroke-miterlimit:4;stroke-dasharray:none;stroke-opacity:1"
         d="m 8.2836715,7.5808141 c 0,0 0.09224,0.1352116 0.165692,0.1662035 0.04446,0.018759 0.102233,0.023559 0.145952,0.00329 0.06662,-0.03088 0.132424,-0.1694965 0.132424,-0.1694965 z"
         id="path43310-5-2"
         sodipodi:nodetypes="caacc" />
      <path
         style="display:inline;fill:#d4deda;fill-opacity:1;stroke:#d4deda;stroke-width:0.00981758;stroke-linecap:butt;stroke-linejoin:miter;stroke-miterlimit:4;stroke-dasharray:none;stroke-opacity:1"
         d="m 8.2836715,7.5808141 c 0,0 0.08155,0.062914 0.129971,0.076043 0.07145,0.019374 0.152371,0.025067 0.222035,0 0.03742,-0.013464 0.09206,-0.076043 0.09206,-0.076043 z"
         id="path43062-4-3"
         sodipodi:nodetypes="caacc" />
      <rect
         style="display:inline;fill:#4c5752;fill-opacity:1;stroke:#414644;stroke-width:0.1;stroke-miterlimit:4;stroke-dasharray:none;stroke-opacity:1"
         id="rect49464"
         width="0.6015625"
         height="1.3046875"
         x="10.257812"
         y="9.8671875" />
      <rect
         style="display:inline;fill:#4c5752;fill-opacity:1;stroke:#414644;stroke-width:0.105683;stroke-miterlimit:4;stroke-dasharray:none;stroke-opacity:1"
         id="rect49464-5"
         width="0.671875"
         height="1.3046875"
         x="9.515625"
         y="9.8671875" />
      <rect
         style="display:inline;fill:#4c5752;fill-opacity:1;stroke:#414644;stroke-width:0.105683;stroke-miterlimit:4;stroke-dasharray:none;stroke-opacity:1"
         id="rect49464-5-4"
         width="0.671875"
         height="1.3046875"
         x="8.84375"
         y="9.8671875" />
      <rect
         style="display:inline;fill:#4c5752;fill-opacity:1;stroke:#414644;stroke-width:0.105683;stroke-miterlimit:4;stroke-dasharray:none;stroke-opacity:1"
         id="rect49464-5-4-6"
         width="0.671875"
         height="1.3046875"
         x="8.171875"
         y="9.8671875" />
      <rect
         style="display:inline;fill:#4c5752;fill-opacity:1;stroke:#414644;stroke-width:0.146191;stroke-miterlimit:4;stroke-dasharray:none;stroke-opacity:1"
         id="rect49464-5-4-6-3"
         width="0.94048756"
         height="5.498579"
         x="7.1683431"
         y="7.201242" />
      <rect
         style="display:inline;fill:#5c6762;fill-opacity:1;stroke:#4c5752;stroke-width:0.100581;stroke-miterlimit:4;stroke-dasharray:none;stroke-opacity:1"
         id="rect49464-5-4-6-3-2"
         width="0.94048756"
         height="5.5626626"
         x="7.2046628"
         y="1.6806139" />
      <path
         style="display:inline;fill:#252525;fill-opacity:1;stroke:#d4deda;stroke-width:0.05;stroke-miterlimit:4;stroke-dasharray:none;stroke-opacity:1"
         id="path24417-9"
         sodipodi:type="arc"
         sodipodi:cx="9.1835938"
         sodipodi:cy="10.214844"
         sodipodi:rx="0.11048543"
         sodipodi:ry="0.11324757"
         sodipodi:start="0"
         sodipodi:end="6.2519963"
         sodipodi:open="true"
         sodipodi:arc-type="arc"
         d="M 9.2940792,10.214844 A 0.11048543,0.11324757 0 0 1 9.1844552,10.328088 0.11048543,0.11324757 0 0 1 9.0731218,10.21661 0.11048543,0.11324757 0 0 1 9.1810095,10.101627 0.11048543,0.11324757 0 0 1 9.2940254,10.211312" />
      <rect
         style="display:inline;fill:#5c6762;fill-opacity:1;stroke:#4c5752;stroke-width:0.1;stroke-miterlimit:4;stroke-dasharray:none;stroke-opacity:1"
         id="rect10595-5"
         width="1.7872705"
         height="6.3795819"
         x="5.4173923"
         y="7.2432761" />
      <rect
         style="display:inline;fill:#5c6762;fill-opacity:1;stroke:#4c5752;stroke-width:0.1;stroke-miterlimit:4;stroke-dasharray:none;stroke-opacity:1"
         id="rect10595-5-1"
         width="1.7872705"
         height="6.3795819"
         x="3.6301217"
         y="7.2432761" />
      <rect
         style="display:inline;fill:#5c6762;fill-opacity:1;stroke:#4c5752;stroke-width:0.0933781;stroke-miterlimit:4;stroke-dasharray:none;stroke-opacity:1"
         id="rect10595-5-1-6"
         width="1.7872705"
         height="5.5626621"
         x="3.6301217"
         y="1.6806139" />
      <rect
         style="display:inline;fill:#5c6762;fill-opacity:1;stroke:#4c5752;stroke-width:0.0933781;stroke-miterlimit:4;stroke-dasharray:none;stroke-opacity:1"
         id="rect10595-5-1-6-9"
         width="1.7872705"
         height="5.5626626"
         x="5.4173923"
         y="1.6806139" />
      <path
         style="display:inline;fill:#d4deda;fill-opacity:1;stroke:#d4deda;stroke-width:0.036477;stroke-linecap:butt;stroke-linejoin:miter;stroke-miterlimit:4;stroke-dasharray:none;stroke-opacity:1"
         d="m 5.4835953,7.2079491 -0.066203,0.035327 1.7618116,0.00442 -0.084596,-0.035328 z"
         id="path62257"
         sodipodi:nodetypes="ccccc" />
      <path
         style="display:inline;fill:#d4deda;fill-opacity:1;stroke:#d4deda;stroke-width:0.036477;stroke-linecap:butt;stroke-linejoin:miter;stroke-miterlimit:4;stroke-dasharray:none;stroke-opacity:1"
         d="m 3.7217837,7.2035296 -0.066203,0.035327 1.7618116,0.00442 -0.084596,-0.035328 z"
         id="path62257-2"
         sodipodi:nodetypes="ccccc" />
      <rect
         style="display:inline;fill:#d4deda;fill-opacity:1;stroke:#5c6762;stroke-width:0.025;stroke-miterlimit:4;stroke-dasharray:none;stroke-opacity:1"
         id="rect66512"
         width="0.14453125"
         height="0.1796875"
         x="5.7578125"
         y="2.9179688" />
      <rect
         style="display:inline;fill:#d4deda;fill-opacity:1;stroke:#5c6762;stroke-width:0.025;stroke-miterlimit:4;stroke-dasharray:none;stroke-opacity:1"
         id="rect66512-2"
         width="0.14453125"
         height="0.1796875"
         x="3.9082031"
         y="2.9804688" />
      <rect
         style="display:inline;fill:#d4deda;fill-opacity:1;stroke:#5c6762;stroke-width:0.025;stroke-miterlimit:4;stroke-dasharray:none;stroke-opacity:1"
         id="rect66512-24"
         width="0.14453125"
         height="0.1796875"
         x="3.9042969"
         y="3.4726562" />
      <rect
         style="display:inline;fill:#d4deda;fill-opacity:1;stroke:#5c6762;stroke-width:0.025;stroke-miterlimit:4;stroke-dasharray:none;stroke-opacity:1"
         id="rect66512-9"
         width="0.14453125"
         height="0.1796875"
         x="3.9042969"
         y="3.6523438" />
      <rect
         style="display:inline;fill:#d4deda;fill-opacity:1;stroke:#5c6762;stroke-width:0.025;stroke-miterlimit:4;stroke-dasharray:none;stroke-opacity:1"
         id="rect66512-92"
         width="0.14453125"
         height="0.1796875"
         x="3.9042969"
         y="3.8320312" />
      <rect
         style="display:inline;fill:#d67183;fill-opacity:1;stroke:#5c6762;stroke-width:0.025;stroke-miterlimit:4;stroke-dasharray:none;stroke-opacity:1"
         id="rect66512-6"
         width="0.14453125"
         height="0.1796875"
         x="5.7578125"
         y="3.0976562" />
      <rect
         style="display:inline;fill:#d4deda;fill-opacity:1;stroke:#5c6762;stroke-width:0.025;stroke-miterlimit:4;stroke-dasharray:none;stroke-opacity:1"
         id="rect66512-1"
         width="0.14453125"
         height="0.1796875"
         x="5.7578125"
         y="3.2773438" />
      <rect
         style="display:inline;fill:#d4deda;fill-opacity:1;stroke:#5c6762;stroke-width:0.025;stroke-miterlimit:4;stroke-dasharray:none;stroke-opacity:1"
         id="rect66512-3"
         width="0.14453125"
         height="0.1796875"
         x="5.7578125"
         y="3.4570312" />
      <rect
         style="display:inline;fill:#d4deda;fill-opacity:1;stroke:#5c6762;stroke-width:0.025;stroke-miterlimit:4;stroke-dasharray:none;stroke-opacity:1"
         id="rect66512-3-6"
         width="0.14453125"
         height="0.1796875"
         x="5.7578125"
         y="3.6367188" />
      <rect
         style="display:inline;fill:#d4deda;fill-opacity:1;stroke:#5c6762;stroke-width:0.025;stroke-miterlimit:4;stroke-dasharray:none;stroke-opacity:1"
         id="rect66512-3-3"
         width="0.14453125"
         height="0.1796875"
         x="5.7578125"
         y="3.8164062" />
      <rect
         style="display:inline;fill:#d4deda;fill-opacity:1;stroke:#5c6762;stroke-width:0.025;stroke-miterlimit:4;stroke-dasharray:none;stroke-opacity:1"
         id="rect66512-3-8"
         width="0.14453125"
         height="0.1796875"
         x="5.7578125"
         y="3.9960938" />
      <rect
         style="display:inline;fill:#d4deda;fill-opacity:1;stroke:#5c6762;stroke-width:0.025;stroke-miterlimit:4;stroke-dasharray:none;stroke-opacity:1"
         id="rect66512-3-9"
         width="0.14453125"
         height="0.1796875"
         x="5.7578125"
         y="4.1757812" />
      <rect
         style="display:inline;fill:#d67183;fill-opacity:1;stroke:#5c6762;stroke-width:0.025;stroke-miterlimit:4;stroke-dasharray:none;stroke-opacity:1"
         id="rect66512-29"
         width="0.14453125"
         height="0.1796875"
         x="7.6152344"
         y="2.921875" />
      <rect
         style="display:inline;fill:#d4deda;fill-opacity:1;stroke:#5c6762;stroke-width:0.025;stroke-miterlimit:4;stroke-dasharray:none;stroke-opacity:1"
         id="rect66512-6-2"
         width="0.14453125"
         height="0.1796875"
         x="7.6152344"
         y="3.1015625" />
      <rect
         style="display:inline;fill:#c7dd51;fill-opacity:1;stroke:#5c6762;stroke-width:0.025;stroke-miterlimit:4;stroke-dasharray:none;stroke-opacity:1"
         id="rect66512-1-1"
         width="0.14453125"
         height="0.1796875"
         x="7.6152344"
         y="3.28125" />
      <rect
         style="display:inline;fill:#c7dd51;fill-opacity:1;stroke:#5c6762;stroke-width:0.025;stroke-miterlimit:4;stroke-dasharray:none;stroke-opacity:1"
         id="rect66512-3-95"
         width="0.14453125"
         height="0.1796875"
         x="7.6152344"
         y="3.4609375" />
      <rect
         style="display:inline;fill:#d4deda;fill-opacity:1;stroke:#5c6762;stroke-width:0.025;stroke-miterlimit:4;stroke-dasharray:none;stroke-opacity:1"
         id="rect66512-3-6-1"
         width="0.14453125"
         height="0.1796875"
         x="7.6152344"
         y="3.640625" />
      <rect
         style="display:inline;fill:#d4deda;fill-opacity:1;stroke:#5c6762;stroke-width:0.025;stroke-miterlimit:4;stroke-dasharray:none;stroke-opacity:1"
         id="rect66512-3-3-0"
         width="0.14453125"
         height="0.1796875"
         x="7.6152344"
         y="3.8203125" />
      <rect
         style="display:inline;fill:#d4deda;fill-opacity:1;stroke:#5c6762;stroke-width:0.025;stroke-miterlimit:4;stroke-dasharray:none;stroke-opacity:1"
         id="rect66512-3-8-6"
         width="0.14453125"
         height="0.1796875"
         x="7.6152344"
         y="4" />
      <rect
         style="display:inline;fill:#d4deda;fill-opacity:1;stroke:#5c6762;stroke-width:0.025;stroke-miterlimit:4;stroke-dasharray:none;stroke-opacity:1"
         id="rect66512-3-9-4"
         width="0.14453125"
         height="0.1796875"
         x="7.6152344"
         y="4.1796875" />
      <rect
         style="display:inline;fill:#d4deda;fill-opacity:1;stroke:#5c6762;stroke-width:0.025;stroke-miterlimit:4;stroke-dasharray:none;stroke-opacity:1"
         id="rect66512-3-9-4-9"
         width="0.14453125"
         height="0.1796875"
         x="7.6152344"
         y="4.359375" />
      <rect
         style="display:inline;fill:#d4deda;fill-opacity:1;stroke:#5c6762;stroke-width:0.025;stroke-miterlimit:4;stroke-dasharray:none;stroke-opacity:1"
         id="rect66512-3-9-4-3"
         width="0.14453125"
         height="0.1796875"
         x="7.6152344"
         y="4.5390625" />
      <rect
         style="display:inline;fill:#f9d859;fill-opacity:1;stroke:#5c6762;stroke-width:0.025;stroke-miterlimit:4;stroke-dasharray:none;stroke-opacity:1"
         id="rect66512-3-9-4-2"
         width="0.14453125"
         height="0.1796875"
         x="7.6152344"
         y="4.71875" />
      <rect
         style="display:inline;fill:#d4deda;fill-opacity:1;stroke:#5c6762;stroke-width:0.025;stroke-miterlimit:4;stroke-dasharray:none;stroke-opacity:1"
         id="rect66512-3-0"
         width="0.14453125"
         height="0.1796875"
         x="5.7578125"
         y="4.5351562" />
      <rect
         style="display:inline;fill:#f9d859;fill-opacity:1;stroke:#5c6762;stroke-width:0.025;stroke-miterlimit:4;stroke-dasharray:none;stroke-opacity:1"
         id="rect66512-3-83"
         width="0.14453125"
         height="0.1796875"
         x="5.7578125"
         y="4.7148438" />
      <rect
         style="display:inline;fill:#c7dd51;fill-opacity:1;stroke:#5c6762;stroke-width:0.025;stroke-miterlimit:4;stroke-dasharray:none;stroke-opacity:1"
         id="rect66512-3-0-9"
         width="0.14453125"
         height="0.1796875"
         x="3.9199219"
         y="4.5742188" />
      <rect
         style="display:inline;fill:#c7dd51;fill-opacity:1;stroke:#5c6762;stroke-width:0.025;stroke-miterlimit:4;stroke-dasharray:none;stroke-opacity:1"
         id="rect66512-3-83-1"
         width="0.14453125"
         height="0.1796875"
         x="3.9199219"
         y="4.7539062" />
      <rect
         style="display:inline;fill:#93bdb0;fill-opacity:1;stroke:#93bdb0;stroke-width:0.05;stroke-miterlimit:4;stroke-dasharray:none;stroke-opacity:1"
         id="rect66844"
         width="0.265625"
         height="2.359375"
         x="6.078125"
         y="2.7617188" />
      <rect
         style="display:inline;fill:#5c8e86;fill-opacity:1;stroke:#5c8e86;stroke-width:0.025;stroke-miterlimit:4;stroke-dasharray:none;stroke-opacity:1"
         id="rect81615"
         width="1.234375"
         height="0.38671875"
         x="3.8125"
         y="2.375" />
      <rect
         style="display:inline;fill:#5c6762;fill-opacity:1;stroke:#4c5752;stroke-width:0.0871033;stroke-miterlimit:4;stroke-dasharray:none;stroke-opacity:1"
         id="rect88566"
         width="1.7931672"
         height="0.58402169"
         x="3.6271734"
         y="1.6776655" />
      <rect
         style="display:inline;fill:#5c6762;fill-opacity:1;stroke:#4c5752;stroke-width:0.0871033;stroke-miterlimit:4;stroke-dasharray:none;stroke-opacity:1"
         id="rect88566-4"
         width="1.7931672"
         height="0.58402169"
         x="5.4203405"
         y="1.6776655" />
      <rect
         style="display:inline;fill:#5c6762;fill-opacity:1;stroke:#4c5752;stroke-width:0.093;stroke-miterlimit:4;stroke-dasharray:none;stroke-opacity:1"
         id="rect88566-4-5"
         width="0.94048721"
         height="0.58402169"
         x="7.2046628"
         y="1.6806139" />
      <path
         style="display:inline;fill:#5c6762;fill-opacity:1;stroke:#4c5752;stroke-width:0.093;stroke-miterlimit:4;stroke-dasharray:none;stroke-opacity:1"
         id="path91861"
         sodipodi:type="arc"
         sodipodi:cx="3.9414062"
         sodipodi:cy="1.9726562"
         sodipodi:rx="0.13671875"
         sodipodi:ry="0.13671875"
         sodipodi:start="0"
         sodipodi:end="6.2519963"
         sodipodi:open="true"
         sodipodi:arc-type="arc"
         d="M 4.078125,1.9726562 A 0.13671875,0.13671875 0 0 1 3.9424723,2.1093708 0.13671875,0.13671875 0 0 1 3.8047041,1.9747882 0.13671875,0.13671875 0 0 1 3.9382085,1.8359749 a 0.13671875,0.13671875 0 0 1 0.13985,0.1324179" />
      <path
         style="display:inline;fill:#5c6762;fill-opacity:1;stroke:#4c5752;stroke-width:0.093;stroke-miterlimit:4;stroke-dasharray:none;stroke-opacity:1"
         id="path91861-6"
         sodipodi:type="arc"
         sodipodi:cx="5.6875"
         sodipodi:cy="1.9687501"
         sodipodi:rx="0.13671875"
         sodipodi:ry="0.13671875"
         sodipodi:start="0"
         sodipodi:end="6.2519963"
         sodipodi:open="true"
         sodipodi:arc-type="arc"
         d="M 5.8242187,1.9687501 A 0.13671875,0.13671875 0 0 1 5.688566,2.1054647 0.13671875,0.13671875 0 0 1 5.5507979,1.9708821 0.13671875,0.13671875 0 0 1 5.6843022,1.8320688 0.13671875,0.13671875 0 0 1 5.8241523,1.9644867" />
      <path
         style="display:inline;fill:#5c6762;fill-opacity:1;stroke:#4c5752;stroke-width:0.093;stroke-miterlimit:4;stroke-dasharray:none;stroke-opacity:1"
         id="path91861-2"
         sodipodi:type="arc"
         sodipodi:cx="7.6484375"
         sodipodi:cy="1.9609375"
         sodipodi:rx="0.13671875"
         sodipodi:ry="0.13671875"
         sodipodi:start="0"
         sodipodi:end="6.2519963"
         sodipodi:open="true"
         sodipodi:arc-type="arc"
         d="M 7.7851562,1.9609375 A 0.13671875,0.13671875 0 0 1 7.6495035,2.0976521 0.13671875,0.13671875 0 0 1 7.5117354,1.9630695 0.13671875,0.13671875 0 0 1 7.6452397,1.8242562 0.13671875,0.13671875 0 0 1 7.7850898,1.9566741" />
      <rect
         style="display:inline;fill:#333333;fill-opacity:1;stroke:#414644;stroke-width:0.093;stroke-miterlimit:4;stroke-dasharray:none;stroke-opacity:1"
         id="rect99856"
         width="0.328125"
         height="0.5625"
         x="3.84375"
         y="5.4375" />
      <rect
         style="display:inline;fill:#333333;fill-opacity:1;stroke:#414644;stroke-width:0.093;stroke-miterlimit:4;stroke-dasharray:none;stroke-opacity:1"
         id="rect99856-6"
         width="0.328125"
         height="0.5625"
         x="3.8476562"
         y="6.2265625" />
      <rect
         style="display:inline;fill:#333333;fill-opacity:1;stroke:#414644;stroke-width:0.093;stroke-miterlimit:4;stroke-dasharray:none;stroke-opacity:1"
         id="rect99856-2"
         width="0.328125"
         height="0.5625"
         x="5.6523438"
         y="6.2304688" />
      <rect
         style="display:inline;fill:#333333;fill-opacity:1;stroke:#414644;stroke-width:0.093;stroke-miterlimit:4;stroke-dasharray:none;stroke-opacity:1"
         id="rect99856-2-3"
         width="0.328125"
         height="0.5625"
         x="7.5367723"
         y="5.0993905" />
      <rect
         style="display:inline;fill:#d4deda;fill-opacity:1;stroke:#414644;stroke-width:0.093;stroke-miterlimit:4;stroke-dasharray:none;stroke-opacity:1"
         id="rect107569"
         width="0.42536893"
         height="2.7787087"
         x="7.5019612"
         y="8.7338734" />
      <path
         style="display:inline;fill:#d4deda;fill-opacity:1;stroke:#d4deda;stroke-width:0.02;stroke-linecap:butt;stroke-linejoin:miter;stroke-miterlimit:4;stroke-dasharray:none;stroke-opacity:1"
         d="M 7.625,7.3828125 7.578125,7.5273437 7.5,7.5664067 l 0.015625,0.5625001 0.074219,0.035156 0.015625,0.265625 c 0.023346,0.027619 0.044826,0.060834 0.078125,0.058594 0.032552,-0.00177 0.065104,0.00131 0.097656,-0.050781 L 7.8085937,8.1757813 7.9179687,8.1054688 7.9257812,7.578125 7.8125,7.515625 7.765625,7.3867187 Z"
         id="path107604"
         sodipodi:nodetypes="cccccccccccccc" />
      <rect
         style="display:inline;fill:#333333;fill-opacity:1;stroke:#333333;stroke-width:0.0154585;stroke-miterlimit:4;stroke-dasharray:none;stroke-opacity:1"
         id="rect112607"
         width="0.24253188"
         height="0.41344452"
         x="7.5916243"
         y="8.8464928" />
      <path
         style="fill:#333333;fill-opacity:1;stroke:#333333;stroke-width:0.02;stroke-linecap:butt;stroke-linejoin:miter;stroke-miterlimit:4;stroke-dasharray:none;stroke-opacity:1"
         d="m 7.59375,10.246094 v 0.664062 l 0.2460937,0.128907 -0.00781,-0.863282 z"
         id="path112583" />
    </g>
  </g>
  <g
     inkscape:groupmode="layer"
     id="layer2"
     inkscape:label="Capa 18"
     style="display:inline">
    <path
       style="fill:#93bdb0;fill-opacity:1;stroke:#93bdb0;stroke-width:0.1;stroke-linecap:butt;stroke-linejoin:miter;stroke-miterlimit:4;stroke-dasharray:none;stroke-opacity:1"
       d="m 14.699215,9.765625 0.03514,0.695313 c -0.475867,-0.219532 -0.994794,-0.438208 -1.6875,-0.382813 -0.650056,0.129563 -1.051845,0.394543 -1.015625,0.898438 0.05309,0.609353 0.675412,0.747612 1.320313,0.867187 0.851492,0.129245 1.544666,0.452253 1.703125,1.429688 0.01626,1.170886 -0.711937,1.465272 -0.976563,1.578125 -0.842909,0.256969 -1.774824,0.12083 -2.742187,-0.171875 l 0.0078,-0.734375 c 1.060126,0.255146 2.734387,0.90625 2.948942,-0.492188 -0.108536,-0.927766 -1.212619,-0.836357 -1.749723,-1.027343 -0.593753,-0.160675 -1.199571,-0.702556 -1.207031,-1.371094 0.06522,-0.807794 0.388974,-1.4964059 1.53125,-1.5468755 0.925129,-0.026315 1.29601,0.1576757 1.832055,0.2578125 z"
       id="path13347"
       sodipodi:nodetypes="ccccccccccccccc" />
  </g>
</svg>
